<?xml version="1.0" encoding="UTF-8" standalone="no"?>
<svg 
   viewBox="0 0 75 75"
   class="plant"
   id="finger">
  <path
     id="path2"
     d="m 48.015796,32.078472 c 0.54641,0.14641 0.869615,0.306217 1.19282,0.466025 -0.126795,-0.619615 -0.166987,-1.28923 -0.35718,-2.218653 0.806218,-0.0036 1.439231,0.09282 1.885641,0.06602 -0.263397,-0.656218 -0.826795,-1.832051 -1.340192,-2.921281 0.44641,-0.02679 0.756218,-0.09019 1.28923,-0.166987 -0.45,-0.779423 -0.85,-1.472244 -1.3,-2.251667 0.359808,0.02321 0.583013,0.0098 0.806218,-0.0036 0.39282,-0.919616 0.699038,-1.789231 -0.333975,-2.578461 0.0866,-0.05 0.173206,-0.1 0.296411,-0.286603 0.459807,0.19641 0.833012,0.44282 1.156217,0.602628 -0.190192,-0.929423 -0.480384,-2.032051 -0.720577,-3.048076 0.0866,-0.05 0.173205,-0.1 0.209808,-0.236603 0.323205,0.159808 0.64641,0.319616 1.106218,0.516026 -0.06699,-1.116026 -1.659808,-2.274871 0.122243,-3.188269 -0.2,-0.34641 -0.313398,-0.74282 -0.513398,-1.08923 0.0866,-0.05 0.136603,0.0366 0.223205,-0.0134 0.02321,-0.359807 0.183013,-0.683013 0.119616,-0.99282 -0.326795,-0.966026 -0.65359,-1.932051 -1.066988,-2.848076 -0.2,-0.346411 -0.74641,-0.492821 -1.24282,-0.552628 -0.136602,-0.0366 -0.369615,0.559807 -0.479423,0.969615 -0.791858,3.228461 -1.447114,6.493524 -2.375575,9.685383 -0.805256,3.005256 -2.306922,5.604294 -3.995191,8.080127 -1.565063,2.28923 -4.030127,3.019615 -6.74878,2.510769 -2.172243,-0.362435 -3.815063,-1.607883 -4.791858,-3.699742 -1.45359,-3.317691 -1.208142,-6.692562 -1.099296,-10.104036 0.04641,-0.719615 0.09282,-1.439231 0.0026,-2.195448 -0.269616,0.733012 -0.725833,1.34282 -0.945449,2.162435 -0.672243,2.235641 -1.431088,4.521281 -1.916729,6.880127 -0.851666,3.724871 -1.653332,7.536345 -2.318396,11.384421 -0.591858,3.574871 -0.960512,7.136345 -1.415767,10.747819 -0.501666,4.331089 -1.176538,8.762177 -1.454999,13.079869 -0.195448,3.461474 -1.297114,6.753332 -1.85237,10.191601 -0.169615,0.906217 -0.202628,1.849038 -0.422243,2.668653 -0.256218,0.956218 -0.649038,1.875833 -1.041858,2.795448 -0.136603,-0.0366 -0.273205,-0.07321 -0.409808,-0.109807 -0.0036,-0.806218 -0.05718,-1.699038 -0.02417,-2.641859 -0.173205,0.1 -0.383013,0.336603 -0.679423,0.623205 0.02321,-0.359807 -0.02679,-0.44641 0.09641,-0.633012 1.914102,-4.684679 2.512178,-9.648781 2.973652,-14.649485 0.358846,-2.978461 0.631089,-5.906922 0.989934,-8.885383 0.395449,-3.115063 0.654294,-6.266729 1.136345,-9.431793 0.931089,-5.387307 1.948781,-10.824613 3.103075,-16.225317 0.545448,-2.855256 1.364101,-5.637307 2.729165,-8.272948 0.319615,-0.64641 0.912435,-1.219615 1.332051,-1.69282 0.05,0.0866 0.186602,0.123205 0.236602,0.209807 -0.0232,0.359808 -0.133013,0.769616 -0.206218,1.042821 0.136603,0.0366 0.136603,0.0366 0.273205,0.0732 0.119616,-0.99282 0.325833,-2.035641 0.445449,-3.028461 0.990896,-5.883717 3.731793,-8.736345 9.968138,-9.334679 2.541858,-0.197372 5.037306,0.324871 6.956921,2.449742 0.723206,0.852628 1.779423,1.282051 2.589231,2.084679 1.856218,1.815064 2.709808,4.093525 3.043782,6.671986 0.727757,4.660511 0.376091,9.251408 -0.421985,13.869099 -0.678461,3.624872 -1.493525,7.21314 -1.898781,10.911216 -0.299038,2.482051 -0.01506,4.97391 -0.0909,7.442563 -0.06865,4.081089 -0.0507,8.112178 -0.565768,12.220062 -0.528461,3.884678 -0.387307,7.729165 -0.469357,11.587049 -0.09282,1.43923 -0.04904,2.915063 -1.421282,3.938268 -0.0866,0.05 -0.173205,0.1 -0.433012,0.25 0.984678,-4.494486 0.07391,-8.471985 -2.212694,-12.232497 0.0866,-0.05 0.173205,-0.1 0.259808,-0.15 0.69641,0.406218 1.429423,0.675833 2.125833,1.082051 0.466025,-1.192821 -0.380385,-1.858846 -0.780385,-2.551666 -0.45,-0.779423 -1.073205,-1.458846 -1.69641,-2.138269 0.679423,-0.623205 0.679423,-0.623205 2.951666,-0.08756 -0.9,-1.558846 -1.8,-3.117692 -2.75,-4.76314 1.102628,-0.290192 1.306218,0.862435 2.002628,1.268653 -0.226795,-0.79282 -0.490192,-1.449038 -0.75359,-2.105256 -0.0134,-0.223205 0.0098,-0.583012 0.08301,-0.856217 0.273205,0.07321 0.583013,0.0098 0.819615,0.219615 0.373205,0.24641 0.659808,0.54282 0.89641,0.752628 0.0866,-0.05 0.173205,-0.1 0.259808,-0.15 -0.3,-0.519615 -0.513397,-1.089231 -0.813397,-1.608846 -0.2,-0.34641 -0.536603,-0.729423 -0.65,-1.125833 -0.15,-0.259808 -0.0768,-0.533013 -0.140193,-0.84282 0.273205,0.07321 0.49641,0.05981 0.769615,0.133012 0.136603,0.0366 0.186603,0.123205 0.509808,0.283013 -0.313397,-0.74282 -0.440192,-1.362435 -0.790192,-1.968653 -0.413398,-0.916026 -0.463398,-1.002628 0.516025,-1.106218 0.0866,-0.05 0.223205,-0.0134 0.223205,-0.0134 -0.213397,-0.569616 -0.426795,-1.139231 -0.776795,-1.745449 -0.363397,-0.829423 -0.776795,-1.745448 -1.140192,-2.574871 -0.25,-0.433013 -0.586603,-0.816025 -0.08038,-1.33923 0.0866,-0.05 -0.02679,-0.446411 -0.126795,-0.619616 -1.619615,-1.605256 -3.152628,-3.260511 -5.817691,-2.876537 -0.842821,0.140193 -1.849038,-0.202628 -2.791859,-0.23564 -1.662435,-0.07942 -3.411473,-0.108846 -5.110512,-0.05167 -0.136602,-0.0366 -0.359807,-0.02321 -0.459807,-0.196411 0.669615,-0.04019 1.375833,-0.216987 2.045448,-0.257179 1.958846,-0.20718 3.831089,-0.36436 5.739935,-0.658142 2.132051,-0.30718 3.834679,0.441859 5.317691,2.010512 0.623205,0.679423 1.419615,1.258846 2.216026,1.838268 0.0866,-0.05 0.173205,-0.1 0.209807,-0.236602 -0.363397,-0.829423 -0.726795,-1.658846 -1.140192,-2.574871 0.966025,-0.326795 1.429423,0.675833 2.38564,0.932051 -0.7,-1.212436 -1.25,-2.165064 -1.9,-3.290897 0.706218,-0.176795 1.275834,-0.390192 1.982051,-0.566987 -0.4,-0.692821 -0.763397,-1.522243 -1.313397,-2.474871 z m -7.649742,-2.049743 c 0.333012,-0.423205 0.975833,-0.909807 1.38205,-1.606217 1.008846,-1.852628 2.017692,-3.705256 2.753332,-5.631089 1.041859,-2.795449 1.897115,-5.714102 2.529166,-8.619358 0.522243,-2.495448 -0.07154,-4.923909 -1.544744,-7.075575 -0.25,-0.433013 -0.983013,-0.702628 -0.959808,-1.062436 -0.05359,-0.89282 -0.636603,-0.902628 -1.133013,-0.962435 -0.49641,-0.05981 -0.956218,-0.256218 -1.53923,-0.266026 -1.935641,-0.152628 -3.931089,0.191155 -5.56314,1.36436 -1.545448,1.123205 -2.654294,2.802628 -3.080127,4.665063 -0.572243,2.408846 -1.007884,4.854294 -1.306922,7.336345 -0.202628,1.849038 -0.132051,3.771281 -0.148076,5.743525 0.02679,0.44641 0.240192,1.016025 0.40359,1.499038 0.226795,0.79282 0.590192,1.622243 0.320577,2.355255 -0.342821,1.006218 0.09378,1.562436 0.666987,2.155256 2.079423,1.801666 5.127499,1.081089 7.219358,0.104294 z" />
  <path
     id="path4"
     d="m 45.104045,48.205992 c -0.84641,-0.666025 -1.64282,-1.245448 -2.489231,-1.911473 -1.219615,-0.912436 -2.572243,-1.055256 -3.984678,-0.701666 -1.102628,0.290192 -2.391859,0.457179 -3.317692,1.453589 -0.629423,0.709808 -1.48564,0.626795 -2.282051,0.04737 -1.406217,-1.03564 -2.995448,-1.388268 -4.707883,-1.554294 -0.223206,0.0134 -0.446411,0.02679 -0.583013,-0.0098 0,0 -0.05,-0.0866 -0.236603,-0.209808 1.289231,-0.166987 2.355256,-0.320577 3.584679,0.0088 0.409808,0.109808 0.733013,0.269615 1.14282,0.379423 1.516026,0.625833 2.928461,0.272243 4.414102,-0.354552 2.971281,-1.25359 5.476537,-1.314359 7.769358,1.056922 0.473205,0.419615 0.736602,1.075833 1.086602,1.682051 -0.136602,-0.0366 -0.223205,0.0134 -0.39641,0.113397 z" />
  <path
     id="path6"
     d="m 29.366283,48.968911 c 0.0866,-0.05 0.0866,-0.05 0.173205,-0.1 2.591859,-0.110769 5.133717,-0.308141 7.688973,-0.282308 1.38923,0.0062 2.691858,0.06244 3.491858,1.448076 0.05,0.0866 0.1,0.173205 0.113398,0.39641 -3.931089,0.191154 -7.642563,-0.437307 -11.404036,-1.15237 -0.05,-0.0866 -0.1,-0.173205 -0.0634,-0.309808 z" />
  <path
     id="path8"
     d="m 21.327534,52.797501 c 0.259807,-0.15 0.606217,-0.35 0.866025,-0.5 2.251666,-1.3 4.593524,-1.843782 7.175575,-1.371539 1.899038,0.28923 3.994487,0.118653 5.797115,1.040896 0.509807,0.283013 1.019615,0.566026 1.39282,0.812436 -0.0366,0.136603 -0.0366,0.136603 -0.07321,0.273205 -0.273205,-0.0732 -0.54641,-0.14641 -0.869615,-0.306218 -0.409808,-0.109807 -0.869616,-0.306217 -1.229423,-0.329423 -2.455256,0.147372 -4.837307,0.02154 -7.246153,-0.550704 -1.229423,-0.329423 -2.418653,0.01077 -3.594486,0.574167 -0.74282,0.313398 -1.449038,0.490193 -2.105256,0.75359 0.0366,-0.136602 -0.0634,-0.309808 -0.113397,-0.39641 z" />
  <path
     id="path10"
     d="m 48.675775,25.94713 c 0.0134,0.223205 0.163397,0.483013 0.04019,0.669615 -0.58923,1.379423 -1.178461,2.758846 -1.817691,4.051666 -0.283013,0.509808 -0.939231,0.773205 -1.372243,1.023205 -0.0866,0.05 -0.359808,-0.02321 -0.409808,-0.109807 -0.05,-0.0866 -0.0634,-0.309808 0.05981,-0.496411 0.899038,-1.44282 1.848076,-2.799038 2.747114,-4.241858 0.159808,-0.323205 0.456218,-0.609808 0.616025,-0.933013 0,0 0,0 0.136603,0.0366 z" />
  <path
     id="path12"
     d="m 48.796562,33.540667 c 1.205256,-2.312435 2.273909,-4.661474 3.479165,-6.973909 0.293783,1.908846 -2.189934,6.806922 -3.479165,6.973909 z" />
  <path
     id="path14"
     d="m 50.198076,26.841154 c -0.622243,2.322243 -1.294486,4.557884 -3.30955,6.067692 -0.05,-0.0866 -0.136602,-0.0366 -0.186602,-0.123205 1.182051,-1.952628 2.314101,-3.991859 3.496152,-5.944487 z" />
  <path
     id="path16"
     d="M 40.699551,7.012685 C 42.795,6.842108 43.64141,7.508133 43.761987,9.516979 42.815577,8.677748 41.782564,7.888518 40.699551,7.012685 Z" />
</svg>
