<?xml version="1.0" encoding="UTF-8" standalone="no"?>
<svg
   xmlns:dc="http://purl.org/dc/elements/1.1/"
   xmlns:cc="http://creativecommons.org/ns#"
   xmlns:rdf="http://www.w3.org/1999/02/22-rdf-syntax-ns#"
   xmlns:svg="http://www.w3.org/2000/svg"
   xmlns="http://www.w3.org/2000/svg"
   height="800"
   width="1200"
   id="signature"
   viewBox="0 0 1200 800"
   version="1.1">
  <metadata
     id="metadata10">
    <rdf:RDF>
      <cc:Work
         rdf:about="">
        <dc:format>image/svg+xml</dc:format>
        <dc:type
           rdf:resource="http://purl.org/dc/dcmitype/StillImage" />
        <dc:title></dc:title>
      </cc:Work>
    </rdf:RDF>
  </metadata>
  <defs
     id="defs8" />
  <path
     d="m 130.49242,158.94131 c 2.27307,-9.63462 32.70832,-145.12595 29.24699,-146.85661 -18.43799,-9.21899 -66.092389,101.265 -62.227387,124.45452 1.613877,9.68369 21.689537,35.57477 32.980397,22.40209 13.3686,-15.59667 3.65761,-33.87612 -15.5567,-24.26863 -0.009,0.004 -69.138886,71.9501 -70.939232,74.05042 -39.3167179,45.86946 -41.2834108,25.30882 -35.469578,22.40179 38.568404,-19.2841 92.52958,61.74078 102.05282,78.40654 7.32553,12.81941 13.46712,25.03204 21.15725,37.33639 1.77612,2.84163 3.73372,12.68516 3.73372,9.33416 0,-15.51914 -4.40111,-39.33881 -9.33401,-54.1377 -4.57637,-13.72898 -0.40025,-108.63166 1.2445,-125.0771 6.43379,-64.33827 42.62196,-13.99729 30.49128,-1.8668 -4.31664,4.31676 -3.48329,27.50513 -14.93447,21.77952 -33.95219,-16.976 21.04112,-70.08444 29.24674,-86.496 5.24512,-10.49044 8.69908,-35.45692 16.80136,-43.55913 1.56837,-1.56823 -5.60286,17.44145 -8.08952,34.84738 -3.65028,25.55285 -16.52922,53.43723 -3.73348,79.02875 3.84989,7.69989 18.33864,-12.81163 19.91265,-8.08971 0.88304,2.64923 3.31894,38.37358 13.69006,28.00239 3.52138,-3.52138 7.1227,-23.81871 13.69002,-20.5351 9.34002,4.67002 3.21027,28.72372 9.33406,34.84734 9.10878,9.10921 24.64848,-7.08734 36.71412,4.97816 24.51751,24.51754 -1.2445,75.89122 -1.2445,106.40867"
     id="name1"
     style="fill:none;stroke:#000000;stroke-width:3" />
  <path
     d="m 376.29061,145.51995 c -0.14733,-18.18149 33.43099,-124.71943 11.82302,-131.92204 -30.58026,-10.19342 -66.6641,193.91496 -30.4915,205.97244 54.24507,18.08177 25.57135,-103.91963 66.58345,-103.91963 0.08,0 -11.60349,11.78614 -15.55705,23.64634 -4.09113,12.27393 -22.71493,50.7133 -12.44524,60.98277 6.28002,6.28005 30.34325,-55.38224 29.8691,-55.38224 -2.42804,0 -9.76787,54.51505 -6.22286,61.6051 6.7198,13.43931 33.60286,-49.10648 33.60286,-30.49123 0,9.54077 -11.70037,45.9866 -6.84481,43.55889 22.27652,-11.1382 43.88134,-68.94484 51.64853,-88.36265 3.30811,-8.27015 5.62693,-16.98702 6.84497,-25.51319 0.0368,-0.25873 -0.0217,-6.22266 0,-6.22266 0.0399,0 -3.2317,15.91771 -7.46711,28.62442 -4.2893,12.8674 -8.09361,29.25842 -11.82346,40.44765 -1.1125,3.33779 -1.43535,51.02643 -2.48887,51.02643 -1.16303,0 3.00349,-4.87032 3.11114,-4.97832 8.74907,-8.7488 11.96645,-23.16713 19.29066,-30.4912 1.23011,-1.23029 12.21697,14.82029 23.64639,20.53505 19.34737,9.67369 71.81715,-5.39874 84.00669,-15.55705"
     id="name2"
     style="fill:none;stroke:#000000;stroke-width:3" />
  <path
     id="pen"
     d="M -2,11.22287 23.123077,74.03061 467.22266,371.40423 503.56089,311.69941 67.088441,23.78444" />
</svg>
