<?xml version="1.0" encoding="UTF-8" ?>
<svg class="gangstaWrappa" xmlns="http://www.w3.org/2000/svg" xmlns:xlink="http://www.w3.org/1999/xlink"viewBox="0 0 864 864" xml:space="preserve">
<g>
<path style="fill-rule:evenodd;fill:#BA874D;" d="M 188.614 196.114 C 189.065 194.987 188.84 193.634 188.84 192.507 C 188.614 175.371 190.193 158.685 196.281 142.451 C 202.143 126.442 211.162 112.237 224.69 101.414 C 235.513 92.6209 247.914 87.8859 262.119 89.6899 C 274.972 91.2679 286.471 96.4539 295.941 105.473 C 301.578 110.659 306.313 116.296 310.597 122.609 C 312.175 124.864 312.175 124.864 314.881 123.737 C 320.969 121.031 327.507 119.227 334.272 119.678 C 348.251 120.354 358.398 127.344 364.936 139.52 C 370.348 149.666 371.701 160.715 371.701 171.988 C 371.701 178.302 370.799 184.39 369.22 190.477 C 368.995 190.928 368.995 191.605 368.77 192.056 C 369.446 192.507 369.897 192.507 370.348 192.507 C 387.484 192.958 400.787 200.849 410.933 214.378 C 418.374 224.299 422.207 235.347 421.756 247.748 C 421.305 259.698 415.894 269.394 406.424 276.609 C 398.758 282.472 390.19 283.599 381.396 279.766 C 370.799 275.256 364.035 267.139 362.005 255.865 C 360.652 247.748 365.162 240.759 372.603 237.602 C 379.141 234.896 385.004 235.798 390.415 240.308 C 394.023 243.464 395.601 247.523 395.376 252.258 C 395.376 255.414 394.023 258.12 391.317 260.149 C 389.513 261.502 387.484 261.502 385.455 260.6 C 380.494 258.346 379.141 252.032 382.974 248.199 C 383.425 247.748 383.876 247.523 384.327 246.846 C 382.524 243.915 380.043 242.337 376.436 242.562 C 369.22 243.013 364.936 249.552 367.417 256.767 C 369.897 263.306 374.181 268.267 380.72 270.972 C 386.582 273.452 392.444 273.002 397.856 269.168 C 407.777 261.953 412.061 252.258 409.806 240.082 C 406.875 224.75 398.081 213.476 383.876 206.712 C 378.465 204.006 372.377 203.104 366.289 202.879 C 364.485 202.879 363.358 203.33 362.456 204.908 C 353.888 219.789 341.712 230.838 326.831 239.406 C 325.478 240.308 324.125 240.984 322.321 241.886 C 325.253 243.915 325.929 247.072 326.38 250.228 C 328.409 266.237 330.213 282.246 332.468 298.255 C 334.497 313.136 336.977 327.792 339.458 342.674 C 342.614 361.163 345.771 379.426 349.153 397.915 C 352.31 414.826 354.565 431.962 357.045 449.098 C 357.496 451.578 357.721 454.059 357.947 456.539 C 358.172 462.627 355.241 466.234 349.379 467.362 C 326.155 471.871 258.963 495.997 256.483 496.899 C 250.395 499.154 244.081 501.409 238.219 504.34 C 237.543 504.565 237.092 504.791 236.415 505.016 C 230.327 507.271 226.494 505.918 223.112 500.281 C 219.505 494.419 216.799 488.331 213.642 482.469 C 203.947 464.656 195.379 446.167 186.36 427.903 C 179.821 414.375 173.282 400.621 166.743 387.092 C 158.175 369.505 148.931 351.918 139.235 335.007 C 135.402 328.243 131.569 321.253 127.961 314.264 C 127.059 312.685 126.383 312.46 124.579 312.911 C 117.589 315.166 110.6 317.42 103.61 318.999 C 87.3759 322.606 71.3669 324.185 54.9069 320.802 C 38.8979 317.646 25.3697 310.431 14.9979 297.578 C 8.68454 289.687 4.62604 280.893 4.40054 270.521 C 4.40054 260.826 7.78264 252.934 16.5762 247.974 C 27.399 242.111 37.5459 244.817 44.7609 252.934 C 49.7209 258.571 49.7209 267.816 44.9859 273.678 C 40.7019 278.864 33.7123 279.315 29.2028 274.58 C 27.399 272.551 26.4971 270.07 26.9481 267.365 C 27.1735 264.884 28.7519 263.081 30.7812 262.855 C 32.8104 262.63 34.6142 263.532 35.7419 265.786 C 36.1929 266.463 36.1929 267.139 36.6439 268.041 C 38.8979 264.884 38.8979 260.826 36.1929 257.895 C 31.4576 252.258 24.6933 251.356 17.7036 255.414 C 13.194 258.12 10.9393 262.179 10.4883 267.365 C 9.58644 274.58 11.8412 281.344 15.6743 287.207 C 23.115 298.706 33.9378 305.47 46.7899 309.303 C 58.0639 312.685 69.5629 312.911 81.2879 311.783 C 92.7869 310.656 103.835 308.176 114.884 304.794 C 115.335 304.568 115.56 304.343 116.237 304.343 C 115.56 303.441 114.658 303.666 113.982 303.441 C 95.7179 300.961 82.4149 291.491 73.3959 275.482 C 70.0139 269.394 67.7589 262.63 66.8569 255.64 C 66.6319 253.836 66.1809 252.032 65.0539 250.454 C 55.5839 234.896 52.4269 217.985 56.7109 200.173 C 60.0929 185.742 68.6609 174.694 81.9639 167.93 C 92.5619 162.518 104.286 161.166 116.011 162.518 C 130.893 164.322 143.745 170.861 155.695 179.655 C 159.077 182.135 162.234 184.841 165.165 187.772 C 166.067 188.674 166.969 189.35 168.096 189.575 C 174.635 191.154 181.174 193.183 187.036 196.565 C 187.938 196.114 188.163 196.114 188.614 196.114 L 188.614 196.114 L 188.614 196.114 L 188.614 196.114 L 188.614 196.114 zM 317.136 250.454 C 314.881 251.13 312.852 251.807 310.822 252.483 C 300.676 255.865 290.529 258.571 280.383 261.502 C 269.109 264.659 258.286 268.041 246.787 270.747 C 245.66 270.972 245.434 271.649 245.885 272.551 C 246.111 273.227 246.336 273.903 246.787 274.805 C 249.493 281.344 251.748 287.883 254.002 294.422 C 260.316 312.46 265.502 330.949 270.913 349.212 C 275.648 364.996 280.158 380.779 284.893 396.788 C 285.794 399.719 286.696 402.65 287.373 405.581 C 289.853 414.6 292.108 423.845 294.362 432.864 C 296.843 442.334 299.097 451.804 301.578 461.048 C 302.254 463.98 303.156 466.685 303.832 469.616 C 304.734 472.322 304.734 472.322 307.44 471.42 C 307.666 471.42 308.117 471.195 308.342 471.195 C 320.743 466.911 333.144 462.627 345.996 459.696 C 349.604 459.019 349.604 458.794 348.928 454.961 C 347.575 447.294 345.996 439.854 344.644 432.187 C 341.712 416.179 339.232 400.17 336.301 384.161 C 332.919 365.447 329.537 346.732 326.38 328.018 C 322.096 302.313 318.488 276.835 317.136 250.454 L 317.136 250.454 L 317.136 250.454 L 317.136 250.454 L 317.136 250.454 L 317.136 250.454 zM 136.304 308.401 C 138.333 311.332 140.363 313.813 141.941 316.744 C 159.979 346.056 175.086 376.946 189.967 408.062 C 195.83 420.463 201.917 432.864 208.005 445.265 C 213.191 456.088 218.377 466.685 223.563 477.508 C 226.269 483.37 228.975 489.233 231.906 495.095 C 233.033 497.575 233.259 497.575 235.964 496.674 C 241.601 494.419 247.013 492.164 252.875 490.36 C 259.188 488.331 265.276 486.302 271.589 484.272 C 272.491 484.047 273.393 483.821 274.295 482.92 C 272.04 480.214 270.237 477.283 268.658 474.351 C 265.502 468.264 263.021 462.176 260.316 455.862 C 257.159 448.647 254.002 441.207 251.071 433.766 C 247.689 425.198 244.758 416.404 241.827 407.836 C 235.739 390.474 229.425 372.887 223.789 355.526 C 216.122 332.076 207.329 308.627 201.917 284.501 C 200.79 284.275 199.888 284.726 198.761 285.177 C 185.232 289.687 171.929 294.196 158.401 298.706 C 157.724 298.931 157.048 299.157 156.597 299.382 C 149.832 302.539 143.294 305.47 136.304 308.401 L 136.304 308.401 L 136.304 308.401 L 136.304 308.401 L 136.304 308.401 L 136.304 308.401 zM 264.374 253.611 C 264.374 253.836 264.6 254.062 264.6 254.287 C 265.276 254.287 265.953 254.062 266.403 253.836 C 267.305 253.611 267.982 253.16 268.884 252.934 C 276.775 248.876 283.991 243.69 290.304 237.602 C 300.676 227.23 308.117 215.28 313.528 201.751 C 319.841 185.968 319.616 169.959 314.43 154.176 C 309.469 139.52 301.578 126.217 291.431 114.492 C 284.667 106.6 276.099 101.189 266.178 98.2579 C 257.384 95.5519 248.816 96.4539 240.474 99.1599 C 233.709 101.414 227.847 105.473 222.661 110.659 C 211.613 121.482 203.947 134.559 199.663 149.441 C 193.349 171.988 193.8 194.761 198.084 217.534 C 201.692 236.474 210.485 253.16 219.73 269.619 C 220.181 270.521 220.632 270.747 221.534 270.521 C 223.563 269.845 226.043 269.394 228.073 268.267 C 225.367 263.757 223.789 259.022 222.21 254.287 C 219.955 246.621 218.603 238.729 217.25 230.838 C 213.191 205.584 216.122 181.233 225.367 157.558 C 228.524 149.892 232.357 142.451 237.768 136.138 C 241.376 131.854 245.66 128.246 250.846 126.217 C 258.286 123.286 265.727 123.962 272.942 127.119 C 278.579 129.599 283.54 133.207 287.824 137.716 C 297.745 148.539 303.156 161.391 304.058 176.272 C 304.96 193.409 299.999 209.192 291.657 223.848 C 286.245 233.543 278.354 241.435 270.237 248.876 C 268.433 250.003 266.403 251.807 264.374 253.611 L 264.374 253.611 L 264.374 253.611 zM 211.162 280.668 C 209.584 281.119 209.133 282.021 209.809 283.599 C 210.936 286.53 212.064 289.461 212.966 292.618 C 221.985 318.548 230.102 344.928 239.121 371.084 C 248.365 398.592 256.934 426.325 268.207 453.382 C 271.815 461.95 275.423 470.518 279.481 478.861 C 280.158 479.988 280.383 480.665 281.961 480.214 C 286.471 478.635 291.206 477.283 295.715 475.704 C 297.068 475.253 297.294 474.577 296.843 473.224 C 294.137 463.98 291.657 454.735 288.951 445.491 C 284.893 431.06 280.383 416.855 276.324 402.425 C 272.266 388.22 267.982 374.015 263.698 359.584 C 255.13 331.174 245.209 303.215 239.346 274.129 C 239.121 273.227 238.67 273.002 237.994 273.227 C 237.092 273.452 235.964 273.678 235.062 273.903 C 233.259 274.129 211.162 280.668 211.162 280.668 L 211.162 280.668 L 211.162 280.668 L 211.162 280.668 L 211.162 280.668 zM 200.339 252.934 C 200.565 252.934 200.565 252.709 200.79 252.709 C 198.986 249.552 197.408 246.395 195.604 243.239 C 190.193 233.092 184.781 222.946 178.468 213.476 C 169.223 199.947 158.401 187.997 144.421 179.429 C 130.667 170.861 116.011 166.351 99.5509 169.057 C 82.4149 171.763 69.1119 184.164 65.5049 201.075 C 63.2499 211.672 64.3769 221.819 67.9849 231.965 C 72.2689 244.141 79.4839 254.062 90.5319 260.826 C 102.257 268.267 115.109 273.227 128.638 276.384 C 143.519 279.991 158.401 280.217 173.507 277.737 C 178.242 277.06 182.977 276.835 187.938 275.482 C 187.487 275.256 187.261 275.256 187.036 275.256 C 186.134 275.031 185.232 275.031 184.556 274.805 C 162.685 271.423 141.941 264.659 122.775 252.934 C 113.756 247.523 105.865 240.984 99.7769 232.19 C 95.4929 225.877 92.3359 219.113 91.4339 211.447 C 90.3069 201.075 94.8159 192.958 104.737 189.35 C 113.08 186.193 121.197 187.321 129.54 189.801 C 135.628 191.605 141.039 194.536 146.225 198.144 C 165.841 211.447 182.076 228.357 196.506 246.846 C 197.633 248.876 198.761 250.905 200.339 252.934 L 200.339 252.934 L 200.339 252.934 L 200.339 252.934 L 200.339 252.934 L 200.339 252.934 L 200.339 252.934 zM 234.16 259.698 C 234.837 259.248 234.837 258.797 234.837 258.12 C 235.513 253.16 236.641 248.425 237.768 243.69 C 244.532 218.211 255.355 194.536 268.658 171.988 C 272.942 164.548 277.903 157.332 283.089 150.568 C 283.765 149.666 284.442 148.99 283.54 147.637 C 278.805 140.873 273.168 135.687 265.276 132.756 C 259.639 130.726 254.228 131.403 249.267 134.785 C 242.954 139.069 238.444 144.931 235.288 151.696 C 227.622 167.253 223.112 183.713 222.661 201.075 C 222.436 219.113 226.494 236.7 231.68 253.836 C 232.357 256.091 233.259 257.895 234.16 259.698 L 234.16 259.698 L 234.16 259.698 L 234.16 259.698 L 234.16 259.698 L 234.16 259.698 L 234.16 259.698 L 234.16 259.698 L 234.16 259.698 zM 201.917 267.816 C 199.888 264.659 198.084 261.953 196.281 259.248 C 186.134 244.366 173.733 231.514 160.43 219.338 C 159.302 218.211 157.95 217.76 156.371 217.309 C 148.48 215.28 140.588 214.829 132.696 216.407 C 123.903 217.985 116.011 221.368 109.021 227.004 C 107.443 228.357 107.218 228.357 108.796 229.936 C 112.629 234.22 117.138 238.053 121.873 241.435 C 132.02 248.65 143.294 253.385 155.018 257.895 C 169.9 263.532 185.458 266.237 201.917 267.816 zM 333.37 204.006 C 340.134 200.173 346.898 196.565 354.339 194.536 C 356.143 194.085 357.045 193.183 357.496 191.379 C 359.525 185.291 360.427 178.753 360.427 172.439 C 360.427 162.744 359.525 153.274 355.241 144.255 C 350.957 135.912 344.418 130.275 334.723 129.148 C 329.086 128.472 323.9 129.599 318.714 131.403 C 316.459 132.305 316.459 132.53 317.587 134.785 C 321.42 142.451 324.802 150.568 326.155 159.136 C 326.38 161.166 327.056 161.842 329.086 162.067 C 336.752 163.195 341.712 168.606 342.163 176.272 C 342.84 183.713 340.811 190.477 337.428 197.016 C 336.301 199.271 334.723 201.526 333.37 204.006 L 333.37 204.006 L 333.37 204.006 L 333.37 204.006 L 333.37 204.006 L 333.37 204.006 L 333.37 204.006 L 333.37 204.006 L 333.37 204.006 L 333.37 204.006 L 333.37 204.006 L 333.37 204.006 zM 288.726 156.656 C 268.433 185.291 254.679 216.182 246.111 249.778 C 247.689 247.523 249.042 245.043 250.395 242.562 C 263.247 221.368 277.001 200.624 293.461 181.909 C 294.362 180.782 294.813 179.88 294.588 178.302 C 294.362 174.92 293.912 171.312 293.235 167.93 C 292.333 164.097 291.206 160.264 288.726 156.656 zM 293.235 192.281 C 285.569 199.271 255.581 241.886 254.228 247.974 C 255.806 247.974 256.934 246.621 258.286 245.944 C 262.119 243.69 266.178 242.111 269.335 238.955 C 282.412 226.554 290.304 211.447 293.461 193.86 C 293.461 193.409 293.912 192.732 293.235 192.281 L 293.235 192.281 L 293.235 192.281 zM 143.745 206.937 C 143.519 206.712 143.519 206.486 143.519 206.261 C 139.01 203.104 134.275 200.398 129.314 198.144 C 128.187 197.693 127.285 197.693 126.158 198.144 C 117.138 200.849 109.021 205.133 101.355 210.319 C 100.002 211.221 99.0999 212.349 100.002 214.152 C 100.679 215.956 101.355 217.76 102.032 219.564 C 102.483 220.917 103.384 220.917 104.286 220.015 C 104.737 219.564 105.414 219.338 105.865 218.887 C 116.011 211.672 127.285 207.839 139.686 206.937 C 141.039 207.163 142.392 207.388 143.745 206.937 zM 299.999 242.337 C 319.616 233.769 338.105 223.622 350.28 205.133 C 349.153 205.133 348.026 205.584 346.898 206.035 C 340.36 208.741 334.272 212.349 328.635 216.633 C 318.714 224.299 309.695 233.092 300.225 241.209 C 299.999 241.435 299.548 241.66 299.999 242.337 L 299.999 242.337 L 299.999 242.337 zM 79.7099 265.561 C 79.7099 266.237 79.7099 266.463 79.7099 266.688 C 79.7099 266.914 79.9349 267.365 79.9349 267.59 C 84.6699 278.187 92.3359 286.079 102.934 290.814 C 111.953 294.873 121.423 295.549 131.118 295.324 C 131.569 295.324 132.245 295.324 132.471 294.647 C 129.314 294.422 125.932 294.422 122.775 293.745 C 109.247 291.716 98.1989 285.628 91.2089 273.452 C 90.7579 272.776 90.3069 271.874 89.6299 271.423 C 86.0229 270.07 83.0919 267.816 79.7099 265.561 L 79.7099 265.561 L 79.7099 265.561 L 79.7099 265.561 zM 321.871 204.457 C 326.38 199.271 329.988 193.634 332.242 187.321 C 333.144 184.39 333.821 181.233 333.595 178.076 C 333.37 174.018 331.791 171.988 327.507 170.861 C 327.958 182.36 326.38 193.634 321.871 204.457 L 321.871 204.457 L 321.871 204.457 L 321.871 204.457 L 321.871 204.457 zM 191.546 219.789 C 190.869 215.731 190.418 211.672 189.742 207.614 C 189.516 206.712 189.291 206.261 188.614 205.81 C 185.232 203.555 181.85 201.3 177.115 199.722 C 182.526 206.486 187.036 213.025 191.546 219.789 L 191.546 219.789 L 191.546 219.789 L 191.546 219.789 L 191.546 219.789 zM 113.756 195.438 C 106.992 194.987 101.581 197.918 100.002 202.879 C 104.286 200.173 108.57 197.693 113.756 195.438 L 113.756 195.438 L 113.756 195.438 L 113.756 195.438 L 113.756 195.438 L 113.756 195.438 L 113.756 195.438 L 113.756 195.438 z"/>
</g>
<g id="">
<path style="fill-rule:evenodd;fill:#000000;" d="M 374.045 485.556 C 375.433 485.874 376.507 487.188 376.543 488.613 C 376.73 490.647 376.603 492.694 376.651 494.734 C 376.707 502.462 376.826 510.192 376.632 517.919 C 376.4 537.391 376.424 556.863 376.408 576.336 C 376.314 587.908 375.642 599.474 374.484 610.987 C 374.157 613.65 373.543 616.278 372.7 618.823 C 372.312 619.96 371.828 621.069 371.102 622.035 C 369.776 623.943 367.588 625.374 365.208 625.322 C 362.667 625.309 360.365 623.86 358.658 622.071 C 357.124 620.429 355.675 618.703 354.447 616.818 C 351.3 612.084 349.018 606.845 346.912 601.584 C 343.192 591.841 341.166 581.532 340.085 571.183 C 338.311 555.642 337.621 539.982 337.867 524.344 C 337.918 523.57 337.985 522.76 337.632 522.041 C 336.812 522.64 336.483 523.634 336.258 524.579 C 331.073 536.731 326.574 549.174 322.783 561.831 C 321.419 566.003 320.262 570.24 318.914 574.417 C 318.453 576.225 317.654 577.934 316.584 579.461 C 315.37 581.407 313.302 582.903 310.967 583.042 C 308.899 583.19 306.814 582.437 305.246 581.096 C 302.59 578.989 301.006 575.914 299.472 572.965 C 296.034 566.177 293.518 558.947 291.652 551.579 C 288.477 538.957 287.62 525.783 288.887 512.839 C 289.257 509.845 289.873 506.874 290.799 504.002 C 291.375 502.724 291.909 501.384 292.844 500.317 C 293.907 499.075 295.598 498.303 297.238 498.649 C 299.295 498.952 301.011 500.583 301.556 502.57 C 301.926 503.994 302.055 505.471 302.282 506.923 C 302.735 510.163 302.975 513.428 303.205 516.69 C 304.112 527.397 304.812 538.123 305.999 548.805 C 306.559 554.408 306.875 560.047 307.908 565.592 C 308.376 568.539 309.04 571.472 310.157 574.245 C 310.349 575.139 310.72 576.045 311.477 576.606 C 312.735 575.59 312.936 573.891 313.569 572.497 C 315.967 566.322 317.71 559.924 319.774 553.636 C 323.959 540.712 328.724 527.989 333.382 515.231 C 334.539 511.983 335.624 508.698 337.056 505.557 C 337.786 504.03 339.107 502.667 340.832 502.367 C 343.174 501.96 345.64 502.641 347.584 503.972 C 349.321 505.16 350.435 507.02 351.213 508.934 C 352.238 511.261 352.774 513.772 352.994 516.297 C 353.657 521.082 353.867 525.918 353.878 530.745 C 354.356 549.139 355.853 567.528 358.896 585.683 C 360.36 594.508 362.06 603.321 364.664 611.889 C 365.133 613.102 365.604 614.327 365.82 615.616 C 366.212 615.6 366.614 615.604 366.948 615.838 C 367.873 613.099 368.011 610.192 368.39 607.348 C 370.072 592.862 370.378 578.26 370.325 563.69 C 370.328 538.645 370.319 513.6 370.33 488.555 C 370.321 487.436 370.869 486.24 371.964 485.818 C 372.612 485.531 373.345 485.415 374.045 485.556 zM 652.353 484.53 C 656.289 484.603 660.001 486.349 663.079 488.711 C 665.539 490.513 667.579 492.867 669.026 495.551 C 672.507 501.21 674.62 507.731 674.917 514.38 C 675.215 520.888 674.546 527.43 673.074 533.771 C 671.49 539.848 668.636 545.689 664.261 550.247 C 659.75 555.017 653.776 558.206 647.515 560.03 C 641.605 561.809 635.289 562.531 629.178 561.436 C 626.849 561.041 624.573 560.368 622.36 559.554 C 622.012 559.509 621.669 559.439 621.327 559.359 C 621.271 563.652 621.54 567.943 621.955 572.214 C 622.424 580.329 623.55 588.392 623.985 596.51 C 624.026 598.643 623.647 600.972 622.124 602.575 C 620.572 604.167 618.071 604.529 616.004 603.885 C 614.274 603.359 612.943 601.927 612.283 600.275 C 610.603 596.635 610.035 592.631 609.142 588.756 C 606.936 578.367 605.117 567.881 604.12 557.302 C 603.238 545.625 603.229 533.903 603.499 522.203 C 603.764 514.384 604.495 506.557 606.135 498.899 C 606.549 496.956 607.125 495.04 608.016 493.258 C 608.838 491.492 610.233 489.912 612.109 489.257 C 614.032 488.506 616.392 488.963 617.794 490.511 C 619.04 491.894 619.553 493.755 619.968 495.528 C 620.446 497.92 620.607 500.364 620.743 502.796 C 620.942 507.518 620.534 512.237 620.607 516.96 C 620.46 517.561 620.99 516.971 621.279 517.308 C 622.664 514.079 624.012 510.829 625.651 507.717 C 628.957 501.286 633.179 495.24 638.64 490.452 C 641.57 487.737 645.11 485.52 649.087 484.798 C 650.163 484.604 651.259 484.502 652.353 484.53 zM 650.685 493.162 C 648.214 493.579 645.926 494.74 643.86 496.125 C 641.499 497.736 639.543 499.855 637.668 501.993 C 633.752 506.556 630.765 511.855 628.522 517.419 C 625.348 525.098 623.218 533.183 621.924 541.384 C 621.446 543.915 620.797 546.473 621.077 549.07 C 621.091 549.875 621.652 550.59 622.423 550.814 C 626.82 552.476 631.466 553.842 636.216 553.608 C 640.472 553.481 644.816 552.301 648.181 549.608 C 651.602 546.913 653.783 542.914 654.887 538.753 C 656.795 532.17 658.298 525.359 658.082 518.465 C 657.977 516.178 658.079 513.885 657.948 511.597 C 657.79 507.717 657.013 503.873 655.795 500.19 C 655.076 498.176 654.278 496.158 653.09 494.369 C 652.597 493.615 651.75 493.041 650.818 493.159 L 650.685 493.162 zM 704.483 490.175 C 707.403 490.378 710.192 491.664 712.428 493.522 C 714.379 495.131 715.74 497.329 716.704 499.643 C 718.527 503.817 719.392 508.319 720.3 512.758 C 722.287 523.042 723.178 533.491 724.656 543.85 C 726.123 554.698 727.253 565.6 729.273 576.365 C 730.117 580.804 731.034 585.248 732.529 589.521 C 733.252 591.804 734.25 594.065 735.85 595.875 C 736.219 596.357 736.861 596.735 737.455 596.413 C 739.172 595.686 740.653 594.526 742.105 593.378 C 743.145 592.574 744.655 592.269 745.848 592.9 C 746.524 593.206 746.942 594.11 746.481 594.759 C 744.475 597.519 742.124 600.227 738.93 601.619 C 736.871 602.55 734.502 602.945 732.298 602.313 C 729.855 601.688 727.829 600.077 726.072 598.332 C 722.549 594.899 719.961 590.62 718.05 586.112 C 716.953 583.669 716.088 581.131 715.365 578.555 C 714.971 577.748 713.972 577.699 713.187 577.756 C 704.617 578 696.059 578.668 687.482 578.643 C 686.985 578.633 686.359 578.747 686.218 579.303 C 685.882 580.685 685.946 582.129 685.826 583.54 C 685.545 587.999 685.342 592.464 684.968 596.916 C 684.78 598.466 684.565 600.051 683.939 601.493 C 683.299 602.876 681.768 603.66 680.302 603.798 C 678.476 603.976 676.636 602.834 675.989 601.117 C 675.224 598.877 675.362 596.468 675.201 594.141 C 675.524 592.543 675.347 590.904 675.461 589.288 C 675.683 583.748 676.433 578.249 677.038 572.743 C 678.156 564.295 679.283 555.847 680.679 547.441 C 682.942 535.251 685.233 522.996 689.371 511.275 C 691.364 505.595 693.719 500.035 696.534 494.712 C 697.757 492.504 699.877 490.687 702.422 490.287 C 703.1 490.163 703.795 490.137 704.483 490.175 zM 701.909 504.59 C 701.283 505.097 700.956 505.87 700.532 506.539 C 699.165 508.952 697.944 511.451 696.966 514.048 C 694.539 520.47 693.16 527.222 691.839 533.94 C 690.046 543.332 688.636 552.796 687.568 562.297 C 687.329 565.067 686.871 567.816 686.685 570.589 C 686.686 570.996 686.673 571.481 687.086 571.698 C 687.526 571.986 688.126 571.82 688.633 571.825 C 696.462 571.415 704.306 571.668 712.137 571.381 C 712.464 571.308 712.983 571.308 712.827 570.835 C 712.451 569.528 712.186 568.177 711.825 566.86 C 710.843 563.391 710.134 559.848 709.513 556.297 C 707.961 547.284 707.228 538.159 706.04 529.096 C 705.102 521.525 704.26 513.934 702.883 506.427 C 702.74 505.754 702.805 505.01 702.389 504.422 L 701.909 504.59 zM 573.895 486.204 C 578.187 486.388 582.191 488.516 585.266 491.43 C 588.375 494.32 590.493 498.114 591.918 502.077 C 594.404 509.004 595.647 516.48 594.753 523.826 C 594.272 527.754 593.277 531.635 591.686 535.262 C 589.998 539.071 587.396 542.42 584.33 545.22 C 579.22 550.09 573.032 553.912 566.215 555.841 C 562.357 556.969 558.329 557.396 554.321 557.464 C 551.03 557.487 547.708 557.032 544.621 555.862 C 544.095 557.154 544.462 558.562 544.561 559.898 C 545.705 570.529 547.323 581.123 549.798 591.531 C 550.115 593.109 550.394 594.695 550.691 596.276 C 550.906 598.099 550.833 600.18 549.542 601.619 C 548.316 603.009 546.374 603.48 544.585 603.48 C 541.986 603.471 539.48 601.8 538.518 599.378 C 537.48 596.832 536.878 594.138 536.121 591.5 C 533.647 582.342 531.632 573.051 530.328 563.65 C 529.052 554.895 527.844 546.113 527.437 537.267 C 526.801 526.056 526.632 514.74 528.376 503.614 C 528.906 500.063 529.688 496.501 531.219 493.234 C 532.003 491.608 533.272 490.094 535.05 489.546 C 537.469 488.699 540.371 489.736 541.702 491.927 C 542.71 493.506 543.058 495.403 543.055 497.253 C 543.282 501.331 543.241 505.429 542.796 509.491 C 542.377 515.463 542.584 521.453 542.593 527.434 C 543.018 527.31 543.41 527.013 543.444 526.541 C 543.482 526.02 543.548 525.503 543.711 524.999 C 545.863 516.415 549.14 508.056 553.959 500.607 C 556.76 496.292 559.978 492.109 564.228 489.127 C 567.043 487.181 570.451 486.019 573.895 486.204 zM 572.797 495.028 C 569.483 495.377 566.542 497.225 564.132 499.432 C 560.037 503.051 556.859 507.595 554.373 512.436 C 550.322 520.003 547.998 528.37 546.591 536.802 C 545.918 540.812 545.412 544.851 545.008 548.897 C 544.906 549.487 545.456 549.894 545.978 549.99 C 547.505 550.43 549.107 550.518 550.685 550.639 C 554.221 550.842 557.812 550.452 561.157 549.253 C 565.829 547.695 570.254 545.117 573.477 541.342 C 574.955 539.596 576.246 537.667 577.164 535.568 C 579.327 530.156 580.18 524.241 579.7 518.436 C 579.493 515.161 579.29 511.88 578.86 508.627 C 578.155 504.505 577.039 500.418 575.202 496.65 C 574.79 495.851 574.127 494.973 573.127 495.024 L 572.797 495.028 zM 428.916 483.756 C 432.023 483.837 434.981 485.155 437.403 487.051 C 440.709 489.501 443.064 493.09 444.292 496.995 C 445.671 501.38 445.927 506.064 445.453 510.618 C 444.806 516.51 443.04 522.235 440.702 527.665 C 438.836 532.038 436.32 536.159 433.062 539.637 C 429.111 543.905 424.197 547.208 418.91 549.591 C 415.027 551.409 410.948 552.821 406.747 553.69 C 406.369 553.744 406.037 553.826 406.18 554.284 C 410.849 560.814 415.386 567.437 420.078 573.949 C 424.104 579.361 428.986 584.235 434.849 587.638 C 438.147 589.617 441.873 590.757 445.626 591.503 C 447.494 592.027 449.455 592.223 451.267 592.934 C 452.052 593.246 452.782 594.022 452.578 594.924 C 452.46 596.108 451.281 596.732 450.293 597.129 C 448.341 597.871 446.215 597.466 444.21 597.211 C 437.569 596.241 431.154 593.845 425.476 590.273 C 420.73 587.3 416.455 583.618 412.577 579.589 C 409.156 575.983 406.114 572.023 403.475 567.812 C 402.752 567.347 402.179 566.695 401.669 566.012 C 401.683 569.595 401.64 573.179 401.692 576.762 C 401.897 582.228 402.124 587.705 401.888 593.174 C 401.757 594.831 400.985 596.583 399.416 597.333 C 398.327 597.869 397.033 598.042 395.847 597.778 C 394.503 597.439 393.866 596.05 393.473 594.845 C 391.805 590.111 390.451 585.265 389.471 580.341 C 386.784 567.653 384.774 554.811 383.759 541.877 C 382.724 529.357 382.752 516.777 383.172 504.23 C 383.193 500.723 383.648 497.218 384.582 493.835 C 385.015 492.29 385.526 490.736 386.364 489.359 C 387.175 487.999 388.674 487.036 390.283 487.08 C 392.236 487.011 394.328 487.549 395.667 489.055 C 396.697 490.123 397.237 491.531 397.641 492.933 C 398.6 496.149 398.721 499.523 399.046 502.841 C 399.511 508.511 399.637 514.201 399.654 519.887 C 399.68 520.386 399.75 520.882 399.863 521.369 C 400.327 521.261 400.614 520.836 400.666 520.381 C 402.343 515.024 404.326 509.755 406.732 504.68 C 408.727 500.545 411.019 496.538 413.745 492.838 C 416.02 489.795 418.812 487.056 422.185 485.256 C 424.246 484.186 426.599 483.686 428.916 483.756 zM 427.374 491.507 C 424.76 492.38 422.408 493.945 420.409 495.826 C 417.982 498.242 415.893 500.979 414.003 503.828 C 409.782 510.335 406.815 517.587 404.673 525.021 C 402.921 531.159 401.722 537.444 400.769 543.75 C 400.743 545.608 400.576 547.493 400.991 549.323 C 405.172 547.862 409.449 546.586 413.37 544.485 C 417.607 542.27 421.287 538.941 423.726 534.811 C 425.163 532.364 426.222 529.716 427.211 527.063 C 430.206 518.829 431.385 510.011 431.21 501.273 C 431.229 498.154 430.732 494.873 428.87 492.284 C 428.565 491.809 428.063 491.316 427.448 491.498 L 427.389 491.505 L 427.374 491.507 zM 479.402 500.517 C 484.545 500.571 489.552 502.381 493.833 505.171 C 494.98 505.868 495.883 506.882 496.881 507.767 C 498.421 509.236 499.897 510.771 501.327 512.347 C 501.754 510.571 501.96 508.736 502.528 506.999 C 503.182 505.398 504.351 503.847 506.091 503.373 C 507.709 502.869 509.444 503.205 511.02 503.704 C 513.54 504.517 515.454 506.713 516.211 509.213 C 516.866 511.098 517.172 513.093 517.133 515.088 C 517.333 525.722 517.073 536.359 516.625 546.983 C 516.209 558.773 516.239 570.584 516.888 582.365 C 516.949 584.551 516.497 586.939 514.851 588.506 C 512.593 590.649 508.783 590.72 506.346 588.834 C 504.847 587.739 503.915 585.975 503.751 584.136 C 503.039 579.406 502.4 574.665 501.904 569.907 C 501.223 564.212 500.741 558.494 500.323 552.774 C 500.195 550.655 500.165 548.531 499.996 546.414 C 499.672 546.166 499.208 546.399 499.21 546.802 C 498.795 548.122 498.209 549.388 497.725 550.686 C 496.109 554.707 494.468 558.722 492.629 562.647 C 491.018 565.841 489.333 569.023 487.203 571.907 C 484.831 574.967 481.639 577.49 477.892 578.604 C 474.474 579.649 470.654 579.68 467.359 578.187 C 464.728 577.016 462.541 575.038 460.768 572.798 C 456.178 567.247 452.492 560.846 450.651 553.849 C 449.468 549.436 449.06 544.835 449.301 540.277 C 449.634 532.542 451.421 524.812 455.003 517.92 C 456.868 514.338 459.135 510.951 461.834 507.944 C 464.639 504.841 468.218 502.286 472.34 501.33 C 474.656 500.811 477.023 500.458 479.402 500.517 zM 483.259 510.721 C 480.658 510.778 478.324 512.251 476.565 514.075 C 475.111 515.527 473.859 517.18 472.773 518.92 C 468.608 526.306 466.174 534.687 465.94 543.174 C 465.896 545.901 465.946 548.629 465.928 551.357 C 466.337 558.012 468.321 564.552 471.643 570.33 C 472.253 571.362 472.89 572.606 474.141 572.94 C 475.577 573.148 476.857 572.266 478.008 571.531 C 479.651 570.473 481.01 569.042 482.157 567.471 C 485.022 563.794 487.258 559.668 489.094 555.393 C 493.25 546.008 496.515 536.257 499.482 526.441 C 499.784 525.47 499.685 524.392 499.13 523.53 C 496.85 519.103 493.466 515.179 489.151 512.639 C 487.376 511.539 485.39 510.652 483.259 510.721 z"/>
<path style="fill-rule:evenodd;fill:#000000;" d="M 669.607 272.16 C 673.513 272.915 676.387 276.737 676.432 280.65 C 676.749 287.827 675.799 294.984 675.906 302.16 C 675.98 302.945 676.024 303.925 676.686 304.431 C 679.919 305.057 683.181 304.262 686.402 303.953 C 688.799 303.678 691.24 303.327 693.646 303.655 C 694.922 303.868 695.734 305.473 695.038 306.6 C 694.475 307.374 693.424 307.503 692.585 307.852 C 688.92 309.051 685.063 309.454 681.321 310.336 C 679.332 310.694 677.132 311.341 676.005 313.166 C 674.826 314.973 675.134 317.228 675.015 319.275 C 674.609 336.073 675.183 352.958 677.956 369.556 C 679.421 378.947 680.967 388.369 683.775 397.47 C 684.018 397.87 684.279 398.252 684.683 398.505 C 686.658 397.767 687.862 395.849 688.456 393.915 C 690.796 386.2 692.342 378.273 693.653 370.327 C 692.897 363.324 692.738 356.083 694.808 349.275 C 696.77 343.674 699.776 338.231 704.471 334.47 C 710.278 330.051 718.296 328.471 725.249 330.87 C 726.653 331.314 727.957 332.002 729.278 332.64 C 729.983 332.738 730.454 332.116 730.942 331.707 C 732.867 329.817 733.425 327.06 733.841 324.499 C 734.194 322.488 734.47 320.306 735.788 318.665 C 737.282 317.011 739.779 316.788 741.809 317.424 C 744.219 318.084 746.701 319.453 747.687 321.876 C 749.355 325.741 749.162 330.058 748.821 334.161 C 748.071 344.353 746.765 354.515 746.685 364.747 C 746.44 375.949 746.958 387.155 747.881 398.317 C 748.192 404.095 747.985 409.918 748.905 415.65 C 749.148 416.018 749.384 416.395 749.865 416.438 C 753.328 409.777 754.973 402.401 757.136 395.264 C 761.352 380.226 765.504 365.17 769.74 350.138 C 771.856 351.456 772.662 354.048 772.845 356.407 C 772.904 357.67 773.29 359.035 772.593 360.197 C 771.556 362.834 771.106 365.65 770.239 368.341 C 765.798 384.065 761.914 399.943 757.323 415.624 C 756.22 419.044 754.788 422.549 752.072 425.015 C 750.454 426.361 748.366 427.472 746.201 427.139 C 742.98 426.191 740.533 423.578 739.035 420.659 C 734.356 411.996 731.253 402.432 730.392 392.604 C 729.431 382.883 728.832 373.086 729.457 363.322 C 729.607 361.083 730.237 358.91 730.447 356.678 C 729.995 356.529 729.562 356.668 729.308 357.069 C 727.935 360.198 726.831 363.439 725.377 366.533 C 722.855 372.243 720.154 377.999 716.055 382.77 C 714.557 384.433 712.788 386.184 710.461 386.471 C 706 386.93 701.369 384.597 699.18 380.662 C 698.788 380.025 698.389 379.392 698.018 378.743 C 698.082 381.335 697.81 383.934 697.133 386.44 C 695.826 391.986 694.495 397.643 691.635 402.63 C 690.049 405.32 687.841 407.907 684.759 408.858 C 681.916 409.773 678.604 409.297 676.284 407.36 C 673.514 405.214 671.595 402.195 669.911 399.172 C 667.39 394.502 665.546 389.494 664.05 384.412 C 660.806 373.066 659.641 361.275 658.526 349.569 C 658.372 348.787 658.489 347.819 657.871 347.237 C 657.52 346.841 657.047 347.043 656.639 347.232 C 654.994 348.002 654.077 349.67 652.925 350.991 C 648.087 356.945 643.023 362.714 638.247 368.718 C 637.145 370.257 636.993 372.399 637.877 374.075 C 640.202 380.158 642.496 386.414 642.738 392.992 C 642.997 398.523 642.243 404.253 639.615 409.193 C 637.525 412.886 634.199 416.102 630.009 417.195 C 626.76 417.865 623.245 417.347 620.367 415.685 C 618.407 414.546 616.95 412.689 616.126 410.593 C 614.444 406.767 614.251 402.427 615.055 398.362 C 615.984 392.532 618.141 386.975 620.725 381.694 C 621.743 379.142 621.087 376.279 619.91 373.901 C 617.463 368.318 615.014 362.732 612.357 357.246 C 612.106 356.738 611.764 356.282 611.295 355.957 C 609.175 358.039 608.618 361.066 607.718 363.777 C 603.727 376.443 600.252 389.276 595.804 401.794 C 594.517 404.94 593.27 408.14 591.42 411.007 C 590.592 412.156 589.555 413.126 588.57 414.135 C 588.623 415.34 588.182 416.494 588.128 417.695 C 587.57 422.765 587.119 427.846 586.474 432.905 C 585.652 439.424 584.662 445.95 582.876 452.283 C 580.484 460.57 576.853 468.655 571.207 475.252 C 567.424 479.516 562.676 483.166 557.104 484.673 C 552.135 485.952 546.537 485.423 542.238 482.482 C 538.541 479.883 536.293 475.697 535.086 471.43 C 532.956 463.606 533.83 455.169 536.754 447.666 C 539.655 440.133 544.484 433.465 550.182 427.796 C 553.546 424.354 556.864 420.864 560.349 417.543 C 562.502 415.574 564.863 413.82 567.432 412.436 C 568.726 411.525 569.03 409.856 569.052 408.376 C 569.782 395.565 568.833 382.739 569.175 369.922 C 569.203 366.382 569.386 362.828 569.072 359.298 C 568.965 358.954 568.837 358.28 568.436 358.286 C 567.249 358.396 566.715 359.589 566.234 360.521 C 561.182 370.028 555.406 379.276 547.912 387.067 C 544.653 390.47 540.868 393.661 536.243 394.95 C 532.106 396.164 527.4 396.119 523.582 393.945 C 519.838 391.753 516.679 388.631 514.222 385.072 C 513.885 384.782 514.09 385.797 514.005 386.048 C 513.971 386.998 513.994 387.954 513.672 388.864 C 512.255 394.431 510.36 399.923 507.548 404.948 C 506.336 406.936 504.663 408.955 502.26 409.425 C 499.412 409.866 496.205 408.602 494.849 405.966 C 491.754 400.74 490.412 394.732 489.224 388.841 C 487.359 378.883 487.134 368.707 487.384 358.605 C 487.568 347.64 488.1 336.684 488.228 325.718 C 488.106 325.216 487.539 324.916 487.053 325.048 C 484.823 325.34 483.099 327.011 481.89 328.8 C 476.308 336.167 472.401 344.665 469.446 353.385 C 467.133 360.43 465.724 367.754 465.049 375.133 C 464.758 377.051 463.783 379.144 461.844 379.843 C 459.721 380.264 457.287 380.339 455.475 378.968 C 452.146 375.131 450.476 370.215 449.208 365.379 C 448.347 362.05 447.732 358.666 447.09 355.29 C 446.873 354.99 446.333 354.399 446.054 354.765 C 443.088 363.711 440.794 372.859 438.345 381.955 C 435.945 390.974 433.602 400.01 430.969 408.964 C 429.869 412.342 428.505 415.805 425.909 418.328 C 424.172 419.883 421.793 421.093 419.412 420.574 C 416.293 419.521 413.983 416.898 412.564 414.01 C 407.981 405.519 404.908 396.155 404.052 386.521 C 403.022 376.771 402.504 366.944 402.973 357.143 C 403.1 354.823 403.883 352.595 403.995 350.272 C 403.55 349.949 403.197 350.078 402.985 350.571 C 401.918 352.563 401.251 354.735 400.32 356.79 C 397.513 363.466 394.532 370.186 390.037 375.924 C 388.391 377.883 386.277 379.766 383.633 380.062 C 379.618 380.351 375.488 378.36 373.369 374.907 C 368.872 368.426 366.769 360.445 366.892 352.598 C 367.008 345.876 368.925 339.1 372.876 333.611 C 375.688 329.584 379.468 325.983 384.216 324.428 C 390.057 322.421 396.785 322.711 402.21 325.781 C 402.873 326.174 403.786 326.43 404.423 325.853 C 405.886 324.269 406.329 322.083 406.953 320.087 C 407.495 318.068 407.685 315.965 408.275 313.961 C 408.884 312.212 410.377 310.497 412.357 310.493 C 415.374 310.38 418.637 311.426 420.488 313.925 C 422.578 317.436 422.905 321.675 422.555 325.664 C 421.968 335.534 420.545 345.349 420.38 355.245 C 419.949 367.202 420.397 379.181 421.466 391.094 C 421.866 397.207 421.455 403.394 422.587 409.444 C 422.728 409.912 422.936 410.465 423.487 410.535 C 424.503 409.468 424.68 407.933 425.243 406.623 C 427.377 400.499 429.128 394.251 430.922 388.022 C 434.374 375.795 437.679 363.527 441.19 351.317 C 442.521 346.566 443.909 341.823 444.991 337.009 C 445.892 331.287 445.231 325.475 445.76 319.726 C 446.167 312.667 446.941 305.52 449.412 298.847 C 450.291 296.73 451.624 294.502 453.916 293.726 C 455.043 293.392 456.315 293.294 457.369 293.906 C 458.997 294.696 460.138 296.355 460.273 298.162 C 462.088 309.455 461.353 320.933 462.188 332.302 C 462.481 336.89 462.7 341.486 463.138 346.062 C 463.224 346.531 463.359 347.01 463.74 347.325 C 464.418 347.178 464.713 346.528 464.972 345.95 C 466.849 341.92 468.279 337.695 470.286 333.723 C 473.682 326.54 477.29 319.386 482.087 313.02 C 483.678 311.021 485.813 309.138 488.475 308.94 C 493.304 308.422 498.257 310.799 500.987 314.794 C 503.383 318.079 504.572 322.113 504.803 326.143 C 505.55 334.433 504.969 342.758 504.798 351.06 C 504.611 357.943 504.621 364.83 504.584 371.715 C 504.506 379.575 504.364 387.435 504.278 395.295 C 504.368 395.903 504.51 396.092 504.757 395.423 C 507.526 390.42 509.477 385.023 511.275 379.612 C 508.416 373.056 506.898 365.851 507.386 358.688 C 507.709 350.84 509.064 342.868 512.695 335.828 C 515.199 330.733 518.393 325.768 523.054 322.393 C 528.321 318.646 534.841 316.633 541.312 317.002 C 547.082 317.147 552.879 318.793 557.626 322.133 C 561.748 324.882 565.354 328.364 568.402 332.26 C 568.671 332.516 569.181 333.159 569.49 332.704 C 570.978 331.205 570.993 328.673 572.852 327.478 C 575.47 325.674 579.292 325.427 581.862 327.455 C 584.225 329.399 585.739 332.379 585.735 335.459 C 586.201 343.137 585.531 350.819 585.556 358.5 C 585.366 372.953 585.512 387.409 585.915 401.857 C 586.076 402.717 586.43 403.724 587.287 404.077 C 588.449 404.207 589.421 403.255 589.71 402.191 C 595.941 385.035 601.273 367.572 606.727 350.159 C 607.227 348.631 607.723 347.064 607.619 345.435 C 607.542 342.38 606.21 339.572 605.462 336.655 C 603.023 328.003 601.654 318.905 602.742 309.925 C 603.481 303.566 605.179 297.22 608.45 291.676 C 610.7 288.006 613.841 284.649 617.94 283.095 C 621.718 281.765 626.044 281.867 629.685 283.579 C 632.589 284.958 634.672 287.589 636.134 290.383 C 637.851 293.69 638.51 297.501 638.116 301.199 C 637.688 307.263 635.293 313.037 631.972 318.075 C 629.172 322.517 625.856 326.603 622.506 330.635 C 621.195 332.43 621.079 334.886 621.918 336.906 C 624.766 345.27 628.806 353.153 632.749 361.037 C 633.043 361.537 633.346 362.206 633.912 362.381 C 636.08 361.946 637.503 360.12 638.887 358.556 C 644.945 351.77 651.039 344.994 656.52 337.725 C 658.118 335.233 658.159 332.17 658.11 329.31 C 658.117 325.262 658.365 321.216 658.283 317.168 C 658.074 316.474 657.541 315.728 656.753 315.745 C 653.948 315.826 651.074 316.752 648.313 315.865 C 647.497 315.577 646.427 315.038 646.553 314.017 C 646.622 312.47 647.968 311.316 649.383 310.925 C 651.874 309.993 654.634 309.776 656.955 308.415 C 658.559 307.343 659.358 305.404 659.373 303.519 C 660.065 294.891 660.723 286.195 662.895 277.788 C 663.501 275.843 664.484 273.737 666.474 272.897 C 667.45 272.434 668.514 272.088 669.607 272.16 zM 567.99 420.143 C 564.438 422.54 561.531 425.722 558.412 428.625 C 556.462 430.022 554.805 431.774 553.328 433.655 C 549.031 438.842 545.1 444.524 543.094 451.021 C 541.193 456.921 540.606 463.404 542.327 469.42 C 543.321 472.841 545.108 476.23 548.112 478.284 C 549.898 479.465 552.327 479.723 554.222 478.64 C 555.968 477.651 557.11 475.933 558.43 474.474 C 559.669 472.992 560.548 471.26 561.255 469.473 C 562.516 466.654 563.738 463.8 564.456 460.787 C 565.841 455.392 566.558 449.86 567.534 444.384 C 568.784 436.716 569.78 428.969 569.707 421.185 C 569.668 420.717 569.523 420.2 569.131 419.933 C 568.659 419.777 568.363 419.79 567.99 420.143 zM 625.043 389.19 C 622.994 393.76 621.639 398.851 622.404 403.881 C 622.863 406.007 623.525 408.35 625.394 409.671 C 626.258 410.114 627.261 410.753 628.249 410.403 C 630.27 408.833 630.963 406.057 630.511 403.614 C 629.85 398.84 628.325 394.242 626.618 389.752 C 626.382 389.393 626.026 389.021 625.594 388.99 L 625.043 389.19 zM 544.53 325.373 C 538.902 325.691 533.785 329.362 531.163 334.273 C 526.177 343.134 523.266 353.299 523.661 363.51 C 523.787 369.499 524.157 375.621 526.318 381.271 C 527.185 383.431 528.082 385.773 529.997 387.226 C 531.705 388.401 533.966 388.181 535.798 387.427 C 538.334 386.363 540.536 384.645 542.601 382.857 C 547.069 378.889 550.662 374.061 554.033 369.157 C 558.777 362.099 562.779 354.52 565.752 346.547 C 566.476 344.41 565.948 342.001 564.624 340.211 C 561.722 335.547 558.301 330.98 553.548 328.067 C 550.831 326.446 547.74 325.254 544.53 325.373 zM 721.688 339.022 C 718.576 339.89 716.33 342.47 714.732 345.151 C 710.478 352.106 707.648 360.12 707.685 368.34 C 707.781 371.486 707.967 374.67 708.855 377.707 C 709.365 378.368 710.192 379.073 711.066 378.771 C 714.013 376.472 715.666 373.018 717.375 369.788 C 721.414 361.815 724.685 353.484 727.862 345.139 C 728.214 344.124 728.678 342.984 728.147 341.944 C 727.446 340.496 725.811 339.898 724.386 339.401 C 723.515 339.126 722.601 338.996 721.688 339.022 zM 395.49 332.475 C 392.625 333.033 390.498 335.298 388.954 337.638 C 383.7 345.428 380.727 354.897 381.337 364.327 C 381.583 366.727 381.703 369.216 382.659 371.459 C 383.092 372.149 383.989 372.694 384.785 372.32 C 387.284 370.352 388.643 367.394 390.212 364.711 C 394.201 357.257 397.246 349.354 400.366 341.511 C 400.92 340.001 401.605 338.518 401.945 336.942 C 402.204 335.587 401.389 334.156 400.103 333.66 C 398.683 332.923 397.107 332.406 395.49 332.475 zM 628.41 290.655 C 626.208 292.043 625.066 294.521 624.097 296.84 C 621.157 303.796 619.218 311.332 619.582 318.93 C 619.651 319.874 619.629 320.851 619.987 321.743 C 620.847 322.187 621.956 321.948 622.537 321.169 C 626.237 316.406 629.819 311.408 631.905 305.698 C 633.164 302.156 633.864 298.208 632.784 294.527 C 632.285 292.857 631.287 291.049 629.49 290.558 C 629.111 290.47 628.777 290.558 628.41 290.655 zM 314.603 287.407 C 322.642 287.696 330.325 291.468 335.98 297.102 C 338.046 299.096 339.86 301.343 341.621 303.595 C 341.932 303.908 342.52 304.066 342.768 303.641 C 343.572 301.764 343.552 299.45 345.107 297.959 C 347.249 295.998 350.613 295.748 353.15 297.068 C 355.971 298.317 357.911 301.201 358.17 304.257 C 358.879 309.283 358.363 314.366 358.388 319.417 C 358.106 332.897 357.915 346.385 358.294 359.865 C 358.469 371.353 358.904 382.845 358.558 394.335 C 358.215 403.606 357.05 412.942 353.935 421.724 C 351.768 427.953 348.854 434.103 344.188 438.864 C 340.86 442.251 336.648 445.03 331.867 445.705 C 328.316 446.234 324.495 445.439 321.681 443.139 C 318.11 440.48 315.61 436.561 314.313 432.33 C 311.331 423.524 311.515 413.816 314.185 404.957 C 316.444 397.066 320.421 389.759 325.241 383.149 C 328.61 378.326 331.776 373.354 335.375 368.695 C 336.441 367.481 338.13 366.48 339.781 366.991 C 340.531 367.197 341.128 367.986 340.875 368.769 C 340.437 371.102 338.831 372.944 337.654 374.934 C 332.729 382.526 327.513 389.998 323.73 398.253 C 320.737 405.01 318.744 412.384 319.178 419.827 C 319.471 424.934 320.494 430.197 323.402 434.502 C 324.792 436.459 326.476 438.489 328.873 439.172 C 331.273 439.669 333.948 438.518 335.089 436.315 C 339.132 429.742 340.958 422.038 341.45 414.398 C 342.055 406.225 342.281 398.028 342.367 389.835 C 342.461 378.867 342.122 367.902 341.826 356.94 C 341.696 347.763 341.844 338.585 341.895 329.407 C 341.829 328.823 341.673 328.588 341.303 329.175 C 337.296 333.55 334.767 338.986 331.365 343.799 C 327.226 349.907 322.814 355.949 317.183 360.78 C 313.806 363.529 309.816 365.847 305.386 366.171 C 300.807 366.523 295.988 365.23 292.553 362.092 C 287.854 358.169 284.786 352.67 282.628 347.023 C 280.48 341.223 279.627 334.975 279.994 328.808 C 280.279 320.342 282.105 311.791 286.279 304.357 C 288.894 299.578 292.181 294.954 296.814 291.947 C 302.065 288.588 308.412 287.169 314.603 287.407 zM 317.468 295.83 C 312.056 295.953 307.033 299.297 304.317 303.896 C 298.902 312.486 296.079 322.675 296.302 332.827 C 296.257 339.415 296.65 346.173 299.135 352.352 C 300.012 354.609 301.138 357.037 303.36 358.245 C 304.855 359.032 306.659 358.814 308.143 358.114 C 312.825 356.226 316.454 352.541 319.715 348.805 C 327.461 339.949 333.294 329.573 337.816 318.751 C 338.589 317.047 339.335 315.045 338.537 313.212 C 337.638 310.951 336.226 308.945 334.876 306.937 C 331.839 302.685 327.943 298.814 323.017 296.853 C 321.25 296.174 319.364 295.797 317.468 295.83 z"/>
</g>
</svg>
