<?xml version="1.0" encoding="UTF-8" standalone="no"?>
<svg xmlns:dc="http://purl.org/dc/elements/1.1/" xmlns:cc="http://creativecommons.org/ns#" xmlns:rdf="http://www.w3.org/1999/02/22-rdf-syntax-ns#" xmlns:svg="http://www.w3.org/2000/svg" xmlns="http://www.w3.org/2000/svg" version="1.0" width="1042.5" height="824.14" id="s1">
  <defs id="defs7322"/>
  <metadata id="metadata3782">
    <rdf:RDF>
      <cc:Work rdf:about="">
        <dc:format>image/svg+xml</dc:format>
        <dc:type rdf:resource="http://purl.org/dc/dcmitype/StillImage"/>
        <dc:title/>
      </cc:Work>
    </rdf:RDF>
  </metadata>
  <rect fill="#FFF" x="0" y="0" width="1042.5" height="824.14" fill-rule="evenodd" style="color:rgb(0, 0, 0);" id="rect2987"/>
  <path d="m0.0042774,433,0,154.96,1042.5,0,0-154.96-1042.5,0z" fill="#000" fill-rule="evenodd" style="color:#000000;" id="path3925-6"/>
  <path d="m0.0043183,224.68,0,154.96,1042.5,0,0-154.96-1042.5,0z" fill="#000" fill-rule="evenodd" style="color:#000000;" id="path3925"/>
  <g style="fill:#ffffff;fill-opacity:1" transform="matrix(0.75, 0, 0, 0.75, 190.193, 178.869)" fill="#FFF" fill-opacity="0.95686275" id="l1">
    <path style="fill:#ffffff;fill-opacity:1" d="m441.43,10.934c-165.6,0-300,134.4-300,300s134.4,300,300,300,300-134.4,300-300-134.4-300-300-300z" fill="#FFF" fill-opacity="0.95686275" id="path3798"/>
  </g>
  <g transform="matrix(1.24012, 0, 0, 1.24012, 334.213, 226.669)" fill="#d40000" id="g3">
    <path d="M7.42,145.99c1.765-46.797,25.479-89.955,68.83-118.47,0.128,0.048,1.251-0.361,0.738,0.61-3.434,3.184-65.172,76.114-8.344,133.68,0,0,29.858,28.704,53.011,1.468,0,0,22.847-29.577-0.289-74.413,0,0-5.856-14.64-26.955-23.721l16.992-18.748s14.359,6.161,25.478,22.871c0,0,0.593-17.593-12.884-36.34l26.345-29.89,26.08,29.609s-11.993,16.991-12.876,36.902c0,0,8.191-13.477,25.776-23.151l16.686,18.748s-16.045,5.287-26.794,23.529c-9.242,16.902-16.357,53.05,0.416,75.223,0,0,18.772,26.618,51.792-1.571,0,0,60.712-54.399-6.226-133.05,0,0-3.658-3.233,0.449-1.476,29.586,21.54,65.012,49.946,68.67,120.84-1.444,85.966-59.012,147.33-143.07,147.33-82.336,0-146.32-68.69-143.85-149.98" fill="#d40000" id="path5"/>
  </g>
</svg>