<svg xmlns="http://www.w3.org/2000/svg" id="svg37" viewBox="0 0 200 300" class="icy-background" xmlns:xlink="http://www.w3.org/1999/xlink"><defs id="defs7"><linearGradient id="linearGradient964"><stop id="stop960" offset="0" stop-color="#0fd5eb" stop-opacity=".536"/><stop id="stop1288" offset=".522" stop-color="#1f81db" stop-opacity=".384"/><stop id="stop962" offset="1" stop-color="#2cb5e8" stop-opacity="0"/></linearGradient><linearGradient id="a" x2="210" y1="148.5" y2="148.5" gradientUnits="userSpaceOnUse"><stop id="stop2" stop-color="#0808ff" offset="0"/><stop id="stop4" stop-color="#6fffff" stop-opacity=".548" offset="1"/></linearGradient><linearGradient id="linearGradient966" x2="144.931" y2="247.004" xlink:href="#linearGradient964" gradientUnits="userSpaceOnUse"/></defs><path id="path9" fill="url(#a)" d="M0 0h200v300H0z" class="background"/><path id="path11" fill="navy" fill-rule="evenodd" d="M59.06 87.038L29.646 163l30.917-6.39 10.566 28.02 23.847-25.18 17.365 11.25 37.33 12.91-3.94-41.78 30.16-12.92-43.79-30.625-1.9-18.043-26.02 20.468-1.93-18.742-29.417 23.482z" class="hole"/><g id="g27" class="shattered-hole"><path id="path13" fill="#4294ff" fill-opacity=".745" d="M84.13 96.242l60.14 27.358L90.504 162z"/><path id="path15" fill="#48a1ff" fill-opacity=".722" d="M137.46 143.73l-58.614-25.45L130.2 80.242z"/><path id="path17" fill="#3d89ff" fill-opacity=".765" d="M109.51 145.45L50.9 120l51.35-38.032z"/><path id="path19" fill="#52b9ff" fill-opacity=".675" d="M149.67 183.61l-58.617-25.45 51.347-38.04z"/><path id="path21" fill="#57c2ff" fill-opacity=".659" d="M175.89 128.91l-57.2 26.44 5.7-62.764z"/><path id="path23" fill="#2f64ff" fill-opacity=".831" d="M71.128 184.63L48.908 125l65.422 11.52z"/><path id="path25" fill="#2956ff" fill-opacity=".859" d="M98.766 148.23L29.646 163 59.06 87.038z"/></g><path id="path29" fill="#0000b8" fill-rule="evenodd" d="M120.61 138.48c-9.86 14.92-13.35 17.93-19.76 17.82-5.567-.09-11.18-6.14-19.31-16.58-8.07-13.46-6.75-24.19-4.977-27.66 2.92-5.7 13.656.9 21.335 5.75 3.302 2.09 6.502-2.95 9.022-5.11 3.97-3.42 8.33-5.86 11.44-4.53 5.97 2.53 10 13.74 2.25 30.31z" paint-order="stroke fill markers" class="heart"/><path id="path31" fill="none" stroke="#ebebeb" stroke-opacity=".069" stroke-width="10.5" d="M.646 48.24l208.7 15.51 3.27 11.996z"/><path id="path33" fill="none" stroke="#ebebeb" stroke-opacity=".069" stroke-width="18.8" d="M3.23 206.29l187.42-1.94-91.77-18.74z"/><path id="path35" fill="none" stroke="#ebebeb" stroke-opacity=".069" stroke-width="31" d="M164.8 245.71L210 300 2.59 266.39l-3.882-32.31 107.28 21.33z"/><rect id="rect63" width="200" height="300" fill="url(#linearGradient966)" fill-rule="evenodd" stroke-width="3" stroke-linecap="round" stroke-linejoin="round"/></svg>