<svg id="poster" version="1.1" viewBox="0 0 300 200">
        <defs id="defs19">
          <linearGradient id="linearGradient4949-1">
            <stop
              id="stop4945"
              offset="0"
              stop-color="#ede7e7"
              stop-opacity="1"
            />
            <stop
              id="stop4947"
              offset="1"
              stop-color="#526754"
              stop-opacity="1"
            />
          </linearGradient>
          <linearGradient
            id="linearGradient4951"
            x1="43.454"
            x2="43.439"
            y1="45.635"
            y2="25.415"
            gradientTransform="translate(2 44.9)"
            gradientUnits="userSpaceOnUse"
            spreadMethod="repeat"
            xlink:href="#linearGradient4949-1"
          />
          <linearGradient
            id="linearGradient5022"
            x1="70.818"
            x2="70.913"
            y1="84.433"
            y2="99.401"
            gradientTransform="translate(-83.106 -2.769)"
            gradientUnits="userSpaceOnUse"
            xlink:href="#linearGradient4949-1"
          />
          <linearGradient
            id="linearGradient4850"
            x1="43.454"
            x2="43.439"
            y1="45.635"
            y2="25.415"
            gradientTransform="translate(-81.106 42.131)"
            gradientUnits="userSpaceOnUse"
            spreadMethod="repeat"
            xlink:href="#linearGradient4949-1"
          />
          <filter
            id="filter4964"
            width="1.013"
            height="1.205"
            x="-.006"
            y="-.103"
            color-interpolation-filters="sRGB"
          >
            <feGaussianBlur id="feGaussianBlur4966" stdDeviation=".516" />
          </filter>
          <mask id="letters-mask">
            <path
              id="path23"
              fill="#fff"
              stroke-width=".894"
              d="M21.995 72.982c-.917 0-1.492.42-1.72 1.261l-8.335 24.43a1.159 1.159 0 00-.038.344c0 .152.077.32.23.497a.91.91 0 00.61.23h7.227c.815 0 1.39-.434 1.72-1.3l.956-2.677h9.328l.956 2.677c.33.866.904 1.3 1.72 1.3h7.226a.777.777 0 00.574-.23c.179-.179.268-.344.268-.497a1.13 1.13 0 00-.04-.344l-8.333-24.43c-.23-.84-.804-1.261-1.721-1.261zm4.382 4.976c.48.038 1.011.089 1.412.375.288.274.598.516.923.742-.06.173-.315.478-.046.746.252.393.28.897.496 1.325.138.458.443.837.566 1.3.086.426.341.8.39 1.24.14.44.417.808.475 1.269-.417.194-.545.716-.914.956-.161.036-.289.176-.36.34l.233.679c.366.223.556.671.84.99.174.261.502.53.338.87h-6.785c-.152-.009-.39.066-.341-.173.171-.554.471-1.064.794-1.542.469-.255.137-.956.443-1.18.24-.355.491-.826.538-1.262-.265-.97-.664-1.9-1.012-2.843-.148-.354-.228-.798-.652-.869-.252-.15.291-.271.228-.504.047-.438.067-.893.312-1.276.294-.268-.164-.572.196-.763.311.303.655-.26 1.028-.314.288-.095.596-.11.898-.107z"
              class="letter"
            />
            <path
              id="path25"
              fill="#fff"
              stroke-width=".894"
              d="M92.797 72.98l-.006.03c-.072.202-.024.25.31.321.92.18 1.23.407 1.623 1.17.215.407.383.813.383.896 0 .095-.335.49-.729.884l-.74.728.072 1.408c.072 1.397.072 1.408-.227 1.624l-.286.214.286.752c.167.418.465 1.027.668 1.35.203.333.394.75.43.942.096.453-.287.836-.848.836-.464 0-.656.238-.656.823a.96.96 0 01-.238.608c-.131.132-.24.37-.24.526 0 .215-.095.322-.357.418-.334.107-.36.155-.36.728 0 1.436-1.046 1.992-2.808 1.49v.956c.072.033.125.076.147.133.02.059-.041.27-.147.55v3.61a8.7 8.7 0 01.16.328c.214.477.716 1.325 1.11 1.885 1.037 1.447 1.7 2.64 1.986 3.554h20.104a.99.99 0 00.725-.307.993.993 0 00.306-.726v-5.772a.992.992 0 00-.306-.727.992.992 0 00-.726-.306H99.397V74.014a.992.992 0 00-.306-.727.994.994 0 00-.727-.306zm1.163 2.445c-.04.008-.105.09-.201.246-.251.442-.204.561.083.239.119-.132.191-.322.167-.418-.01-.049-.025-.071-.05-.067z"
              class="letter"
            />
            <path
              id="path27"
              fill="#fff"
              stroke-width=".894"
              d="M150.582 80.819h-6.92v11.087h6.92q.42 0 .726.306.307.306.307.727v5.772q0 .42-.307.726-.306.307-.726.307h-24.24q-.42 0-.726-.307-.306-.305-.306-.726v-5.772q0-.421.306-.727t.727-.306h6.996V80.819h-6.996q-.421 0-.727-.306-.306-.305-.306-.726v-5.772q0-.422.306-.728.306-.305.727-.305h24.239q.42 0 .725.305.307.306.307.727v5.772q0 .422-.307.727-.305.306-.725.306z"
              class="letter"
            />
            <path
              id="path29"
              fill="#fff"
              stroke-width=".894"
              d="M172.815 72.98c-.918 0-1.492.422-1.72 1.263l-4.463 13.078c.956.02 1.615-.126 1.615-.126.965-.25 3.16-.25 3.16-.25-.058-.221.384-.576.384-.576-.081-.214.273-.958.273-.958.25-.988 1.951-2.527 1.951-2.527 0-.302.605-.633.605-.633.244-.47 1.208-.854 1.208-.854.523-.604.988-.576.988-.576l.36-.028a2.956 2.956 0 01.905-.292l.048-.142.043.128c.63-.067 1.008.143 1.008.143.192.052.795.163.795.163.744-.111 1.401.714 1.401.714.244.08.494.604.494.604.191-.087.767.354.767.354.906.523.959 1.017.959 1.017.19 0 .493.575.493.575.169.052.33.605.33.605.216-.082.355.807.355.807.245-.128.355.982.355.982.302-.082.715.302.715.302.545-.436 2.497-.354 2.497-.354a6.78 6.78 0 00.891-.23l-4.068-11.926c-.23-.841-.804-1.262-1.721-1.262zm17.513 16.4c-.37.648-2.156 1.712-2.156 1.712-.354.575-2.497 1.18-2.497 1.18 0 .22-.413.493-.413.493-.052.134-.383.383-.383.465 0 .081-.302.959-.302.959.656.08 1.371 1.59 1.371 1.59.302.059.633.936.633.936 1.923.385 3.956 2.446 3.956 2.446.23.173.436.369.62.583h1.537a.777.777 0 00.574-.23c.179-.179.268-.345.268-.498a1.162 1.162 0 00-.038-.344zm-24.588.554l-2.98 8.74a1.162 1.162 0 00-.038.342c0 .153.077.32.23.498.178.152.381.23.61.23h2.965c1.569-1.507 4.851-2.825 4.851-2.825l.082-.162c.441-.988 1.18-1.43 1.016-1.593-.168-.168-.22-1.156-.22-1.156-.192-.08-.332-.714-.332-.714-.162-.03-.574-.744-.574-.744-.25.058-1.923-.493-1.923-.493-1.431-.215-2.729-1.184-3.687-2.123z"
              class="letter"
            />
            <path
              id="path31"
              fill="#fff"
              stroke-width=".894"
              d="M198.315 72.98a.992.992 0 00-.727.307.992.992 0 00-.305.727V98.71c0 .28.101.522.305.726a.995.995 0 00.727.307h5.875c.381-.304.802-.538 1.215-.658.216-.066.395-.16.395-.207 0-.058.16-.33.348-.603l.31-.456v-.073l-.168-.16a1.601 1.601 0 00-.443-.282.69.69 0 01-.34-.368c-.056-.15-.16-.301-.225-.33-.076-.028-.207-.188-.292-.357a4.092 4.092 0 00-.462-.67c-.405-.47-.518-.932-.547-2.185-.019-.886.01-1.112.199-1.592.244-.632.688-1.244.97-1.33.104-.037.34-.31.536-.612.2-.317.48-.685.772-1.033v-.516l.212.27c.288-.325.574-.62.798-.803.527-.415 1.328-.83 1.837-.923.51-.104 1.159-.037 2.007.179.367.103.895.207 1.177.245.782.094 2.394 1.036 3.232 1.903.556.556.66 1.027.396 1.62-.141.321-.15.463-.066 1.055.085.623.075.718-.085.944-.095.14-.151.32-.122.395.028.085.009.15-.038.15-.057 0-.132.152-.17.33-.047.292-.009.396.321.83.509.669.556.857.282 1.12a3.113 3.113 0 01-.405.32c-.17.095-.17.133-.057.5.095.34.095.433-.028.622a.99.99 0 00-.152.452.625.625 0 01-.187.396c-.151.141-.188.273-.17.716.024.38-.003.53-.106.672.34.29.736.437 1.187.437h6.155c.28 0 .523-.101.727-.305a.994.994 0 00.306-.727V74.014a.992.992 0 00-.306-.727.994.994 0 00-.727-.306h-7.11a.992.992 0 00-.727.306.992.992 0 00-.306.727v11.24L206 73.745c-.382-.51-.879-.765-1.49-.765z"
              class="letter"
            />
            <path
              id="path33"
              fill="#fff"
              stroke-width=".894"
              d="M55.971 72.982a1.15 1.15 0 00-.187.017c1.23.39 2.334.956 2.963 1.6.836.849 1.397 1.637 1.529 2.103.06.239.107.967.095 1.6-.011 1.04-.047 1.183-.297 1.421-.383.359-.347.55.226 1.23.597.73 1.17 1.602 1.17 1.805 0 .155-.107.286-.645.74-.274.227-.298.322-.238.729.071.466.035.537-.478.895-.227.155-.227.179-.036.358.25.251.25.43.024.742-.096.119-.179.489-.179.824 0 1.182-.502 1.492-2.39 1.492-.727 0-1.432.06-1.564.12-.12.071-.358.382-.513.693a3.565 3.565 0 01-.512.759v3.511a4.378 4.378 0 01.333.746c.143.442.393 1.064.561 1.398.474.957.831 2.076 1.263 3.979h21.202c.28 0 .523-.102.727-.306a.995.995 0 00.306-.727v-5.772a.992.992 0 00-.306-.727.994.994 0 00-.727-.306H65.261V74.014a.992.992 0 00-.305-.727.992.992 0 00-.727-.305z"
              class="letter"
            />
            <path
              id="path35"
              d="M272.47 92.592h15.517q.428 0 .739.311t.311.74v5.483q0 .427-.311.738t-.739.311H263.41q-.428 0-.739-.31-.31-.312-.31-.74V74.004q0-.428.31-.739.311-.31.74-.31h24.188q.428 0 .74.31.31.311.31.74v5.482q0 .428-.31.74-.312.31-.74.31H272.47v2.45h12.99q.427 0 .738.312.311.31.311.738v5.056q0 .428-.31.739-.312.311-.74.311H272.47z"
              class="letter"
              style="
                line-height: 1.25;
                -inkscape-font-specification: 'Rubik Mono One';
              "
            />
            <path
              id="path37"
              d="M242.72 72.564c-5.833 0-9.994 1.685-12.483 5.056-1.322 1.815-1.983 4.032-1.983 6.65v4.589c0 2.618.66 4.835 1.983 6.65 1.322 1.789 3.032 3.085 5.132 3.889 2.126.777 4.474 1.166 7.04 1.166 2.567 0 4.797-.298 6.69-.894 1.892-.623 3.409-1.426 4.55-2.411 2.28-1.997 3.421-4.201 3.421-6.612a.735.735 0 00-.272-.583.735.735 0 00-.583-.272h-8.401c-.008 0-.015.004-.022.004-.246.568-.565 1.138-.766 1.321-.192.173-.364.574-.364.88 0 .44-.173.652-.862 1.092-1.206.766-2.335 1.034-3.962.957-1.149-.057-1.647-.21-2.7-.746-.957-.478-1.282-.746-1.282-1.053 0-.21-.173-.65-.403-.957-.957-1.417-1.283-2.49-1.225-4.06.02-.823.114-1.645.19-1.817.077-.21.003-.383-.266-.536-.344-.173-.402-.383-.402-1.301 0-1.8.861-2.816 1.378-1.629.134.288.25.556.268.594 0 .02.172-.02.344-.077.191-.077.633-.747.978-1.513.918-2.029 1.932-3.54 2.372-3.54.325 0 .365.133.327 1.243l-.039 1.244h1.686l-.078-1.187c-.038-.995 0-1.205.269-1.262.172-.038.516.21.784.573.25.345.86 1.436 1.358 2.431.19.387.4.77.601 1.134.143.204.28.423.4.67.122.192.26.426.339.52.305.37.662.56 1.077.56h8.402a.79.79 0 00.582-.234.858.858 0 00.272-.623c0-2.41-1.14-4.613-3.422-6.61-1.14-.985-2.657-1.776-4.55-2.372-1.892-.622-4.019-.934-6.378-.934z"
              class="letter"
            />
          </mask>
        </defs>
        <g id="layer3" display="inline">
          <path
            id="layer2"
            fill="none"
            d="M0 85.333h317.5V297H0V85.333z"
            display="inline"
            transform="translate(0 -80.63) scale(.94488)"
          />
        </g>
        <g id="writing">
          <path
            id="path24"
            fill="#fff"
            stroke-width=".894"
            d="M21.995 72.982c-.917 0-1.492.42-1.72 1.261l-8.335 24.43a1.159 1.159 0 00-.038.344c0 .152.077.32.23.497a.91.91 0 00.61.23h7.227c.815 0 1.39-.434 1.72-1.3l.956-2.677h9.328l.956 2.677c.33.866.904 1.3 1.72 1.3h7.226a.777.777 0 00.574-.23c.179-.179.268-.344.268-.497a1.13 1.13 0 00-.04-.344l-8.333-24.43c-.23-.84-.804-1.261-1.721-1.261zm4.382 4.976c.48.038 1.011.089 1.412.375.288.274.598.516.923.742-.06.173-.315.478-.046.746.252.393.28.897.496 1.325.138.458.443.837.566 1.3.086.426.341.8.39 1.24.14.44.417.808.475 1.269-.417.194-.545.716-.914.956-.161.036-.289.176-.36.34l.233.679c.366.223.556.671.84.99.174.261.502.53.338.87h-6.785c-.152-.009-.39.066-.341-.173.171-.554.471-1.064.794-1.542.469-.255.137-.956.443-1.18.24-.355.491-.826.538-1.262-.265-.97-.664-1.9-1.012-2.843-.148-.354-.228-.798-.652-.869-.252-.15.291-.271.228-.504.047-.438.067-.893.312-1.276.294-.268-.164-.572.196-.763.311.303.655-.26 1.028-.314.288-.095.596-.11.898-.107z"
            class="letter"
          />
          <path
            id="path26"
            fill="#fff"
            stroke-width=".894"
            d="M92.797 72.98l-.006.03c-.072.202-.024.25.31.321.92.18 1.23.407 1.623 1.17.215.407.383.813.383.896 0 .095-.335.49-.729.884l-.74.728.072 1.408c.072 1.397.072 1.408-.227 1.624l-.286.214.286.752c.167.418.465 1.027.668 1.35.203.333.394.75.43.942.096.453-.287.836-.848.836-.464 0-.656.238-.656.823a.96.96 0 01-.238.608c-.131.132-.24.37-.24.526 0 .215-.095.322-.357.418-.334.107-.36.155-.36.728 0 1.436-1.046 1.992-2.808 1.49v.956c.072.033.125.076.147.133.02.059-.041.27-.147.55v3.61a8.7 8.7 0 01.16.328c.214.477.716 1.325 1.11 1.885 1.037 1.447 1.7 2.64 1.986 3.554h20.104a.99.99 0 00.725-.307.993.993 0 00.306-.726v-5.772a.992.992 0 00-.306-.727.992.992 0 00-.726-.306H99.397V74.014a.992.992 0 00-.306-.727.994.994 0 00-.727-.306zm1.163 2.445c-.04.008-.105.09-.201.246-.251.442-.204.561.083.239.119-.132.191-.322.167-.418-.01-.049-.025-.071-.05-.067z"
            class="letter"
          />
          <path
            id="path28"
            fill="#fff"
            stroke-width=".894"
            d="M150.582 80.819h-6.92v11.087h6.92q.42 0 .726.306.307.306.307.727v5.772q0 .42-.307.726-.306.307-.726.307h-24.24q-.42 0-.726-.307-.306-.305-.306-.726v-5.772q0-.421.306-.727t.727-.306h6.996V80.819h-6.996q-.421 0-.727-.306-.306-.305-.306-.726v-5.772q0-.422.306-.728.306-.305.727-.305h24.239q.42 0 .725.305.307.306.307.727v5.772q0 .422-.307.727-.305.306-.725.306z"
            class="letter"
          />
          <path
            id="path30"
            fill="#fff"
            stroke-width=".894"
            d="M172.815 72.98c-.918 0-1.492.422-1.72 1.263l-4.463 13.078c.956.02 1.615-.126 1.615-.126.965-.25 3.16-.25 3.16-.25-.058-.221.384-.576.384-.576-.081-.214.273-.958.273-.958.25-.988 1.951-2.527 1.951-2.527 0-.302.605-.633.605-.633.244-.47 1.208-.854 1.208-.854.523-.604.988-.576.988-.576l.36-.028a2.956 2.956 0 01.905-.292l.048-.142.043.128c.63-.067 1.008.143 1.008.143.192.052.795.163.795.163.744-.111 1.401.714 1.401.714.244.08.494.604.494.604.191-.087.767.354.767.354.906.523.959 1.017.959 1.017.19 0 .493.575.493.575.169.052.33.605.33.605.216-.082.355.807.355.807.245-.128.355.982.355.982.302-.082.715.302.715.302.545-.436 2.497-.354 2.497-.354a6.78 6.78 0 00.891-.23l-4.068-11.926c-.23-.841-.804-1.262-1.721-1.262zm17.513 16.4c-.37.648-2.156 1.712-2.156 1.712-.354.575-2.497 1.18-2.497 1.18 0 .22-.413.493-.413.493-.052.134-.383.383-.383.465 0 .081-.302.959-.302.959.656.08 1.371 1.59 1.371 1.59.302.059.633.936.633.936 1.923.385 3.956 2.446 3.956 2.446.23.173.436.369.62.583h1.537a.777.777 0 00.574-.23c.179-.179.268-.345.268-.498a1.162 1.162 0 00-.038-.344zm-24.588.554l-2.98 8.74a1.162 1.162 0 00-.038.342c0 .153.077.32.23.498.178.152.381.23.61.23h2.965c1.569-1.507 4.851-2.825 4.851-2.825l.082-.162c.441-.988 1.18-1.43 1.016-1.593-.168-.168-.22-1.156-.22-1.156-.192-.08-.332-.714-.332-.714-.162-.03-.574-.744-.574-.744-.25.058-1.923-.493-1.923-.493-1.431-.215-2.729-1.184-3.687-2.123z"
            class="letter"
          />
          <path
            id="path32"
            fill="#fff"
            stroke-width=".894"
            d="M198.315 72.98a.992.992 0 00-.727.307.992.992 0 00-.305.727V98.71c0 .28.101.522.305.726a.995.995 0 00.727.307h5.875c.381-.304.802-.538 1.215-.658.216-.066.395-.16.395-.207 0-.058.16-.33.348-.603l.31-.456v-.073l-.168-.16a1.601 1.601 0 00-.443-.282.69.69 0 01-.34-.368c-.056-.15-.16-.301-.225-.33-.076-.028-.207-.188-.292-.357a4.092 4.092 0 00-.462-.67c-.405-.47-.518-.932-.547-2.185-.019-.886.01-1.112.199-1.592.244-.632.688-1.244.97-1.33.104-.037.34-.31.536-.612.2-.317.48-.685.772-1.033v-.516l.212.27c.288-.325.574-.62.798-.803.527-.415 1.328-.83 1.837-.923.51-.104 1.159-.037 2.007.179.367.103.895.207 1.177.245.782.094 2.394 1.036 3.232 1.903.556.556.66 1.027.396 1.62-.141.321-.15.463-.066 1.055.085.623.075.718-.085.944-.095.14-.151.32-.122.395.028.085.009.15-.038.15-.057 0-.132.152-.17.33-.047.292-.009.396.321.83.509.669.556.857.282 1.12a3.113 3.113 0 01-.405.32c-.17.095-.17.133-.057.5.095.34.095.433-.028.622a.99.99 0 00-.152.452.625.625 0 01-.187.396c-.151.141-.188.273-.17.716.024.38-.003.53-.106.672.34.29.736.437 1.187.437h6.155c.28 0 .523-.101.727-.305a.994.994 0 00.306-.727V74.014a.992.992 0 00-.306-.727.994.994 0 00-.727-.306h-7.11a.992.992 0 00-.727.306.992.992 0 00-.306.727v11.24L206 73.745c-.382-.51-.879-.765-1.49-.765z"
            class="letter"
          />
          <path
            id="path34"
            fill="#fff"
            stroke-width=".894"
            d="M55.971 72.982a1.15 1.15 0 00-.187.017c1.23.39 2.334.956 2.963 1.6.836.849 1.397 1.637 1.529 2.103.06.239.107.967.095 1.6-.011 1.04-.047 1.183-.297 1.421-.383.359-.347.55.226 1.23.597.73 1.17 1.602 1.17 1.805 0 .155-.107.286-.645.74-.274.227-.298.322-.238.729.071.466.035.537-.478.895-.227.155-.227.179-.036.358.25.251.25.43.024.742-.096.119-.179.489-.179.824 0 1.182-.502 1.492-2.39 1.492-.727 0-1.432.06-1.564.12-.12.071-.358.382-.513.693a3.565 3.565 0 01-.512.759v3.511a4.378 4.378 0 01.333.746c.143.442.393 1.064.561 1.398.474.957.831 2.076 1.263 3.979h21.202c.28 0 .523-.102.727-.306a.995.995 0 00.306-.727v-5.772a.992.992 0 00-.306-.727.994.994 0 00-.727-.306H65.261V74.014a.992.992 0 00-.305-.727.992.992 0 00-.727-.305z"
            class="letter"
          />
          <path
            id="path36"
            d="M272.47 92.592h15.517q.428 0 .739.311t.311.74v5.483q0 .427-.311.738t-.739.311H263.41q-.428 0-.739-.31-.31-.312-.31-.74V74.004q0-.428.31-.739.311-.31.74-.31h24.188q.428 0 .74.31.31.311.31.74v5.482q0 .428-.31.74-.312.31-.74.31H272.47v2.45h12.99q.427 0 .738.312.311.31.311.738v5.056q0 .428-.31.739-.312.311-.74.311H272.47z"
            class="letter"
            style="
              line-height: 1.25;
              -inkscape-font-specification: 'Rubik Mono One';
            "
          />
          <path
            id="path38"
            d="M242.72 72.564c-5.833 0-9.994 1.685-12.483 5.056-1.322 1.815-1.983 4.032-1.983 6.65v4.589c0 2.618.66 4.835 1.983 6.65 1.322 1.789 3.032 3.085 5.132 3.889 2.126.777 4.474 1.166 7.04 1.166 2.567 0 4.797-.298 6.69-.894 1.892-.623 3.409-1.426 4.55-2.411 2.28-1.997 3.421-4.201 3.421-6.612a.735.735 0 00-.272-.583.735.735 0 00-.583-.272h-8.401c-.008 0-.015.004-.022.004-.246.568-.565 1.138-.766 1.321-.192.173-.364.574-.364.88 0 .44-.173.652-.862 1.092-1.206.766-2.335 1.034-3.962.957-1.149-.057-1.647-.21-2.7-.746-.957-.478-1.282-.746-1.282-1.053 0-.21-.173-.65-.403-.957-.957-1.417-1.283-2.49-1.225-4.06.02-.823.114-1.645.19-1.817.077-.21.003-.383-.266-.536-.344-.173-.402-.383-.402-1.301 0-1.8.861-2.816 1.378-1.629.134.288.25.556.268.594 0 .02.172-.02.344-.077.191-.077.633-.747.978-1.513.918-2.029 1.932-3.54 2.372-3.54.325 0 .365.133.327 1.243l-.039 1.244h1.686l-.078-1.187c-.038-.995 0-1.205.269-1.262.172-.038.516.21.784.573.25.345.86 1.436 1.358 2.431.19.387.4.77.601 1.134.143.204.28.423.4.67.122.192.26.426.339.52.305.37.662.56 1.077.56h8.402a.79.79 0 00.582-.234.858.858 0 00.272-.623c0-2.41-1.14-4.613-3.422-6.61-1.14-.985-2.657-1.776-4.55-2.372-1.892-.622-4.019-.934-6.378-.934z"
            class="letter"
          />
          <path
            id="path4766"
            class="line1"
            d="M121.665 50.502v2.8h-.482v3.645q-.04 1.08-.313 1.485-.273.403-.8.788-.528.384-1.44.592-.885.065-1.438.072-.553.006-1.192.02v-2.8q.508.13 1.146 0 .508-.118.703-.274.196-.156.274-.742v-5.586z"
            font-size="13.333"
            font-stretch="normal"
            font-style="normal"
            font-variant="normal"
            font-weight="400"
          />
          <path
            id="path4768"
            d="M134.176 55.255q0 1.543-.644 2.63-.645 1.087-1.869 1.634-1.217.547-2.91.547-1.692 0-2.91-.547-1.21-.553-1.836-1.628-.625-1.08-.625-2.636 0-1.18.358-2.07.358-.9 1.048-1.511.69-.612 1.693-.925 1.003-.32 2.272-.32 1.686 0 2.91.56 1.224.555 1.87 1.642.643 1.08.643 2.624zm-7.454.026q0 .905.404 1.575.41.67 1.608.67.924 0 1.38-.35.462-.352.573-.802.117-.455.156-1.093-.039-.905-.436-1.576-.397-.677-1.673-.677-2.012 0-2.012 2.253z"
            class="line1"
            font-size="13.333"
            font-stretch="normal"
            font-style="normal"
            font-variant="normal"
            font-weight="400"
          />
          <path
            id="path4770"
            fill="#ff0"
            d="M136.142 50.502h3.06v9.4h-3.06z"
            class="line1"
            font-size="13.333"
            font-stretch="normal"
            font-style="normal"
            font-variant="normal"
            font-weight="400"
          />
          <path
            id="path4772"
            fill="#ff0"
            d="M141.19 59.859v-9.4h3.06l2.8 3.515v-3.516h3.06v9.4h-3.06l-2.8-3.514v3.515z"
            class="line1"
            font-size="13.333"
            font-stretch="normal"
            font-style="normal"
            font-variant="normal"
            font-weight="400"
          />
          <path
            id="path4774"
            fill="#ff0"
            d="M164.148 50.502v2.8h-2.982v6.6h-3.06v-6.6h-2.982v-2.8z"
            class="line1"
            font-size="13.333"
            font-stretch="normal"
            font-style="normal"
            font-variant="normal"
            font-weight="400"
          />
          <path
            id="path4776"
            fill="#ff0"
            d="M171.654 53.788v-3.242h3.06v9.401h-3.06v-3.385h-2.46v3.385h-3.06v-9.4h3.06v3.241z"
            class="line1"
            font-size="13.333"
            font-stretch="normal"
            font-style="normal"
            font-variant="normal"
            font-weight="400"
          />
          <path
            id="path4778"
            fill="#ff0"
            d="M177.2 59.947v-9.4h8.06v2.799h-5v1.08h3.229v1.64h-3.23v1.082h5.795v2.8z"
            class="line1"
            font-size="13.333"
            font-stretch="normal"
            font-style="normal"
            font-variant="normal"
            font-weight="400"
          />
        </g>
        <g
          id="saber"
          fill-opacity="1"
          stroke-dasharray="none"
          stroke-miterlimit="4"
					stroke-opacity="1"
					mask="url(#letters-mask")"
        >
          <g id="blade">
            <path
              id="blade-glow"
              fill="#34e318"
              d="M11.044 81.115l191.39-.715c4.088 2.284 4.088 7.994 0 11.42l-191.39.65z"
              filter="url(#filter4964)"
              opacity=".544"
              transform="matrix(1.43469 0 0 1.01883 -12.166 -1.978)"
            />
            <path
              id="blade-beam"
              fill="#0f0"
              stroke-width="1.218"
              d="M7.983 81.39l272.766-.638c5.826 2.038 5.826 7.132 0 10.188l-272.766.581z"
            />
          </g>
          <rect
            id="rect4937"
            width="35.955"
            height="14"
            x="-24.127"
            y="79.485"
            fill="#999"
            stroke="none"
            stroke-width="16.962"
            opacity="1"
            ry="2.9"
          />
        </g>
        <g
          id="logo"
          display="inline"
          transform="matrix(.22047 0 0 .22047 116.746 119.079)"
        >
          <path
            id="path5"
            d="M7.42 145.99C9.185 99.193 32.899 56.035 76.25 27.52c.128.048 1.251-.361.738.61-3.434 3.184-65.172 76.114-8.344 133.68 0 0 29.858 28.704 53.011 1.468 0 0 22.847-29.577-.289-74.413 0 0-5.856-14.64-26.955-23.721l16.992-18.748s14.359 6.161 25.478 22.871c0 0 .593-17.593-12.884-36.34l26.345-29.89 26.08 29.609s-11.993 16.991-12.876 36.902c0 0 8.191-13.477 25.776-23.151l16.686 18.748s-16.045 5.287-26.794 23.529c-9.242 16.902-16.357 53.05.416 75.223 0 0 18.772 26.618 51.792-1.571 0 0 60.712-54.399-6.226-133.05 0 0-3.658-3.233.449-1.476 29.586 21.54 65.012 49.946 68.67 120.84-1.444 85.966-59.012 147.33-143.07 147.33-82.336 0-146.32-68.69-143.85-149.98"
          />
        </g>
      </svg>
