<?xml version="1.0" encoding="UTF-8" standalone="no"?>
<svg
   xmlns:dc="http://purl.org/dc/elements/1.1/"
   xmlns:cc="http://creativecommons.org/ns#"
   xmlns:rdf="http://www.w3.org/1999/02/22-rdf-syntax-ns#"
   xmlns:svg="http://www.w3.org/2000/svg"
   xmlns="http://www.w3.org/2000/svg"
   xmlns:sodipodi="http://sodipodi.sourceforge.net/DTD/sodipodi-0.dtd"
   xmlns:inkscape="http://www.inkscape.org/namespaces/inkscape"
   version="1.0"
   width="860.000000pt"
   height="1145.000000pt"
   viewBox="0 0 860.000000 1145.000000"
   preserveAspectRatio="xMidYMid meet"
   id="svg624"
   sodipodi:docname="star wars.svg"
   inkscape:version="0.92.5 (2060ec1f9f, 2020-04-08)">
  <defs
     id="defs628" />
  <sodipodi:namedview
     pagecolor="#ffffff"
     bordercolor="#666666"
     borderopacity="1"
     objecttolerance="10"
     gridtolerance="10"
     guidetolerance="10"
     inkscape:pageopacity="0"
     inkscape:pageshadow="2"
     inkscape:window-width="1920"
     inkscape:window-height="1016"
     id="namedview626"
     showgrid="false"
     inkscape:zoom="0.87446568"
     inkscape:cx="573.33333"
     inkscape:cy="1173.8697"
     inkscape:window-x="0"
     inkscape:window-y="27"
     inkscape:window-maximized="1"
     inkscape:current-layer="g622" />
  <metadata
     id="metadata2">
Created by potrace 1.16, written by Peter Selinger 2001-2019
<rdf:RDF>
  <cc:Work
     rdf:about="">
    <dc:format>image/svg+xml</dc:format>
    <dc:type
       rdf:resource="http://purl.org/dc/dcmitype/StillImage" />
  </cc:Work>
</rdf:RDF>
</metadata>
  <g
     transform="translate(0.000000,1145.000000) scale(0.100000,-0.100000)"
     fill="#000000"
     stroke="none"
     id="g622">
    <path
       d="M4195 9173 c-109 -56 -139 -104 -139 -223 0 -84 21 -159 69 -253 20 -38 19 -50 -4 -64 -12 -8 -19 -23 -19 -40 1 -15 -10 -50 -24 -78 -24 -47 -46 -135 -34 -135 3 0 26 10 51 22 l46 22 45 -24 c25 -13 83 -58 129 -101 93 -87 121 -101 143 -73 20 28 9 135 -22 198 -13 28 -27 64 -31 80 -3 16 -15 48 -26 70 -27 56 -25 66 14 66 56 0 64 14 103 174 l37 150 -27 21 c-15 12 -38 44 -50 72 -24 51 -74 93 -112 93 -16 0 -16 2 -4 10 16 10 9 14 -40 23 -14 2 -32 7 -40 10 -8 3 -37 -5 -65 -20z"
       id="path36" />
    <path
       d="M7123 9160 c-58 -12 -118 -45 -141 -77 -26 -37 -52 -115 -52 -157 0 -36 -35 -137 -74 -215 -18 -35 -22 -51 -14 -65 7 -13 4 -26 -15 -55 -69 -104 -105 -215 -74 -227 8 -3 35 7 59 23 36 23 54 28 108 28 101 0 124 -13 451 -262 100 -76 134 -90 152 -61 16 25 -6 101 -47 164 -46 69 -76 129 -76 153 0 11 -8 33 -17 51 -17 30 -17 32 1 46 11 8 28 11 38 8 32 -10 48 14 48 71 0 31 5 55 11 57 11 4 20 56 21 116 0 15 8 26 24 32 32 12 30 23 -10 67 l-33 38 24 80 c40 131 40 125 4 125 -17 0 -53 11 -79 24 -85 42 -204 56 -309 36z"
       id="path38" />
    <path
       d="M1240 9077 c-101 -40 -105 -43 -111 -77 -4 -19 -13 -49 -20 -66 -18 -44 14 -137 49 -142 21 -3 23 -8 18 -40 -3 -20 -8 -72 -11 -115 -6 -70 -31 -167 -48 -184 -12 -11 -7 -53 6 -53 6 0 4 -5 -5 -11 -10 -5 -18 -19 -18 -29 0 -11 -6 -21 -12 -22 -7 -1 75 -5 182 -8 184 -5 222 -3 193 7 -7 3 -13 13 -13 23 0 11 -8 24 -17 29 -17 10 -17 10 0 11 23 0 21 23 -7 73 -12 23 -26 65 -30 92 -5 28 -25 86 -47 130 l-38 80 56 18 c42 14 62 16 82 8 14 -5 44 -12 66 -16 77 -12 81 -16 127 -140 l18 -50 -27 -23 c-32 -26 -41 -32 -69 -49 -10 -6 -18 -15 -17 -21 1 -5 -10 -9 -24 -9 -15 0 -29 -6 -31 -12 -2 -6 -11 -11 -19 -11 -11 0 -7 -7 11 -21 14 -11 26 -27 26 -34 0 -8 9 -19 20 -25 11 -6 26 -23 34 -38 10 -17 15 -21 16 -11 0 9 7 22 15 29 8 7 15 21 15 32 0 11 5 16 10 13 6 -4 17 -1 25 5 12 10 15 9 15 -4 0 -9 6 -16 13 -16 6 0 4 -5 -5 -11 -10 -5 -18 -19 -18 -29 0 -11 -4 -20 -10 -20 -5 0 -10 -4 -10 -10 0 -6 38 -10 95 -10 57 0 95 4 95 10 0 6 -4 10 -10 10 -5 0 -10 9 -10 20 0 10 -8 24 -17 29 -17 10 -17 10 0 11 21 0 23 33 2 50 -9 7 -14 19 -11 26 2 6 -2 20 -9 31 -17 21 -19 59 -5 68 20 12 7 63 -47 185 -9 19 -19 50 -23 68 -7 27 -5 32 10 32 10 0 20 6 23 13 3 8 16 13 29 11 12 -1 31 -3 41 -3 10 -1 15 -5 12 -11 -3 -5 4 -12 17 -14 112 -23 175 -29 183 -16 3 5 19 10 36 10 16 0 29 5 29 10 0 6 -6 10 -12 10 -10 0 -9 3 1 9 29 19 -95 109 -131 96 -8 -3 -34 -1 -58 4 -26 6 -49 6 -55 1 -6 -5 -27 -8 -48 -7 -36 2 -37 3 -37 39 l0 36 -80 27 c-44 15 -80 31 -80 36 0 5 -50 9 -112 8 -109 0 -117 -2 -218 -42z m50 -449 c26 -47 36 -155 17 -192 -7 -15 -5 -22 7 -32 15 -10 15 -12 1 -18 -8 -3 -15 -15 -15 -26 0 -15 -7 -20 -25 -20 -18 0 -25 5 -25 20 0 10 -8 24 -17 29 -17 10 -17 10 1 11 14 0 17 5 12 23 -4 12 -8 38 -10 57 -4 40 15 190 24 190 4 0 17 -19 30 -42z m-120 -188 c0 -5 -7 -10 -15 -10 -8 0 -15 5 -15 10 0 6 7 10 15 10 8 0 15 -4 15 -10z m45 0 c3 -5 -1 -10 -9 -10 -9 0 -16 5 -16 10 0 6 4 10 9 10 6 0 13 -4 16 -10z m195 0 c0 -5 -7 -10 -15 -10 -8 0 -15 5 -15 10 0 6 7 10 15 10 8 0 15 -4 15 -10z m350 0 c0 -5 -7 -10 -15 -10 -8 0 -15 5 -15 10 0 6 7 10 15 10 8 0 15 -4 15 -10z"
       id="path40" />
    <path
       d="M5535 9077 c-114 -38 -207 -123 -246 -225 -30 -79 -30 -195 0 -275 30 -76 111 -164 188 -202 53 -28 67 -30 163 -30 94 0 111 3 160 27 49 24 51 26 20 21 -32 -6 -34 -5 -21 10 7 9 10 17 6 17 -4 0 -2 7 5 15 7 8 21 15 31 15 23 0 24 7 5 26 -13 12 -10 18 16 44 16 16 34 30 39 30 5 0 9 3 9 8 0 4 18 15 40 25 23 9 38 22 35 27 -3 6 -1 10 4 10 21 0 11 19 -11 23 l-23 4 23 2 c15 1 21 5 16 13 -5 8 -2 9 9 5 15 -5 17 1 17 47 0 60 -7 89 -21 80 -5 -3 -9 0 -9 5 0 6 -7 11 -15 11 -14 0 -19 12 -16 33 0 4 -5 7 -11 7 -7 0 -19 4 -27 9 -13 8 -13 12 0 27 12 16 12 17 -3 11 -21 -8 -35 10 -19 26 18 18 13 27 -15 27 -14 0 -23 4 -20 8 8 14 -33 42 -62 42 -23 1 -25 2 -11 13 42 32 -25 68 -135 73 -51 3 -96 -1 -121 -9z m64 -164 c20 -23 22 -34 18 -77 -4 -41 -11 -55 -41 -83 -45 -42 -100 -45 -142 -10 -23 20 -27 32 -27 71 0 110 125 175 192 99z"
       id="path42" />
    <path
       d="M2970 8859 c-14 -19 -20 -20 -144 -10 -71 6 -146 11 -167 11 -39 0 -39 0 -39 -40 0 -39 1 -40 38 -42 20 -1 57 -2 82 -1 25 0 33 -2 17 -4 -27 -4 -29 -7 -23 -39 5 -26 3 -36 -8 -40 -13 -5 -12 -10 5 -33 l19 -26 -35 -65 c-40 -75 -40 -78 -15 -108 18 -21 21 -22 53 -8 33 13 36 18 48 85 7 40 16 74 21 77 5 3 19 -5 31 -18 19 -20 33 -24 96 -26 41 -2 87 2 103 9 27 11 28 15 28 75 l0 64 81 0 c75 0 80 -1 74 -19 -4 -14 0 -21 14 -26 27 -8 42 1 34 22 -6 14 2 15 68 9 41 -4 82 -9 91 -12 21 -6 34 32 23 66 -6 18 -12 21 -33 16 -50 -12 -342 -18 -342 -8 0 14 26 22 76 22 42 0 44 1 44 31 l0 31 -57 -2 c-101 -4 -123 -1 -123 15 0 22 -42 18 -60 -6z m65 -89 c-8 -13 -45 -13 -65 0 -11 7 -3 10 28 10 26 0 41 -4 37 -10z m-107 -154 c3 -13 -1 -17 -14 -14 -11 2 -20 11 -22 22 -3 13 1 17 14 14 11 -2 20 -11 22 -22z"
       id="path44" />
    <path
       d="M1462 7818 c-16 -16 -15 -33 3 -48 9 -8 15 -30 15 -60 l0 -47 -54 -6 c-135 -14 -180 -85 -193 -310 -7 -117 1 -155 32 -163 30 -8 31 -12 3 -66 -31 -62 -48 -80 -64 -68 -14 12 -36 -15 -73 -87 -40 -79 -21 -97 65 -64 31 11 70 21 87 21 43 0 130 -42 198 -95 165 -129 249 -172 249 -126 0 46 -106 227 -167 287 -24 22 -30 44 -14 44 6 0 18 13 27 29 15 26 20 28 47 20 16 -4 37 -5 46 0 9 5 31 6 49 4 l34 -5 -3 169 c-1 93 0 174 4 180 8 12 -7 61 -36 122 -26 55 -91 98 -159 107 l-48 7 0 48 c0 35 4 49 14 49 15 0 26 21 26 51 0 15 -7 19 -38 19 -21 0 -43 -5 -50 -12z"
       id="path46" />
    <path
       d="M2836 7691 c-4 -6 -12 -9 -17 -6 -5 4 -10 -9 -10 -27 -1 -27 -3 -29 -6 -8 -5 29 -23 52 -23 30 0 -11 -2 -12 -8 -3 -8 13 -52 6 -52 -8 0 -5 -7 -6 -15 -3 -13 5 -14 2 -5 -21 6 -15 9 -30 6 -32 -2 -3 -7 5 -11 16 -7 24 -13 25 -38 7 -18 -14 -18 -16 -2 -43 10 -15 11 -21 4 -12 -37 41 -73 24 -48 -23 16 -29 20 -50 8 -42 -5 3 -7 9 -4 13 6 11 -30 43 -38 35 -4 -4 1 -13 11 -21 9 -7 13 -13 7 -12 -18 4 -45 -13 -45 -27 0 -8 10 -19 23 -24 15 -6 17 -9 6 -9 -20 -1 -36 -19 -41 -45 -2 -14 4 -22 22 -27 l25 -7 -27 -1 c-21 -1 -28 -6 -28 -22 0 -16 4 -19 22 -13 21 6 21 6 5 -10 -13 -14 -14 -21 -5 -44 16 -36 36 -58 45 -48 5 5 2 11 -5 13 -17 6 -5 23 16 23 13 0 14 -2 3 -9 -9 -6 -10 -10 -2 -16 8 -4 9 -11 2 -18 -6 -8 -3 -19 9 -34 15 -20 20 -21 30 -8 7 8 17 12 22 9 5 -3 3 -13 -6 -23 -13 -14 -12 -17 10 -28 13 -6 22 -8 20 -4 -3 4 5 7 17 8 12 0 16 -1 10 -4 -9 -3 -10 -10 -3 -23 7 -13 6 -20 -2 -22 -8 -3 -8 -10 1 -27 11 -19 9 -27 -16 -58 -41 -51 -63 -98 -70 -148 -7 -52 -1 -55 59 -24 74 38 133 15 282 -109 56 -46 114 -90 130 -99 58 -30 56 16 -6 141 -24 47 -28 65 -23 98 6 36 4 43 -26 74 -30 31 -32 37 -22 64 9 25 9 32 -4 39 -25 13 0 21 38 12 52 -14 120 -20 114 -11 -3 4 2 13 9 19 12 10 10 16 -10 36 -17 17 -24 35 -24 63 0 22 -7 56 -16 77 -8 21 -13 44 -10 52 9 21 -13 90 -46 146 -15 26 -28 51 -28 56 0 4 -11 18 -25 31 -25 24 -25 40 1 40 8 0 14 -9 14 -20 0 -28 14 -25 44 11 17 20 26 43 26 64 0 44 -12 50 -40 20 -16 -17 -34 -25 -56 -25 -23 0 -37 -6 -44 -20 -13 -24 -36 -26 -44 -4 -8 22 -8 26 4 19 6 -4 10 5 10 19 0 21 -5 26 -25 26 -14 0 -25 -6 -26 -12 0 -7 -4 -4 -9 7 -8 18 -9 17 -9 -7 -1 -15 -5 -29 -10 -32 -5 -4 -7 3 -4 13 6 24 -11 59 -21 42z m-148 -106 c-3 -3 -9 2 -12 12 -6 14 -5 15 5 6 7 -7 10 -15 7 -18z m-98 -69 c0 -3 -4 -8 -10 -11 -5 -3 -10 -1 -10 4 0 6 5 11 10 11 6 0 10 -2 10 -4z m4 -75 c3 -4 -6 -6 -19 -3 -14 2 -25 6 -25 8 0 8 39 4 44 -5z m-4 -71 c11 -8 7 -9 -15 -4 -37 8 -45 14 -19 14 10 0 26 -5 34 -10z m15 -40 c3 -5 1 -10 -5 -10 -6 0 -9 -4 -6 -9 4 -5 -3 -7 -14 -4 -28 8 -35 22 -8 16 19 -4 20 -3 8 6 -13 9 -13 11 2 11 9 0 20 -4 23 -10z m105 -124 c0 -2 -8 -10 -17 -17 -16 -13 -17 -12 -4 4 13 16 21 21 21 13z m50 -46 c0 -5 -5 -10 -11 -10 -5 0 -7 5 -4 10 3 6 8 10 11 10 2 0 4 -4 4 -10z"
       id="path48" />
    <path
       d="M4150 7679 c-107 -9 -191 -61 -222 -136 -21 -50 -41 -186 -33 -223 3 -15 1 -47 -5 -70 -12 -46 -6 -80 16 -80 21 0 17 -17 -6 -23 -16 -4 -19 -11 -15 -30 7 -27 -11 -62 -53 -104 -25 -25 -62 -104 -62 -134 0 -25 15 -24 74 6 27 14 63 25 80 25 48 0 143 -51 238 -128 165 -134 218 -160 218 -109 0 29 -86 192 -128 242 -20 25 -22 36 -9 62 28 55 30 73 8 73 -23 0 -37 18 -24 31 5 5 24 4 45 -3 49 -15 88 8 88 51 0 16 6 31 15 34 8 4 18 21 23 39 6 23 15 34 30 36 28 4 28 29 1 82 -13 26 -18 46 -13 58 4 9 6 37 5 60 -2 36 2 49 24 72 26 27 27 31 15 60 -9 22 -22 33 -41 37 -16 3 -29 9 -29 14 0 5 -6 9 -14 9 -8 0 -27 7 -43 14 -57 30 -117 41 -183 35z"
       id="path50" />
    <path
       d="M7157 7639 c-67 -23 -115 -65 -151 -134 -26 -49 -31 -69 -30 -122 1 -43 8 -72 20 -91 32 -48 28 -122 -7 -122 -12 0 -27 -12 -37 -29 -9 -16 -30 -35 -46 -43 -44 -19 -102 -125 -113 -205 -7 -50 -1 -52 57 -23 93 47 185 16 355 -120 103 -82 171 -124 188 -113 5 3 7 20 4 37 -7 38 -99 231 -128 267 -20 25 -20 28 -5 57 20 39 82 62 122 44 13 -7 38 -12 54 -12 35 0 43 21 36 92 -6 60 11 105 41 113 30 7 29 22 -4 81 -17 30 -26 60 -25 81 3 42 -13 103 -44 169 -20 41 -32 54 -72 73 -55 26 -137 26 -215 0z"
       id="path52" />
    <path
       d="M6131 7568 c7 -13 16 -30 21 -38 19 -35 21 -43 7 -54 -16 -12 -17 -21 -5 -49 5 -9 4 -23 -1 -30 -6 -7 -11 -110 -12 -237 -1 -124 -4 -238 -7 -255 -8 -46 27 -79 75 -70 20 4 42 11 49 17 14 12 16 44 2 53 -5 3 -10 33 -10 66 0 46 3 59 15 59 12 0 15 15 15 75 0 68 -2 75 -20 75 -19 0 -20 7 -20 110 0 67 -4 110 -10 110 -5 0 -10 7 -10 15 0 8 5 15 10 15 15 0 12 36 -5 50 -13 11 -13 16 2 44 37 72 40 66 -37 66 -70 0 -70 0 -59 -22z"
       id="path54" />
    <path
       d="M5071 7533 c-16 -57 -14 -63 19 -63 29 0 30 1 30 50 0 43 -3 50 -20 50 -14 0 -22 -11 -29 -37z"
       id="path56" />
    <path
       d="M5319 7548 c-19 -16 -49 -63 -49 -78 0 -7 55 -10 168 -8 141 3 167 5 167 18 0 11 -11 15 -40 15 -134 2 -143 4 -157 33 -15 31 -62 42 -89 20z"
       id="path58" />
    <path
       d="M5417 7444 c-14 -14 26 -74 49 -74 16 0 104 61 104 72 0 9 -144 11 -153 2z"
       id="path60" />
    <path
       d="M5222 7388 c4 -27 56 -45 65 -22 10 26 -5 44 -37 44 -27 0 -31 -3 -28 -22z"
       id="path62" />
    <path
       d="M5376 7364 c-12 -31 -6 -63 16 -78 30 -21 33 -20 52 9 16 24 15 26 -16 55 -38 34 -44 36 -52 14z"
       id="path64" />
    <path
       d="M5610 7290 c0 -6 -4 -9 -8 -6 -5 3 -22 -9 -38 -26 l-29 -30 42 21 c46 23 59 36 43 46 -5 3 -10 1 -10 -5z"
       id="path66" />
    <path
       d="M5260 7255 c0 -8 9 -16 20 -16 32 -2 32 -3 82 -32 54 -32 58 -32 58 -11 0 10 -5 14 -16 10 -8 -3 -13 -2 -10 3 6 10 -37 41 -63 46 -9 2 -16 4 -16 5 0 1 -12 4 -27 6 -21 3 -28 1 -28 -11z"
       id="path68" />
    <path
       d="M5033 7148 c2 -7 19 -13 38 -13 22 0 33 -4 32 -13 -2 -6 -4 -17 -5 -23 -2 -6 11 -13 27 -15 17 -3 75 -27 130 -54 96 -48 100 -49 109 -30 11 23 43 26 70 5 23 -18 55 -19 76 -4 12 8 10 10 -9 5 -34 -7 -55 7 -92 60 -37 54 -61 64 -158 69 -40 2 -78 8 -84 14 -16 16 -140 15 -134 -1z"
       id="path70" />
    <path
       d="M5607 7128 c-8 -19 -29 -45 -46 -57 -39 -28 -39 -41 -2 -41 35 0 45 12 60 74 14 58 8 71 -12 24z"
       id="path72" />
    <path
       d="M5073 6995 c-43 -18 -82 -80 -92 -146 -9 -55 -6 -77 5 -43 19 59 30 78 66 108 67 58 139 58 207 -1 54 -46 52 -26 -3 30 -27 28 -59 50 -82 56 -50 14 -62 13 -101 -4z"
       id="path74" />
    <path
       d="M7171 6274 c0 -11 3 -14 6 -6 3 7 2 16 -1 19 -3 4 -6 -2 -5 -13z"
       id="path76" />
    <path
       d="M7092 6245 c0 -16 2 -22 5 -12 2 9 2 23 0 30 -3 6 -5 -1 -5 -18z"
       id="path78" />
    <path
       d="M1436 6209 c-42 -18 -86 -67 -106 -119 -8 -19 -21 -40 -30 -47 -9 -7 -15 -29 -16 -60 -1 -26 -4 -85 -7 -129 -6 -73 -5 -84 14 -108 12 -15 16 -25 9 -24 -7 2 -13 -10 -15 -27 -1 -17 -12 -45 -23 -64 -11 -18 -18 -39 -16 -45 3 -7 -13 -32 -36 -55 -44 -48 -80 -115 -80 -149 0 -27 10 -27 62 -1 33 17 55 20 103 17 65 -4 75 -8 285 -121 58 -31 118 -57 134 -57 28 0 29 1 23 44 -7 51 -45 141 -89 209 -29 45 -29 48 -14 72 21 32 21 30 -15 45 -43 18 -22 35 27 21 64 -18 112 -14 124 9 6 11 8 25 5 30 -3 5 -1 17 4 27 5 10 17 35 26 56 9 20 20 37 25 37 17 0 11 28 -15 66 -20 29 -22 40 -14 56 8 15 8 38 -1 83 -9 46 -9 68 -1 84 21 38 -48 131 -97 131 -11 0 -25 6 -31 14 -7 8 -21 12 -31 9 -11 -3 -26 -1 -33 5 -18 15 -129 10 -171 -9z"
       id="path80" />
    <path
       d="M2974 6176 c-3 -7 -4 -17 -3 -22 1 -5 1 -33 0 -61 l-1 -53 -45 0 -44 0 3 70 c4 68 3 70 -20 70 -18 0 -32 -14 -63 -67 -21 -38 -51 -95 -67 -128 -15 -33 -40 -75 -56 -93 -15 -18 -30 -45 -34 -60 -3 -15 -16 -52 -30 -83 -27 -64 -29 -75 -11 -82 10 -4 10 -6 0 -6 -9 -1 -13 -17 -13 -46 0 -29 4 -45 13 -45 9 0 8 -3 -2 -9 -22 -14 11 -100 60 -156 10 -11 19 -33 21 -50 4 -37 67 -78 156 -101 97 -24 193 -8 290 49 42 25 52 36 52 58 0 14 8 37 19 50 41 54 79 149 58 149 -8 0 -8 3 1 12 15 15 16 88 1 88 -8 0 -8 4 -1 13 5 7 6 21 1 32 -13 34 -10 53 11 60 43 14 17 195 -28 195 -19 0 -42 -37 -42 -66 0 -14 -2 -14 -16 0 -8 9 -20 16 -25 16 -5 0 -9 4 -9 10 0 17 -50 120 -96 196 -43 71 -69 90 -80 60z m13 -218 c-3 -8 -6 -5 -6 6 -1 11 2 17 5 13 3 -3 4 -12 1 -19z"
       id="path82" />
    <path
       d="M4245 6173 c-97 -10 -135 -31 -135 -76 0 -14 -18 -42 -45 -69 -37 -39 -45 -53 -45 -85 0 -21 9 -55 20 -76 11 -20 20 -51 20 -67 0 -31 3 -34 52 -44 32 -7 71 -66 44 -66 -17 0 -39 -34 -29 -44 3 -3 -2 -15 -12 -26 -10 -11 -15 -20 -11 -20 5 0 -6 -16 -23 -35 -43 -49 -80 -185 -51 -185 6 0 28 9 50 20 82 42 150 17 300 -111 185 -158 222 -149 135 30 -25 51 -45 98 -45 105 0 7 -14 25 -31 42 -28 26 -30 33 -24 69 4 22 7 52 8 66 0 20 4 25 17 22 10 -3 33 3 51 13 19 10 43 19 54 19 24 0 39 61 30 125 -4 25 -9 58 -11 74 -2 16 -9 35 -15 43 -8 9 -10 34 -5 75 6 60 6 61 -30 94 -19 19 -43 34 -52 34 -10 0 -44 14 -77 31 -71 37 -99 46 -140 42z"
       id="path84" />
    <path
       d="M5642 6129 c-30 -9 -79 -52 -155 -137 -44 -50 -57 -83 -57 -148 0 -52 4 -67 30 -102 17 -23 30 -46 30 -52 0 -5 7 -10 15 -10 9 0 18 -6 21 -14 7 -18 -24 -66 -42 -66 -24 0 -85 -62 -110 -111 -32 -64 -31 -71 11 -53 49 20 92 17 151 -10 43 -20 65 -41 128 -125 77 -101 143 -158 170 -148 42 16 21 157 -38 256 -43 72 -49 101 -31 144 l14 34 50 -9 c60 -11 91 2 91 36 0 13 7 37 15 52 8 16 12 37 9 47 -4 12 1 24 13 32 17 13 17 14 0 45 -12 20 -16 40 -12 53 3 12 8 55 11 96 3 59 1 78 -12 93 -36 39 -112 78 -183 93 -81 17 -74 17 -119 4z"
       id="path86" />
    <path
       d="M7092 6069 l-2 -76 -42 -13 c-24 -7 -47 -17 -52 -22 -6 -4 -18 -8 -27 -8 -20 0 -33 -31 -24 -59 6 -21 94 -55 118 -45 8 3 18 1 21 -4 5 -9 -61 -22 -114 -22 -45 0 -55 -22 -31 -68 11 -22 25 -42 31 -44 8 -2 8 -12 0 -33 -7 -18 -9 -48 -4 -75 6 -39 8 -42 14 -20 6 23 7 23 11 5 7 -26 0 -47 -13 -39 -6 4 -8 2 -4 -4 6 -11 -52 -62 -71 -62 -5 0 -18 -7 -29 -16 -15 -12 -15 -15 -2 -10 19 5 33 -20 15 -28 -7 -2 -5 -5 5 -5 9 -1 19 8 23 19 3 10 21 28 39 39 71 44 111 101 71 101 -19 0 -30 63 -16 87 8 12 11 13 9 3 -2 -8 -1 -15 2 -15 3 -1 15 -10 28 -20 18 -16 22 -31 23 -80 1 -50 3 -54 8 -25 l7 35 5 -32 c4 -21 0 -37 -9 -47 -9 -9 -11 -19 -6 -28 14 -22 -6 -119 -36 -173 -17 -31 -22 -123 -6 -127 10 -3 31 61 40 119 7 52 27 102 33 86 2 -7 -1 -21 -6 -32 -7 -13 -8 -22 -1 -26 5 -3 10 -17 10 -31 0 -13 5 -24 11 -24 7 0 9 10 7 25 -3 14 -2 25 2 25 4 0 7 14 7 32 0 18 5 34 11 36 14 4 16 32 3 32 -13 0 -3 83 14 124 4 10 4 21 -2 25 -16 10 -23 40 -17 71 5 22 13 30 38 36 17 3 36 11 43 16 9 7 11 0 7 -29 -3 -21 -8 -45 -11 -53 -4 -8 -5 -19 -4 -23 1 -5 -4 -46 -10 -92 -10 -72 -10 -89 4 -117 8 -18 22 -56 30 -85 21 -71 35 -93 57 -93 26 0 25 16 -3 43 -26 24 -60 126 -58 172 1 17 2 55 2 85 1 43 2 49 9 30 8 -24 8 -23 9 8 1 25 5 32 21 32 11 0 29 -9 41 -21 16 -16 24 -18 32 -9 15 15 -16 40 -49 40 -13 0 -26 4 -29 10 -9 15 37 140 52 140 20 0 45 46 41 77 -3 26 -7 29 -60 37 -63 10 -78 26 -25 26 38 0 67 25 67 58 0 26 -25 52 -50 52 -10 0 -21 4 -25 9 -3 6 -26 13 -50 17 l-45 6 -2 72 -2 71 -3 -67 -4 -68 -34 0 -34 0 -4 73 -3 72 -2 -76z m145 -631 c-3 -8 -6 -5 -6 6 -1 11 2 17 5 13 3 -3 4 -12 1 -19z m-120 -30 c-3 -7 -5 -2 -5 12 0 14 2 19 5 13 2 -7 2 -19 0 -25z"
       id="path88" />
    <path
       d="M1462 4765 c-68 -47 -142 -154 -140 -205 0 -14 -20 -69 -46 -122 -29 -59 -53 -127 -62 -174 -11 -61 -22 -86 -49 -120 -60 -73 -67 -106 -53 -249 3 -34 30 -45 56 -22 38 34 102 57 155 57 76 0 141 -22 238 -81 168 -104 268 -151 297 -142 19 7 14 43 -13 98 -13 28 -25 60 -25 72 0 12 -21 52 -46 90 -40 60 -61 103 -81 166 -9 28 17 67 43 67 13 0 34 5 48 11 20 9 29 9 41 -1 12 -10 19 -10 28 -1 14 14 12 82 -2 110 -8 14 -8 28 0 48 7 15 11 38 10 51 0 12 5 22 13 22 33 0 37 26 9 66 -14 21 -27 49 -29 61 -3 26 -6 32 -69 116 -58 77 -109 105 -208 113 -59 5 -65 4 -115 -31z m-319 -795 c-3 -12 -8 -19 -11 -16 -5 6 5 36 12 36 2 0 2 -9 -1 -20z"
       id="path90" />
    <path
       d="M4245 4734 c-66 -17 -98 -41 -125 -94 -35 -70 -43 -173 -15 -213 19 -28 18 -72 -4 -122 -17 -38 -17 -41 2 -72 15 -26 16 -33 5 -33 -8 0 -24 -17 -36 -38 -11 -21 -30 -46 -41 -56 -24 -22 -61 -115 -61 -153 0 -28 -1 -28 79 2 39 14 48 14 95 1 51 -15 73 -29 227 -147 83 -63 116 -78 125 -56 12 32 -58 246 -97 295 -25 33 -24 42 11 88 49 64 51 65 84 64 17 -1 39 -2 48 -1 25 1 50 31 45 52 -3 11 -1 22 4 25 6 3 7 14 4 25 -4 11 -2 19 4 19 6 0 11 10 11 22 0 12 7 29 15 38 14 15 12 21 -16 60 -22 30 -28 45 -20 53 6 6 11 35 11 64 0 49 -4 57 -41 98 -70 76 -197 108 -314 79z"
       id="path92" />
    <path
       d="M2837 4656 c-26 -13 -47 -19 -47 -14 0 5 -4 7 -9 3 -6 -3 -10 -13 -9 -23 0 -9 -7 -35 -16 -57 -8 -22 -15 -49 -16 -60 0 -12 -5 -26 -11 -32 -8 -8 -6 -13 8 -17 12 -4 33 -44 65 -132 l48 -126 -25 -52 c-14 -29 -25 -58 -25 -65 0 -7 -18 -43 -40 -80 -64 -108 -79 -101 210 -101 212 0 252 2 256 15 6 15 -64 112 -92 128 -24 14 -16 34 34 85 49 50 50 54 26 109 -8 17 -14 36 -14 42 0 6 -25 72 -55 147 -31 75 -53 144 -51 153 8 23 -60 75 -116 89 -63 16 -68 16 -121 -12z m167 -606 c20 0 36 -3 36 -7 0 -5 -14 -24 -30 -43 -22 -26 -30 -30 -30 -17 0 10 -8 17 -19 17 -25 0 -54 43 -39 58 7 7 17 8 29 2 10 -6 34 -10 53 -10z"
       id="path94" />
    <path
       d="M7131 4665 c-24 -8 -53 -22 -65 -33 -11 -11 -31 -23 -44 -27 -15 -4 -21 -12 -18 -21 4 -10 2 -12 -6 -8 -8 5 -9 2 -5 -10 4 -10 -15 -61 -50 -133 -68 -141 -75 -178 -40 -219 l25 -29 -49 -52 c-53 -56 -65 -90 -26 -78 79 25 116 13 222 -76 76 -63 130 -95 189 -111 40 -11 48 -10 62 4 14 14 15 23 4 70 -7 29 -21 75 -32 102 -10 27 -17 49 -16 50 2 1 16 6 32 11 47 16 92 99 76 141 -6 14 -7 30 -4 36 4 5 1 20 -6 33 -11 20 -9 27 14 52 26 28 33 43 18 43 -4 0 -9 17 -10 38 -2 20 -5 45 -8 55 -4 11 1 24 13 32 17 14 17 14 0 15 -10 0 -26 13 -35 29 -17 30 -49 51 -78 51 -8 0 -27 9 -42 19 -38 27 -71 31 -121 16z m-181 -455 c8 -5 11 -12 8 -16 -10 -9 -38 3 -38 16 0 12 10 13 30 0z"
       id="path96" />
    <path
       d="M5407 4610 c-5 -13 -17 -241 -17 -335 0 -73 11 -302 15 -322 13 -57 23 -12 24 108 2 133 11 175 40 182 22 5 101 -22 130 -45 31 -24 98 -24 125 0 22 20 97 52 121 52 30 0 45 -55 46 -172 0 -111 10 -170 23 -138 4 13 15 230 16 335 0 32 -16 337 -19 345 -1 3 -6 -2 -11 -10 -5 -8 -10 -68 -10 -132 0 -120 -10 -164 -39 -171 -22 -5 -101 22 -133 46 -36 27 -81 26 -119 -2 -32 -24 -101 -51 -128 -51 -28 0 -41 49 -42 164 -1 113 -11 175 -22 146z"
       id="path98" />
    <path
       d="M2886 3369 c-57 -14 -101 -51 -130 -112 -36 -76 -83 -258 -90 -349 -9 -106 -30 -181 -71 -247 -43 -72 -76 -169 -83 -248 -4 -59 -3 -63 16 -63 11 0 36 9 54 19 64 38 121 45 199 26 39 -9 73 -14 76 -11 9 8 84 -34 78 -44 -3 -5 5 -16 17 -24 15 -11 24 -12 29 -5 10 18 80 -32 73 -53 -6 -20 27 -41 50 -32 20 8 79 -34 72 -52 -7 -17 47 -46 77 -42 12 2 21 6 21 11 -1 4 -5 53 -9 110 -5 71 -13 115 -27 143 -11 23 -18 48 -16 55 3 8 -1 31 -8 53 -19 52 -18 53 15 71 59 30 71 61 75 198 4 116 3 127 -16 143 -35 33 -40 52 -27 104 11 41 10 57 -5 107 -39 132 -71 172 -178 226 -57 29 -116 34 -192 16z"
       id="path100" />
    <path
       d="M1467 3227 c-91 -29 -154 -122 -164 -240 -5 -52 -16 -81 -71 -181 -68 -124 -69 -135 -14 -136 12 0 22 -3 22 -7 0 -5 -27 -44 -60 -88 -79 -106 -122 -220 -90 -240 6 -4 35 8 66 25 104 60 193 35 391 -110 117 -86 206 -136 222 -125 16 10 13 51 -10 133 -31 113 -54 158 -107 215 -55 58 -70 87 -44 80 11 -2 21 5 27 19 8 18 34 31 113 57 84 29 101 38 97 52 -3 9 -1 38 5 64 9 41 8 50 -10 75 -20 28 -29 96 -11 85 21 -12 18 15 -10 94 -38 107 -83 169 -149 205 -60 33 -145 42 -203 23z"
       id="path102" />
    <path
       d="M7029 3170 c-83 -14 -129 -49 -167 -125 -29 -59 -34 -94 -20 -155 6 -30 11 -75 10 -98 -1 -30 5 -50 17 -64 19 -19 19 -21 -5 -55 -27 -41 -31 -73 -9 -73 21 0 19 -13 -5 -35 -33 -29 -73 -179 -54 -198 4 -3 28 5 55 18 61 32 110 31 178 -1 50 -23 85 -49 244 -182 116 -97 166 -91 122 15 -15 35 -14 37 16 84 73 114 77 245 9 309 -39 36 -44 62 -21 102 11 18 23 58 27 88 6 52 5 56 -19 69 -19 10 -26 23 -29 56 -3 23 -21 73 -40 111 -34 66 -38 71 -109 106 -77 38 -111 43 -200 28z m222 -610 l40 -21 29 21 28 20 22 -35 c33 -53 35 -100 10 -167 -12 -32 -25 -58 -29 -58 -4 0 -16 20 -28 43 -12 24 -44 71 -72 104 -50 61 -74 113 -52 113 7 0 30 -9 52 -20z"
       id="path104" />
    <path
       d="M5573 3075 c-28 -12 -82 -73 -97 -108 -3 -7 -21 6 -44 32 -97 110 -95 -41 2 -155 18 -22 41 -63 50 -91 10 -29 22 -55 27 -58 19 -12 8 -45 -19 -59 -39 -20 -112 -101 -112 -125 0 -18 2 -18 43 -3 57 20 79 11 194 -79 103 -81 181 -121 226 -117 30 3 32 6 35 43 2 22 -6 67 -16 101 -16 53 -17 65 -5 99 7 22 12 48 11 59 -2 14 5 22 28 28 17 4 36 14 41 20 35 44 31 235 -6 308 -19 38 -225 121 -298 120 -16 -1 -42 -7 -60 -15z"
       id="path106" />
    <path
       d="M4735 2938 c-4 -9 -5 -24 -3 -34 2 -14 -14 -23 -87 -45 -109 -34 -165 -37 -182 -10 -31 50 -89 23 -79 -38 l5 -35 -18 31 c-11 17 -33 38 -50 46 -28 14 -34 14 -62 0 -17 -8 -39 -29 -49 -46 l-18 -30 5 40 c7 53 -13 71 -56 48 -17 -8 -31 -20 -31 -25 0 -19 -85 -10 -175 18 -86 27 -90 29 -87 55 5 41 -30 32 -40 -10 -6 -24 -6 -25 269 -104 82 -24 113 -38 116 -51 3 -10 2 -20 -1 -22 -4 -2 -77 -25 -162 -50 -85 -26 -170 -52 -187 -57 -26 -8 -33 -16 -33 -35 0 -14 7 -27 16 -31 20 -8 36 17 22 34 -7 9 -6 14 3 17 89 29 193 56 217 56 20 0 40 -9 56 -25 44 -44 81 -23 74 40 -5 40 3 45 17 13 21 -47 155 -45 155 2 0 11 5 20 10 20 6 0 8 -10 4 -24 -7 -31 2 -62 21 -70 20 -7 65 14 65 31 0 21 66 16 172 -14 96 -27 97 -28 91 -55 -4 -20 -1 -28 8 -28 22 0 35 13 36 37 2 24 8 22 -274 105 -96 28 -113 36 -113 53 0 23 -14 17 248 96 131 39 142 44 136 63 -3 12 -12 27 -20 35 -11 13 -14 12 -19 -1z"
       id="path108" />
  </g>
</svg>
