<?xml version="1.0" encoding="UTF-8" standalone="no"?>
<svg
   xmlns:dc="http://purl.org/dc/elements/1.1/"
   xmlns:cc="http://creativecommons.org/ns#"
   xmlns:rdf="http://www.w3.org/1999/02/22-rdf-syntax-ns#"
   xmlns:svg="http://www.w3.org/2000/svg"
   xmlns="http://www.w3.org/2000/svg"
   xmlns:sodipodi="http://sodipodi.sourceforge.net/DTD/sodipodi-0.dtd"
   xmlns:inkscape="http://www.inkscape.org/namespaces/inkscape"
   viewBox="0 0 79.374997 52.916668"
   version="1.1"
   id="xwing"
   sodipodi:docname="xwing.svg"
   inkscape:version="0.92.5 (2060ec1f9f, 2020-04-08)">
  <metadata
     id="metadata8">
    <rdf:RDF>
      <cc:Work
         rdf:about="">
        <dc:format>image/svg+xml</dc:format>
        <dc:type
           rdf:resource="http://purl.org/dc/dcmitype/StillImage" />
      </cc:Work>
    </rdf:RDF>
  </metadata>
  <defs
     id="defs6" />
  <sodipodi:namedview
     pagecolor="#ffffff"
     bordercolor="#666666"
     borderopacity="1"
     objecttolerance="10"
     gridtolerance="10"
     guidetolerance="10"
     inkscape:pageopacity="0"
     inkscape:pageshadow="2"
     inkscape:window-width="1920"
     inkscape:window-height="1016"
     id="namedview4"
     showgrid="false"
     inkscape:zoom="4.4598424"
     inkscape:cx="39.6875"
     inkscape:cy="26.458334"
     inkscape:window-x="0"
     inkscape:window-y="27"
     inkscape:window-maximized="1"
     inkscape:current-layer="xwing" />
  <path
     id="path108"
     d="m 73.49162,11.933 c -0.305242,0.68675 -0.381531,1.83135 -0.228931,2.59441 0.152491,1.06826 -1.068285,1.75501 -6.638594,3.43376 -8.317347,2.59439 -12.590475,2.8233 -13.887674,0.76304 -2.36548,-3.81529 -6.791219,-1.75503 -6.028162,2.89963 l 0.381529,2.6707 -1.373504,-2.36548 c -0.839364,-1.29719 -2.518092,-2.89962 -3.815293,-3.51007 -2.136561,-1.06828 -2.594397,-1.06828 -4.730961,0 -1.297199,0.61045 -2.975926,2.21288 -3.738985,3.51007 l -1.373506,2.28917 0.38153,-3.05222 c 0.534139,-4.04421 -0.991975,-5.41771 -4.273128,-3.66268 -1.297198,0.61044 -2.36548,1.52611 -2.36548,1.90764 0,1.44981 -6.485999,0.76306 -13.353524,-1.37351 C 5.8846331,15.9772 5.5794126,15.8246 5.8083228,13.84066 6.1898536,10.71211 3.5191549,11.39887 2.7560914,14.60369 c -0.4578205,1.83135 -0.4578205,1.90766 20.5262776,7.93582 6.257077,1.83135 8.62256,2.89963 8.851477,3.8916 0.228917,0.76306 0.152621,1.52611 -0.07631,1.67873 -0.305223,0.15249 -5.875549,1.90764 -12.361546,3.81529 -6.485989,1.98395 -12.9719823,3.9679 -14.269198,4.34942 -1.9839475,0.61045 -2.5180783,1.22092 -2.5180783,2.67071 0,1.06828 0.5341308,2.06026 1.220884,2.36549 1.526126,0.61045 2.74701,-1.29721 1.678726,-2.5944 C 5.274192,38.02959 5.3505032,37.64807 6.0372554,37.41916 12.82847,35.20627 20.764272,33.14601 22.595613,33.14601 c 1.526116,0 3.052234,0.68676 4.273126,1.90766 3.357457,3.35745 6.180772,1.75504 5.646633,-3.05222 -0.38153,-3.05224 0.228917,-3.43378 1.297199,-0.99198 1.602421,3.58636 11.827402,3.43376 11.827402,-0.15271 0,-0.83938 0.38153,-1.52612 0.76306,-1.52612 0.457835,0 0.610446,0.76305 0.305222,1.83134 -0.534139,2.36548 0.152622,4.73096 1.602424,5.34143 1.526116,0.53412 4.959878,-1.0683 4.959878,-2.36551 0,-1.60241 5.036188,-1.22088 13.124607,1.06829 7.325368,2.06025 7.401656,2.13656 6.943836,4.19682 -0.305222,1.52613 -0.07636,2.13657 0.610442,2.13657 1.678726,0 2.6707,-0.99197 2.74701,-2.82332 0.152702,-1.83134 0.610437,-1.67873 -20.907801,-8.01212 -7.325361,-2.13655 -8.622559,-2.74701 -8.622559,-4.04421 0,-1.75503 -1.068282,-1.29719 18.923851,-7.32534 C 76.08601,16.35865 76.925361,15.97711 76.467542,14.52732 76.23861,13.61163 75.551857,12.46707 74.941416,11.8566 74.102041,10.86463 73.873131,10.94094 73.4916,11.9329 Z"
     style="fill:#000000;stroke-width:0.07630584" />
</svg>
