<?xml version="1.0" encoding="UTF-8"?>
<svg id="svg6" version="1.1" viewBox="0 0 100 100" xmlns="http://www.w3.org/2000/svg">
 <path id="path2" d="m80.527 15h-57.651c-1.6219 0-2.8752 1.327-2.8752 2.8752v45.561c0 1.6219 1.327 2.8752 2.8752 2.8752h20.053v-5.7504h-16.072c-0.58978 0-1.1058-0.51606-1.1058-1.1058v-3.5387c0-0.29489 0.073723-0.51606 0.29489-0.73723l15.556-17.841c1.327-1.5482 3.7599-1.5482 5.0869 0l10.321 11.869c0.44234 0.51606 1.1796 0.51606 1.6219 0l4.2022-4.6446c1.1796-1.327 3.3175-1.327 4.4971 0l10.026 11.058c0.22117 0.22117 0.29489 0.44234 0.29489 0.73723v3.0964c0 0.58978-0.51606 1.1058-1.1058 1.1058h-15.998v5.7504h20.053c1.6219 0 2.8752-1.2533 2.8752-2.8752v-45.561c-0.073724-1.5482-1.327-2.8752-2.9489-2.8752zm-12.385 19.979c-2.5066 0-4.5708-2.0642-4.5708-4.5708s2.0642-4.5708 4.5708-4.5708c2.5066 0 4.5708 2.0642 4.5708 4.5708s-1.9905 4.5708-4.5708 4.5708z"/>
 <path id="path4" d="m59.884 70.661h-3.2438v-14.081c0-1.2533-1.0321-2.2854-2.2854-2.2854h-5.3081c-1.2533 0-2.2854 1.0321-2.2854 2.2854v14.081h-3.2438c-1.6956 0-2.654 1.9905-1.6219 3.3175l8.1833 10.247c0.81095 1.0321 2.3591 1.0321 3.2438 0l8.1833-10.247c1.1058-1.327 0.14744-3.3175-1.6219-3.3175z"/>
</svg>
