<?xml version="1.0" encoding="UTF-8"?>
<svg version="1.1" viewBox="0 0 150 75" xmlns="http://www.w3.org/2000/svg">
 <path id="line16-9" d="m58.789 19.196v9.5632m-47.579-9.5632v9.5632m23.79 41.241v-50.207m23.79-0.5977h-47.579m38.063 52h-28.548" fill="none" stroke="#000" stroke-linecap="round" stroke-width="8.0001"/>
 <g id="g6" transform="matrix(.83476 0 0 .83476 64.188 10.572)" stroke-width="1.198">
  <path id="path12" d="m46.2 34.6c4.5 0.3 8.8 1.5 12.7 3.3 3.5-2.7 7.5-5.7 12.3-9.3-7.8-4-16.5-5.9-25-5.4-12.6 0.7-24.5 6.5-32.4 15.5-6.6 7.3-10.5 16.7-11.3 26.1-0.1 1.1 0.8 2.1 1.9 2.1 0.9 0 1.7-0.7 1.9-1.5 1.8-8.4 6.3-16.1 12.6-21.5 7.6-6.8 17.7-10 27.3-9.3z"/>
  <path id="path16" d="m83.6 37.8c-3.9 5.1-7.2 9.5-10 13.2 2.7 4.4 4.3 9.3 4.8 14.2 0.1 0.9 0.9 1.7 1.9 1.7h15.3c1.2 0 2.1-1.1 1.9-2.3-1.9-10.2-6.8-19.7-13.9-26.8z"/>
  <path id="path20" d="m81.6 30.8c0.8-1.1-0.5-2.4-1.6-1.6-8.3 6.3-22.8 17.2-31 23.6-0.9-0.2-1.8-0.4-2.8-0.4-6.7 0.1-12.2 5.6-12.2 12.3s5.4 12.2 12.2 12.2 12.2-5.4 12.2-12.2c0-1-0.1-1.9-0.4-2.8 6.4-8.3 17.3-22.7 23.6-31.1z"/>
 </g>
</svg>
