<?xml version="1.0" encoding="UTF-8"?>
<svg id="svg10" class="volume-on hidden" version="1.1" viewBox="0 0 100 100" xmlns="http://www.w3.org/2000/svg">
 <path id="path2" d="m66.071 64.438c0.59296 0.53307 1.3719 0.79927 2.1516 0.79927 0.77454 0 1.5491-0.2629 2.1412-0.79 3.9246-3.4891 6.0859-8.1404 6.0859-13.098 0-4.9493-2.1539-9.5991-6.0651-13.093-1.1859-1.0582-3.1078-1.0588-4.2936 6.61e-4 -1.1852 1.0595-1.1852 2.7766 7.39e-4 3.836 2.7639 2.4686 4.2862 5.7558 4.2862 9.2562 0 3.503-1.5261 6.7888-4.2966 9.2528-1.1889 1.0562-1.1933 2.7739-0.010375 3.8355z"/>
 <path id="path6" d="m89.877 50c0 9.7797-4.3458 18.966-12.238 25.868-1.0793 0.94389-1.0807 2.4761-0.003368 3.4217 0.53934 0.47312 1.2465 0.70998 1.9544 0.70998 0.70586 0 1.4118-0.23568 1.9511-0.70703 8.9368-7.8163 13.859-18.219 13.859-29.293 0-11.073-4.9215-21.476-13.859-29.293-1.08-0.9433-2.8282-0.94271-3.9054 0.002952-1.0773 0.94566-1.076 2.4773 0.003368 3.4217 7.8919 6.9026 12.238 16.089 12.238 25.868z"/>
 <path id="path8" d="m9.2621 64.105h15.39c0.65778 0 1.3003 0.19883 1.843 0.57051l20.066 13.74c2.165 1.4824 5.1052-0.067779 5.1052-2.6916v-51.448c0-2.6238-2.9403-4.174-5.1052-2.6916l-20.066 13.74c-0.54275 0.37168-1.1852 0.57059-1.843 0.57059h-15.39c-1.8016 0-3.2621 1.4605-3.2621 3.2621v21.686c-1.2e-6 1.8017 1.4605 3.2622 3.2621 3.2622z"/>
</svg>
