<?xml version="1.0" encoding="UTF-8"?>
<svg viewBox="0 0 100 100" xml:space="preserve" xmlns="http://www.w3.org/2000/svg">
	<path d="m9.3756 64.596h15.925c0.68066 0 1.3455 0.20575 1.9071 0.59036l20.764 14.218c2.2402 1.534 5.2828-0.070136 5.2828-2.7852v-53.237c0-2.7151-3.0425-4.3192-5.2828-2.7852l-20.764 14.218c-0.56163 0.3846-1.2265 0.59043-1.9071 0.59043h-15.925c-1.8643 0-3.3756 1.5113-3.3756 3.3756v22.44c0 1.8643 1.5113 3.3756 3.3756 3.3756z"/>
	<path d="m63.973 61.058c0.48897 0.48897 1.1295 0.73346 1.7701 0.73346 0.64055 0 1.2811-0.24449 1.7701-0.73346l9.0551-9.0546 9.0551 9.0546c0.48897 0.48897 1.1295 0.73346 1.7701 0.73346 0.64055 0 1.2811-0.24449 1.7701-0.73346 0.97794-0.97733 0.97794-2.5628 0-3.5401l-9.055-9.0545 9.055-9.0545c0.97794-0.97733 0.97794-2.5628 0-3.5401-0.97794-0.97794-2.5622-0.97794-3.5401 0l-9.0551 9.0546-9.0551-9.0546c-0.97794-0.97794-2.5622-0.97794-3.5401 0-0.97794 0.97733-0.97794 2.5628 0 3.5401l9.055 9.0545-9.055 9.0545c-0.97794 0.97733-0.97794 2.5628 0 3.5401z"/>
</svg>
