<svg xmlns="http://www.w3.org/2000/svg" xml:space="preserve" width="80" height="100"><path style="opacity:1;fill:none;fill-opacity:1;stroke:#5fd35f;stroke-width:10;stroke-linecap:square;stroke-linejoin:miter;stroke-miterlimit:4;stroke-dasharray:none;stroke-dashoffset:0;stroke-opacity:1;paint-order:normal" d="M25.312 30.65c1.852.17 3.715.193 5.57.329.583.042 1.165.104 1.748.155 3.773.318 7.51.923 11.238 1.569 3.06.518 6.117 1.049 9.17 1.607 2.078.425 4.187.65 6.289.921 1.35.198 2.695.437 4.046.63 1.314.15 2.618.37 3.936.494 1.018.094 2.05.117 3.05.345.695.17 1.393.33 2.086.507.514.094.981.33 1.473.496.662.239 1.339.426 2.016.614.456.184.848.22.77.804-1.721 1.84-3.906 1.825-6.145 1.99-4.111.246-8.231.082-12.342-.088A255.686 255.686 0 0 1 43.2 39.945c-3.606-.383-7.18-.995-10.77-1.487-2.054-.335-4.13-.455-6.203-.596a52.358 52.358 0 0 0-5.349-.127c-1.648.078-3.287.263-4.932.385-1.133.08-2.268.114-3.403.135-.758.05-1.51-.043-2.264-.095-1.016-.031-2.017-.222-3.023-.35-.167-.066-.361-.012-.53-.067-.034-.01-.11-.046-.082-.067a38.259 38.259 0 0 1 2.406-1.64c.072-.045.17-.012.254-.018l.373-.023c1.936-.149 3.846.245 5.733.618 2.608.538 5.203 1.129 7.842 1.496 2.03.282 2.752.32 4.806.504 4.696.339 9.406.372 14.11.508 3.554.076 7.092.426 10.61.914 2.73.39 5.424.98 8.145 1.418 2.11.368 4.248.52 6.381.676 1.438.172 2.876.243 4.323.214.708-.025 1.416-.058 2.124-.074.352-.021.7.058 1.04.147.098.085.201.173.194.323-.01.22-.139.32-.327.423-.935.516-1.888 1-2.832 1.499-.258.047-.513.106-.772.143-1.478.206-2.983.246-4.47.321-.629.032-4.091.199-4.602.223-5.725.235-11.451.426-17.174.712-4.544.222-9.09.416-13.637.594-3.017.151-6.037.237-9.055.372-2.203.079-4.404.206-6.59.503-1.482.229-2.96.513-4.403.925-.802.229-1.572.496-2.363.76-2.16.76-4.314 1.534-6.5 2.212-1.989.592-4.007 1.057-6.038 1.474-1.152.23-2.308.443-3.449.723-.067.015-.411.106-.512.089-.251-.045-.298-.353-.243-.553.022-.077.071-.144.107-.216.362-.554.869-.956 1.416-1.311 1.1-.661 2.184-1.426 3.416-1.836.44-.147.898-.25 1.345-.37 1.626-.455 3.316-.6 4.993-.724 2.933-.167 5.873-.168 8.81-.183a91.446 91.446 0 0 1 8.966.423c2.574.205 5.137.505 7.693.872 2.197.346 4.4.653 6.592 1.032 1.783.303 3.543.701 5.274 1.222 1.312.402 2.578.933 3.87 1.393 1.217.425 2.437.841 3.687 1.157 1.378.367 2.772.668 4.16.998 1.308.29 2.608.613 3.912.919.976.24 1.955.474 2.952.613.684.084 1.375.098 2.064.1.547-.022 1.087.075 1.631.122 1.875.156 1.864-.4-1.2 1.723-1.398.143-2.821.025-4.223-.046-3.372-.144-6.736-.425-10.103-.653-3.86-.262-7.715-.579-11.579-.759-3.432-.142-6.868-.158-10.302-.17-3.155-.013-6.31.046-9.465-.065-2.649-.142-5.302-.194-7.953-.09-1.805.1-3.604.26-5.412.287-.037.004-.326.018-.404.073-.018.013-.038.075-.02.063 2.087-1.417 1.428-1.667 2.596-1.623.499.037.99-.078 1.48-.15.499-.074.88-.115 1.391-.176 3.207-.232 6.419-.004 9.615.261 3.806.324 7.596.801 11.37 1.39 1.902.384 3.87.55 5.728 1.138.08.066.184.11.238.198.096.156.086.45-.09.564-1.977 1.282-2.107 1.491-3.784 1.806a302.31 302.31 0 0 0-8.603 1.4c-3.837.692-7.697 1.278-11.477 2.246-.281.098-.57.177-.844.293-.16.067-.606.339-.454.255.75-.415 1.488-.855 2.251-1.248.056-.029.126-.013.188-.008.176.017.348.06.524.073.262.021.526.022.788.032 2.435.061 4.838.44 7.239.813 4.294.668 1.986.314 6.293.967 2.442.381 4.894.71 7.328 1.143.607.108 1.753.296 2.396.564.142.06.252.177.378.266-.046.138-.012.343-.14.416-1.01.58-2.067 1.094-3.167 1.48-.455.16-.96.095-1.44.139-.717.065-1.435.129-2.152.19-8.556.722 3.565-.325-6.288.53-6.655.543-13.305 1.126-19.945 1.824-.686.09-1.997.235-2.76.417-.152.036-.56.255-.436.162 2.395-1.776 1.685-1.558 3.696-1.626 4.373-.256 8.749-.455 13.126-.63 2.671-.1 5.343-.184 8.015-.27 1.471-.048 2.935-.116 4.407-.065.116.025.44-.001.348.075a15.262 15.262 0 0 1-2.51 1.73c-.246.132-.557.045-.834.074-.453.048-.906.1-1.358.159-1.932.252-2.144.308-4.2.65-3.722.712-7.405 1.631-11.025 2.748-1.532.473-2.646.872-4.134 1.388 1.456-.999-2.787 1.337-2.11.965.693-.38 1.412-.715 2.082-1.134.067-.042.017-.184.088-.22.17-.085.374-.068.56-.106.32-.064.637-.133.955-.199 4.196-.905 8.46-1.43 12.722-1.91 2.008-.21 4.017-.41 6.032-.543.254-.017 1.639-.109 2.044-.092.14.006.276.048.413.072.032.108.187.257.097.324-.859.631-1.8 1.146-2.75 1.628-.24.121-.526.113-.789.167-.385.08-.772.15-1.156.232-1.56.333-1.775.403-3.416.812-4.123 1.104-8.115 2.635-12.04 4.301-.356.17-1.39.736-1.069.507.5-.355 1.054-.633 1.61-.892.091-.042-.204.132-.19.232.01.073.14-.059.213-.06.24-.005.478.034.717.042.388.013.776.014 1.163.021.662.017 1.324.038 1.986.05 3.026.056 6.05.09 9.075.22 2.543.107 3.67.19 6.164.346 2.012.19 4.04.257 6.044.526.302.04 1.32.169 1.679.417.107.074.135.223.203.334-.082.151-.101.361-.246.453-.984.623-2.022 1.16-3.078 1.653-.392.183-.831.245-1.248.364-.587.169-1.175.33-1.762.499-2.61.746-2.04.586-4.816 1.428-4.985 1.595-9.9 3.401-14.794 5.26 1.578-.972-1.808.836-1.428.504a25.058 25.058 0 0 1 2.282-1.762c.137-.094.32-.092.48-.14 1.39-.415.373-.132 2.081-.578 4.022-.939 8.116-1.518 12.188-2.192 1.517-.291 3.055-.486 4.56-.843.191-.045.726-.282.567-.166-1.956 1.412-1.508 1.272-2.743 1.518-.31.015-.62.016-.93.043-1.018.092-2.07.267-3.072.45-2.244.41-4.461.926-6.678 1.46-1.982.52-3.98.99-5.926 1.637-.367.122-.733.25-1.089.403-.183.078-.694.392-.523.29.76-.455 1.526-.899 2.29-1.348.098-.06.183-.152.295-.179.282-.068.577-.06.865-.1.445-.061.89-.132 1.334-.202 1.888-.3 3.77-.636 5.658-.937 1.709-.263 3.415-.549 5.127-.788.26-.037 1.521-.207 1.9-.208.131 0 .259.041.389.062.018.125.157.304.053.376-.909.635-1.905 1.143-2.908 1.616-.33.156-.71.178-1.065.26-.508.118-1.016.23-1.525.34-1.66.36-2.356.495-4.06.841-3.119.583-6.21 1.345-9.353 1.8-.073.009-.273.072-.217.027a30.623 30.623 0 0 1 2.334-1.717c.095-.062.226-.02.34-.03.165-.016.33-.034.495-.049.61-.055.607-.05 1.24-.09 2.799-.13 5.598.026 8.391.198 3.607.265 7.212.584 10.808.976.692.082 1.384.16 2.072.274.164.028.342.04.48.14.515 1.153-1.638 1.654-2.723 1.759L34.593 95v0c.995-.223 1.413-.923-2.027 1.268-.03.02.065.036.092.061.032.03.056.068.085.102-.743-.23-1.525-.323-2.288-.457a145.114 145.114 0 0 0-10.675-1.05c-2.863-.14-5.731-.23-8.593-.012-.59.048-1.187.084-1.768.199-.118.023-.439.17-.349.09 1.897-1.675 1.225-1.671 2.243-1.629.976-.078 1.94-.236 2.904-.406 2.065-.364 4.119-.792 6.172-1.214 1.736-.37 2.46-.513 4.152-.92a52.027 52.027 0 0 0 1.593-.403c.38-.104 1.365-.66 1.13-.344-1.062 1.434-2.493.937-1.502 1.236-.659-.133-1.41.008-2.064.085-1.68.197-3.352.46-5.023.718-1.926.317-3.843.67-5.763 1.016-.048.009-2.08.39-2.38.378-.208-.009-.397-.127-.595-.19.774-.522 1.534-1.065 2.322-1.565.261-.165 1.406-.502 1.462-.519 1.922-.574 3.874-1.038 5.815-1.537 2.347-.567 2.321-.576 4.66-1.08 1.768-.38 3.548-.766 5.349-.967.336-.038.675-.05 1.013-.075.219.04.809-.045.657.117-.628.67-1.468 1.106-2.25 1.584-.142.086-.325.06-.488.089-.348.06-.697.118-1.046.174-1.116.182-2.234.353-3.35.538-4.12.66-8.264 1.256-12.305 2.315-.944.276-1.327.367-2.192.688-.177.066-.659.346-.521.218 1.877-1.749 1.55-1.466 3.263-2.005 4.864-1.746 9.723-3.513 14.635-5.12 4.13-1.295 1.173-.376 4.956-1.532.615-.188 1.232-.372 1.845-.568.44-.14 1.468-.879 1.314-.443-.204.578-2.397 1.335-1.144.883-.015-.066.007-.155-.045-.196-.335-.263-1.186-.406-1.491-.46-1.92-.345-3.873-.463-5.807-.68-2.6-.196-3.42-.28-6.093-.387-3.799-.152-7.6-.127-11.4-.016-.414.005-.828.025-1.242.013-.281-.008-.574.017-.84-.073-.387-.13-.664-.436-.223-.725 2.037-1.334 2.264-1.392 3.904-2.123 3.927-1.595 7.903-3.09 11.992-4.22.647-.17 1.292-.344 1.94-.508.935-.237 1.88-.431 2.814-.674.276-.072 1.026-.44.82-.244-1.464 1.392-2.66 1.089-1.72 1.294-.715-.166-1.491-.097-2.216-.07-1.962.074-3.919.245-5.872.44-4.35.49-8.697 1.074-12.955 2.117-.064.014-1.45.366-1.708.308-.154-.035-.479-.207-.359-.31 1.305-1.134 2.894-1.785 4.481-2.37 4.956-1.624 9.98-3.044 15.102-4.046.806-.148 1.611-.303 2.419-.444 1.127-.197 2.263-.347 3.39-.546.298-.053 1.075-.425.889-.186-1.407 1.808-1.228 1.808-2.142 1.42-.275-.028-.55-.071-.827-.085-.837-.04-2.582-.016-3.324-.007-2.643.034-5.286.102-7.927.21-4.486.207-8.97.463-13.444.867-.319.023-.637.056-.956.068-.196.008-.722.136-.589-.008.61-.657 1.386-1.14 2.124-1.65.1-.069.24-.047.36-.062.817-.105 1.765-.179 2.561-.25 6.589-.524 13.176-1.063 19.756-1.684 1.385-.144 4.985-.512 6.49-.685a115.62 115.62 0 0 0 2.266-.28c.511-.068 1.502-.745 1.53-.23.067 1.261-2.432 1.101-1.108 1.144-.08-.08-.138-.189-.239-.242-.6-.317-1.606-.52-2.202-.652-2.357-.518-4.745-.882-7.124-1.278-4.606-.7-9.23-1.458-13.902-1.482-.321-.012-1.11.001-1.46-.148-.156-.067-.52-.196-.399-.315 1.18-1.16 2.171-1.644 3.587-2.034 3.752-.848 7.561-1.4 11.338-2.123 2.944-.546 5.892-1.07 8.84-1.592.211-.052.426-.094.634-.158.164-.05.622-.28.48-.184-.649.438-1.345.801-2.008 1.216-.093.059.31-.12.295-.162-.02-.063-.1-.088-.149-.131-1.775-.635-3.669-.859-5.506-1.24a133.843 133.843 0 0 0-11.298-1.416c-3.252-.246-6.528-.44-9.78-.075-.996.145-1.995.377-3.005.355-1.264-.133.148-.482 1.842-1.746.018-.014.412.057.444.02 1.758.05 3.51-.115 5.263-.192 2.649-.1 5.299-.03 7.945.12 3.139.118 6.28.073 9.42.087 3.43.014 6.86.034 10.287.194 3.856.201 7.701.531 11.553.783 3.413.218 6.824.472 10.244.544 1.443.04 2.914.144 4.342-.105-.688.54-1.36 1.1-2.065 1.618-.034.025-.084-.007-.127-.01l-.201-.012c-.288-.018-.576-.035-.864-.06-.54-.05-1.08-.115-1.625-.1-.688-.019-1.377-.05-2.059-.15-.99-.163-1.964-.407-2.937-.651-1.295-.32-2.59-.64-3.89-.933-1.392-.328-2.79-.633-4.173-.996-1.254-.327-2.484-.738-3.704-1.175-1.281-.463-2.539-.993-3.842-1.396a43.477 43.477 0 0 0-5.206-1.229c-2.187-.372-4.381-.695-6.572-1.038-2.54-.37-5.088-.685-7.648-.889-2.967-.28-5.943-.442-8.925-.422-2.955.018-5.913.03-8.862.247-1.708.159-3.423.347-5.072.844-.449.124-.903.24-1.34.404-.907.341-2.522 1.357 1.281-.839-.541.323-1.057.672-1.44 1.184-.04.052-.078.106-.123.155a.493.493 0 0 1-.09.08c-.008.006-.044.004-.033.002.183-.023.365-.051.544-.1 1.112-.244 2.239-.425 3.356-.644a65.741 65.741 0 0 0 6.006-1.483c2.173-.678 4.316-1.446 6.467-2.191 2.23-.735 4.49-1.377 6.827-1.67 2.176-.285 4.367-.393 6.56-.453 2.993-.111 5.986-.192 8.978-.313 4.491-.128 8.983-.272 13.471-.477 5.743-.266 11.49-.445 17.23-.755 1.431-.087 3.251-.194 4.696-.295 1.537-.107 3.103-.183 4.619-.481.27-.053.532-.136.799-.204-.621.387-1.249.764-1.864 1.16-.08.053.17-.092.26-.124.06-.021.133.014.188-.017.016-.01-.072-.03-.054-.018a2.997 2.997 0 0 0-.966-.105c-.692.013-1.384.035-2.077.036-1.432 0-2.856-.104-4.279-.274-2.12-.177-4.243-.349-6.338-.733-2.701-.456-5.378-1.045-8.088-1.45-3.485-.49-6.987-.854-10.506-.956-4.69-.16-9.384-.225-14.066-.557-2.063-.182-2.802-.223-4.845-.495-2.677-.357-5.315-.927-7.97-1.414-1.939-.33-3.902-.667-5.874-.427-.127.017-.256.028-.382.051-.086.016-.32.118-.252.064 2.055-1.617 1.366-1.712 2.635-1.5.994.15 1.988.324 2.997.344.754.044 1.509.085 2.265.07a54.552 54.552 0 0 0 3.34-.11c1.64-.116 3.277-.301 4.921-.36a57.537 57.537 0 0 1 5.362.146c2.052.14 4.1.324 6.129.674 3.536.552 7.06 1.182 10.619 1.582 4.975.537 9.966.906 14.967 1.095 4.18.146 8.374.267 12.548-.1.935-.096 1.874-.182 2.798-.36.173-.033.657-.224.515-.12-1.517 1.123-2.813 1.42-1.775 1.163.391-.159-.405-.331-.5-.393-.677-.202-1.356-.398-2.026-.626-.484-.17-.96-.36-1.461-.478-.685-.186-1.376-.344-2.066-.507-.983-.204-1.99-.256-2.987-.35-1.319-.133-2.626-.35-3.943-.504-1.342-.197-2.678-.433-4.017-.648-2.077-.294-4.16-.56-6.214-.99a593.26 593.26 0 0 0-9.087-1.662c-3.724-.66-7.461-1.26-11.236-1.542a102.454 102.454 0 0 0-7.555-.288l2.236-1.625z"/><path style="opacity:1;fill:none;fill-opacity:1;stroke:#fff;stroke-width:10;stroke-linecap:square;stroke-linejoin:miter;stroke-miterlimit:4;stroke-dasharray:none;stroke-dashoffset:0;stroke-opacity:1;paint-order:normal" d="M70.062 10.1c-.748-.248-1.52-.35-2.302-.42-1.583-.083-3.165-.169-4.75-.223a109.902 109.902 0 0 0-4.13-.043c-.22.025-.444-.013-.664.009-.061.006-.233.072-.18.041l2.325-1.277c-.061-.06-.069-.033-.04-.078.652.301 1.354.46 2.023.725 1.552.735 2.95 1.755 4.386 2.69.642.438 1.335.798 1.987 1.221.188.122.515.332.644.546.05.083.056.185.084.278-.033.1-.012.242-.1.3-.87.577-1.78 1.093-2.71 1.563-.133.067-1.267.172-1.326.177-.616.051-1.178.07-1.795.097-1.348.09-2.702.118-4.047.255-.022.027-.096.102-.066.082.793-.527 1.549-1.112 2.363-1.608.068-.042.16.016.24.023.12.01.242.022.364.03.394.028.655.035 1.06.05 2.101.035 4.2.124 6.297.266 2.12.152 4.246.272 6.354.555.185.027.802.118 1.023.159.088.016.186.011.263.057.093.057.24.354.09.449-.848.542-1.769.962-2.654 1.443-1.171.145-2.349.226-3.528.279-1.493.096-2.987.17-4.477.301-.745.066-1.49.121-2.235.163l2.215-1.626v0c.727-.029 1.453-.07 2.178-.132 1.485-.115 2.974-.166 4.46-.279 1.191-.07 2.395-.138 3.564-.388-.7.425-1.435.798-2.102 1.275-.058.042.131.06.199.086.006.002.025-.002.019-.004-.387-.13-.798-.162-1.194-.247-2.07-.32-4.16-.473-6.248-.605a98.649 98.649 0 0 0-6.403-.178c-.497-.01-1.001-.008-1.496-.065-.098-.011-.366.02-.294-.048 1.857-1.752 1.248-1.823 2.226-1.671 1.316-.025 2.63-.104 3.943-.175.854-.048 1.724-.074 2.564-.251.196-.041.738-.286.579-.164-.843.65-2.75 1.642-1.768 1.128.003-.052.031-.11.01-.157-.087-.186-.42-.42-.551-.513-.626-.448-1.304-.82-1.936-1.258-1.43-.932-2.834-1.943-4.418-2.598-.724-.248-1.51-.377-2.167-.78-.047-.063-.107-.118-.142-.188-.027-.055-.09-.147-.04-.18 2.236-1.421 1.767-1.414 3.32-1.374 1.355.03 2.71.053 4.065.1 1.605.057 3.21.126 4.814.195.815.073 1.618.195 2.405.426l-2.3 1.561z"/><path style="opacity:1;fill:none;fill-opacity:1;stroke:#fff;stroke-width:10;stroke-linecap:square;stroke-linejoin:miter;stroke-miterlimit:4;stroke-dasharray:none;stroke-dashoffset:0;stroke-opacity:1;paint-order:normal" d="M43.403 6.825c.434-.03.855-.151 1.29-.184.388-.03.524-.006.926.02 1.486.151 2.923.579 4.316 1.103 1.069.42 2.15.824 3.076 1.516.253.225.45.477.5.816.058.555-.343.845-.766 1.115-.924.51-1.831 1.053-2.772 1.534-.181.092-.388.125-.585.18-.757.21-.773.192-1.586.342l-1.973.367c-1.603.33-3.237.517-4.816.955-.089.047-.354.19-.267.14l2.268-1.287c-.007-.035-.05-.083-.022-.104.007-.005.818.032.857.032.135-.005.27-.004.405-.014.889-.069-.083-.032.872-.1.626-.044 1.253-.017 1.879.009 1.8.162 3.576.503 5.335.904 1.485.326 2.933.778 4.382 1.234.626.189 1.266.327 1.902.481.409.1.673.112 1.02.34l-2.326 1.497v0c-.277-.164-.603-.226-.911-.309-.629-.17-1.264-.315-1.885-.511-1.44-.453-2.882-.894-4.355-1.227-1.749-.41-3.52-.758-5.317-.852-.676-.005-.747-.016-1.385.017-.473.025-.94.102-1.413.125-.138.007-.277.005-.416.007-.222-.01-.526-.01-.745-.071-.19-.053-.602-.27-.445-.39 1.635-1.243 1.635-1.22 2.724-1.57 1.567-.352 3.163-.55 4.735-.875.955-.182 1.924-.34 2.868-.575.247-.062.492-.134.734-.213.2-.066.763-.34.59-.22-.604.422-1.267.755-1.9 1.133.338-.178.84-.351.839-.807.004-.269-.157-.46-.348-.64-.868-.701-1.922-1.089-2.949-1.5-1.39-.51-2.83-.918-4.318-.998-.759-.004-1.496.108-2.242.244l2.224-1.664z"/><path style="opacity:1;fill:none;fill-opacity:1;stroke:#5fd35f;stroke-width:3;stroke-linecap:square;stroke-linejoin:miter;stroke-miterlimit:4;stroke-dasharray:none;stroke-dashoffset:0;stroke-opacity:1;paint-order:normal" d="M54.429 48.955c.672-.076 1.338-.18 2.014-.228a36.329 36.329 0 0 1 3.785-.014c1.418.07 2.837.102 4.257.115.954.045 1.909.077 2.855.216.557.056 1.106.157 1.659.238.559.044 1.108.152 1.665.219.488.04.98.089 1.468.032.564-.04 1.112-.186 1.671-.261.499-.053.995-.07 1.49-.151.416-.026.809-.122 1.21-.226.21-.04.104-.023.317-.05l-2.22 1.67v0c-.202.041-.101.019-.302.068-.4.1-.809.132-1.215.194-.493.065-.991.07-1.483.146-.56.093-1.118.214-1.686.247a9.307 9.307 0 0 1-1.502-.078c-.555-.08-1.108-.167-1.665-.225-.55-.087-1.1-.165-1.65-.243-.92-.14-1.85-.184-2.778-.227-1.42-.026-2.84-.059-4.258-.123-1.267-.044-2.536-.042-3.8.068-.689.07-1.372.178-2.055.285l2.223-1.672zM50.824 22.57c.147.318.263.648.347.987.051.215.088.433.103.654-.005.17.028.336.05.503.014.187.037.369.077.55.03.164.049.33.056.496.032.204.092.402.127.606.064.29.11.583.13.88.014.31.02.62.025.931l.003.588c.004.157-.005.314.005.47.036.267.063.531.048.8-.017.206-.034.412-.045.619-.006.139-.004.278-.016.416-.04.198-.063.398-.076.6a20.59 20.59 0 0 0-.015.588c-.001.27-.002.54 0 .81.003.23.001.461.001.692 0 .262.006.523-.023.784l-.038.3-1.243.613v0c.013-.1.03-.201.044-.302a4.56 4.56 0 0 0 .03-.768v-.693c.003-.27.001-.54 0-.81-.002-.198-.007-.396.007-.594.012-.203.026-.407.067-.607.029-.133.007-.27.021-.405.012-.21.034-.418.055-.626.02-.261.005-.518-.043-.776-.022-.159-.02-.32-.016-.48l.005-.592c.002-.309.004-.618-.014-.927a5.233 5.233 0 0 0-.128-.866c-.035-.21-.1-.408-.147-.615a3.105 3.105 0 0 0-.043-.475 3.204 3.204 0 0 1-.078-.562c-.022-.17-.068-.339-.062-.512a3.411 3.411 0 0 0-.421-1.589l1.207-.687zM63.523 23.012a33.564 33.564 0 0 1-.597 1.593c-.151.375-.324.741-.496 1.107-.065.164-.162.311-.245.467a4.085 4.085 0 0 0-.366.866c-.117.42-.216.846-.286 1.277-.08.382-.106.771-.15 1.158-.035.385-.097.767-.143 1.15-.054.324-.089.649-.145.971a5.124 5.124 0 0 0-.08.733c-.02.199.015.393.052.588.056.239.095.481.16.718.071.266.12.537.178.806.038.116.028.249.071.363l-1.218.681v0c-.052-.123-.034-.264-.07-.393-.051-.267-.103-.534-.172-.797-.07-.239-.11-.483-.165-.725a1.899 1.899 0 0 1-.071-.619c.01-.252.033-.504.078-.753.063-.32.098-.643.154-.965.045-.384.119-.765.148-1.152.045-.388.067-.78.148-1.163.066-.437.173-.866.281-1.294.08-.306.183-.6.328-.882.088-.156.183-.306.26-.468.193-.36.358-.737.526-1.109.212-.511.421-1.025.57-1.559l1.25-.599z"/><path d="M31.493 72.194c.018-.366-.552-.365-.568 0-.039.834.457 1.512 1.083 2.011.282.226.687-.172.402-.402-.512-.407-.948-.918-.917-1.609zM28.87 70.945c0-.247-.003-.495.053-.737.082-.356-.465-.507-.547-.15-.068.292-.073.59-.073.887 0 .367.568.367.568 0zM29.114 72.632v.75c0 .366.568.366.568 0v-.75c0-.367-.568-.367-.568 0zM31.677 77.565c.241.357.497.704.674 1.103.148.334.637.044.49-.287-.177-.399-.432-.744-.675-1.104-.201-.301-.694-.019-.49.288zM31.785 80.393a4.5 4.5 0 0 0 1.301.194c.368.004.367-.564 0-.568a3.86 3.86 0 0 1-1.15-.174c-.35-.112-.498.436-.15.548zM33.086 81.998c-.187.411-.526.708-.814 1.046-.234.278.164.682.402.4.317-.374.696-.707.903-1.16.152-.33-.338-.619-.49-.286zM32.023 81.407c-.295.19-.604.321-.96.329-.365.008-.366.575 0 .567.453-.009.868-.162 1.247-.405.308-.2.023-.691-.287-.49zM33.426 84.58c-.063.474-.181.937-.244 1.41-.05.357.499.512.547.15.064-.473.182-.936.245-1.41.048-.357-.499-.511-.548-.15zM7.153 77.443c-.487-.013-.824-.3-1.042-.718-.17-.325-.66-.036-.49.287.312.598.85.982 1.532 1 .367.009.366-.56 0-.569zM7.323 83.642c.342.131.488-.418.15-.548-.426-.165-.84-.419-1.118-.789-.216-.29-.71-.008-.49.286.375.501.88.825 1.458 1.05zM8.134 80.772c-.218-.372-.507-.724-.584-1.16-.065-.359-.612-.206-.548.152.086.485.4.88.642 1.293.184.318.675.032.49-.285zM30.267 69.901c-.366 0-.366.57 0 .57.367 0 .366-.57 0-.57zM31.124 75.742c.367 0 .367-.568 0-.568-.365.001-.365.568 0 .568zM30.88 77.689c-.366 0-.366.568 0 .568s.366-.568 0-.568zM32.535 84.617c-.367 0-.367.567 0 .567.366 0 .366-.567 0-.567zM34.374 89.537c.367 0 .367-.568 0-.568-.366 0-.366.568 0 .568zM31.739 88.8c.366 0 .366-.567 0-.567-.367 0-.367.568 0 .568zM31.37 84.922c-.367 0-.367.568 0 .568s.367-.568 0-.568zM34.252 92.664c.367 0 .367-.568 0-.568-.366 0-.366.568 0 .568zM5.512 86.462c.45-.135.857-.337 1.228-.626.29-.223-.116-.622-.4-.4-.29.227-.628.375-.98.479-.35.103-.2.651.152.547zM5.784 88.824c-.163.082-.32.181-.41.346a.29.29 0 0 0 .102.39c.13.076.316.033.39-.102a.176.176 0 0 1 .015-.028l.002-.002a.16.16 0 0 1 .025-.023c.05-.035.107-.062.162-.09.139-.068.176-.26.102-.39-.082-.139-.25-.17-.388-.101zM5.498 88.004c.366 0 .366-.566 0-.566s-.366.566 0 .566zM6.785 92.403c-.366 0-.366.568 0 .568.367 0 .367-.568 0-.568zM5.682 91.054c-.367 0-.367.568 0 .568.366-.001.366-.568 0-.568zM33.349 90.067c.242-.273-.159-.675-.401-.4-.437.49-.926.923-1.537 1.181-.337.142-.047.63.286.488.65-.274 1.188-.746 1.652-1.269zM34.028 93.485c-.242-.188-.433-.428-.675-.614-.123-.096-.318-.02-.388.1-.086.148-.02.295.101.39.24.187.433.427.675.613.123.096.318.02.388-.102.086-.146.02-.293-.101-.387zM35.417 93.89c.367 0 .367-.568 0-.568-.366 0-.366.569 0 .569zM32.658 95.161c-.367 0-.367.568 0 .568.366 0 .366-.568 0-.568zM5.376 94.119c-.366 0-.366.568 0 .568.367 0 .365-.568 0-.568zM7.52 93.83c-.203-.3-.694-.019-.49.287.248.366.532.71.737 1.104.168.325.659.037.49-.286-.205-.394-.488-.737-.736-1.105zM7.492 88.931a4.201 4.201 0 0 1-.706 1.527c-.216.298.276.58.49.287.364-.5.622-1.06.764-1.662.083-.357-.464-.507-.548-.152zM5.682 84.326c.366 0 .366-.57 0-.57-.367.002-.367.57 0 .57zM7.582 71.312c-.367 0-.367.568 0 .568.366 0 .366-.568 0-.568zM7.644 76.295c.366 0 .366-.568 0-.568-.367 0-.367.568 0 .568zM8.747 72.662c-.366 0-.366.567 0 .567s.366-.567 0-.567z"/><path d="M78.057 47.505a6.256 6.256 0 0 1-1.233-.393c.03-.326.046-.664.046-1.015v-.016a4.82 4.82 0 0 0-.077-.724c.16-.038.315-.103.458-.204.296-.21.015-.702-.288-.49a.914.914 0 0 1-.3.143 7.738 7.738 0 0 0-.609-1.486c.267-.083.52-.199.76-.353.306-.198.023-.69-.286-.49a2.656 2.656 0 0 1-.762.334c-.263-.439-.57-.885-.917-1.334.293-.207.01-.692-.292-.486-.021.014-.04.03-.063.044a23.704 23.704 0 0 0-1.653-1.79l-.068-.063c.537-.299 1.099-.548 1.616-.881.305-.198.022-.691-.286-.49-.565.364-1.185.627-1.764.965-.405-.37-.843-.735-1.304-1.095.23-.162.417-.372.572-.622.193-.314-.3-.6-.49-.287-.134.22-.316.437-.557.546a29.468 29.468 0 0 0-1.136-.808c.406-.3.798-.62 1.161-.977.261-.258-.14-.658-.4-.402-.394.387-.82.727-1.263 1.046a34.67 34.67 0 0 0-.765-.485c.237-.309.438-.633.614-.98.163-.326-.324-.615-.49-.288a5.42 5.42 0 0 1-.57.924.315.315 0 0 0-.031.05c-.253-.151-.505-.302-.762-.451.31-.334.62-.677.943-1.006.258-.26-.143-.662-.4-.4-.358.363-.695.748-1.044 1.124a50.825 50.825 0 0 0-2.32-1.223c.103-.053.202-.115.288-.196.265-.253-.136-.653-.4-.402a.778.778 0 0 1-.192.119c-.104.05-.208.098-.313.15-.01.002-.016.01-.024.015-.212-.103-.425-.209-.64-.308.215-.356.464-.687.826-.904.314-.187.028-.677-.286-.49-.274.165-.499.38-.695.623.032-2.744.545-5.874 2.192-9.546.257-.034.509-.1.75-.204.52-.219 1.22-.7 1.702-1.754 3.615-.49 6.41-3.593 6.41-7.339 0-3.078-1.889-5.725-4.567-6.84v-.02h-.038a7.367 7.367 0 0 0-2.803-.553c-4.085 0-7.407 3.323-7.407 7.408a7.394 7.394 0 0 0 2.736 5.744c-.292.902-.08 1.73.392 2.358-1.668 3.627-2.622 6.817-2.996 9.936-.368-.131-.742-.258-1.118-.382v-1.44c0-.366-.567-.366-.567 0v1.257a52.99 52.99 0 0 0-2.388-.696c.261-.487.555-.93.999-1.296.283-.234-.121-.632-.4-.402-.525.43-.86.968-1.165 1.551-.477-.12-.953-.235-1.428-.34-.099-2.767-.478-5.06-1.267-8.027.817-.61 1.201-1.513 1.082-2.549l-.02.003a8.076 8.076 0 0 0 3.798-6.844C56.558 7.622 52.935 4 48.482 4c-4.452 0-8.074 3.622-8.074 8.074 0 3.814 2.66 7.017 6.222 7.858.155.876.688 1.557 1.528 1.931.1.044.202.082.307.115.702 2.652.92 4.491.871 6.861-.477-.069-.961-.134-1.45-.198.144-.4.29-.8.401-1.21.095-.355-.453-.505-.549-.151-.115.438-.274.863-.427 1.29a92.574 92.574 0 0 0-1.512-.175v-2.414c0-.366-.568-.366-.568 0v2.354a85.67 85.67 0 0 0-2.172-.185c-.158-.358-.33-.71-.383-1.107-.048-.358-.617-.362-.57 0 .054.386.188.725.328 1.066a62.499 62.499 0 0 0-3.807-.125c.15-.287.318-.565.45-.86.147-.331-.342-.62-.49-.287-.176.395-.403.762-.588 1.15-.776.008-1.55.032-2.314.077a9.52 9.52 0 0 0 .235-1.825c.007-.366-.56-.365-.567 0-.012.635-.119 1.25-.256 1.861-.615.046-1.224.102-1.826.175-.063-.252-.14-.498-.221-.746-.115-.345-.665-.198-.548.15.074.223.144.447.202.673-.374.052-.744.11-1.11.168.05-.425.033-.857.03-1.29-.003-.366-.57-.366-.568 0 .003.465.033.931-.05 1.39-.335.057-.666.117-.991.181v-1.88c0-.366-.568-.366-.568 0v1.997c-.367.076-.728.158-1.084.242a.912.912 0 0 1-.247-.38c-.099-.353-.646-.203-.548.15.04.14.106.264.187.379-.14.035-.277.073-.416.11-.519-.604-1.056-1.191-1.482-1.868-.195-.308-.687-.023-.49.286.397.629.884 1.187 1.369 1.747a34.85 34.85 0 0 0-1.517.466 3.011 3.011 0 0 0-.241-1.002c-.152-.332-.643-.044-.49.287.129.28.17.591.183.904-.355.126-.7.258-1.041.392v-.406c0-.366-.568-.366-.568 0v.638c-.353.149-.701.302-1.041.462-.158-.656-.318-1.312-.42-1.983-.055-.361-.602-.207-.548.15.109.706.283 1.394.45 2.085-.234.118-.463.238-.691.361a1.477 1.477 0 0 1-.381-.766c-.06-.36-.607-.207-.548.15.055.34.211.639.423.897-.27.155-.537.312-.799.475-.211-.446-.246-.94-.32-1.483-.048-.361-.595-.207-.548.15.082.608.144 1.149.389 1.64-.257.168-.508.343-.757.52a5.184 5.184 0 0 1-.223-.925c-.04-.359-.61-.363-.568 0 .05.434.203.847.324 1.267-.169.127-.337.257-.503.39-.633-.698-1.246-1.413-1.908-2.084-.257-.26-.66.14-.402.402.649.656 1.251 1.357 1.871 2.042-.404.342-.795.697-1.174 1.066-.526-.178-1.047-.368-1.573-.545-.348-.117-.496.432-.15.547.428.145.853.296 1.28.444-.193.2-.383.406-.57.618-.19-.1-.36-.212-.514-.363-.26-.257-.662.145-.4.402.16.158.34.288.534.398-.161.193-.32.387-.477.586a4.79 4.79 0 0 1-1.151-.83c-.263-.253-.665.147-.401.403.36.35.765.646 1.203.882-.118.159-.234.32-.35.483-.181.039-.376.048-.554-.006-.352-.106-.502.443-.152.547.096.03.197.046.298.054-.233.348-.46.707-.682 1.077-.459-.227-.83-.548-1.054-1.053-.149-.333-.638-.044-.491.287.261.589.715.98 1.258 1.254-.236.41-.465.83-.689 1.264-1.05-.392-2.082-1.155-2.87-1.863-.272-.244-.674.156-.4.401.835.75 1.905 1.548 3.013 1.973-.092.185-.181.374-.271.563a.298.298 0 0 0-.12.059c-.394.32-.893.431-1.374.551-.355.09-.205.637.15.55.33-.084.65-.172.952-.302a40.07 40.07 0 0 0-.888 2.185 115.518 115.518 0 0 0-2.541-1.856c-.3-.213-.582.279-.287.49.882.63 1.763 1.265 2.625 1.92-.084.233-.165.471-.245.71a1.125 1.125 0 0 1-.579-.2c-.3-.212-.582.28-.285.49.205.145.438.223.682.258l-.157.485c-.35-.131-.67-.372-.961-.598-.286-.221-.691.178-.401.401.38.294.771.575 1.199.73-.136.45-.27.902-.395 1.365-.733-.072-1.457-.227-2.172-.403-.355-.088-.507.46-.15.547.715.176 1.44.33 2.174.41l-.113.446a.294.294 0 0 0-.067.008c-.237.055-.48.052-.722.052-.367 0-.367.567 0 .567.214 0 .427-.002.639-.03-.079.323-.155.649-.23.979-.293.074-.59.09-.9.09-.365 0-.365.568 0 .568.26 0 .517-.011.769-.05-.092.43-.182.866-.268 1.306a1.25 1.25 0 0 1-.603-.264c-.122-.095-.317-.02-.388.102-.087.147-.021.294.102.39.233.178.498.292.78.335l-.082.406a12.285 12.285 0 0 1-1.622-.182c-.357-.067-.51.48-.15.548.549.103 1.104.16 1.66.194l-.225 1.086a.248.248 0 0 0-.073-.058c-.079-.039-.161-.072-.242-.105-.036-.016-.072-.028-.107-.043-.006-.004-.01-.004-.014-.006l-.067-.03c-.138-.068-.306-.04-.389.101-.073.125-.037.321.102.39.079.038.16.07.242.104l.108.043a.07.07 0 0 0 .01.005c.023.01.047.02.069.032a.318.318 0 0 0 .267.01c-.088.417-.178.849-.27 1.3-.41-.18-.756-.494-1.094-.791-.274-.24-.677.162-.402.4.417.366.856.76 1.38.96-.057.273-.114.556-.171.841H4.397c-.365 0-.365.568 0 .568h1.17l-.168.857c-.787.404-1.61.53-2.535.538-.366 0-.367.57 0 .568.857-.006 1.652-.114 2.404-.42a167.89 167.89 0 0 0-.404 2.197.292.292 0 0 0-.077.049c-.43.36-.905.656-1.38.953-.309.194-.024.685.287.49.35-.219.698-.442 1.031-.684-.104.604-.206 1.23-.309 1.873a2.394 2.394 0 0 1-.49-.409c-.246-.272-.646.13-.401.402.23.253.505.446.797.609l-.15.999c-.38.212-.766.407-1.195.5-.358.076-.208.623.15.546.333-.07.643-.2.944-.35-.081.564-.161 1.14-.239 1.732a5.049 5.049 0 0 1-1.933-.282c-.345-.124-.493.426-.15.549a5.418 5.418 0 0 0 2.01.303c-.093.716-.181 1.453-.266 2.208a7.742 7.742 0 0 1-.852-.579c-.293-.22-.576.274-.287.49.345.258.691.51 1.07.697-.051.466-.1.942-.15 1.424a4.293 4.293 0 0 1-.395-.126c-.344-.126-.492.423-.15.548.161.06.325.11.489.152-.044.458-.088.927-.13 1.4a7.987 7.987 0 0 1-1.06-.477c-.32-.178-.606.311-.286.49.414.231.854.405 1.295.573-.046.55-.091 1.112-.135 1.681-.547-.093-1.075-.328-1.63-.392-.364-.04-.36.526 0 .568.547.064 1.053.29 1.588.387-.02.3-.043.604-.063.909-.723.095-1.374.443-1.976.873-.295.21-.013.704.286.49.51-.363 1.048-.675 1.651-.782-.025.391-.048.784-.072 1.182-.185.074-.38.13-.572.184-.351.101-.202.648.152.547.131-.037.26-.077.386-.12-.022.41-.043.825-.063 1.246-.23.115-.467.215-.72.29-.35.103-.201.65.152.548.186-.055.365-.122.54-.2-.032.705-.06 1.423-.085 2.154H1.148c-.366 0-.366.568 0 .568h1.31c-.026.832-.047 1.68-.064 2.544-.482.105-.973.174-1.444.332-.345.117-.197.665.152.548.417-.142.852-.212 1.282-.299a226.984 226.984 0 0 0-.028 3.52v.422l1.258.644C6.961 98.277 13.49 99 18.892 99c.672 0 1.332-.008 1.97-.022 5.771-.124 13.095-.857 16.338-2.54l.4-.208-.14-.922c-.102-.633-.2-1.254-.297-1.864.462-.01.922-.018 1.37.116.351.106.5-.44.152-.547-.528-.16-1.068-.143-1.611-.134-.046-.286-.09-.567-.133-.847a3.254 3.254 0 0 0 2.053-.874c.266-.253-.136-.653-.401-.402a2.673 2.673 0 0 1-1.74.713l-.218-1.408.033-.024c.245-.165.105-.519-.118-.538l-.08-.532c.398-.024.773-.118 1.119-.34.307-.195.023-.686-.287-.49-.29.184-.587.253-.92.266l-.224-1.497c.312.097.64.16.966.218.357.064.511-.484.15-.548-.406-.073-.83-.14-1.209-.301-.078-.538-.155-1.069-.228-1.588.658.425 1.396.724 2.077 1.12.318.186.604-.305.287-.49-.818-.476-1.74-.802-2.473-1.407-.055-.401-.11-.795-.161-1.185.207.09.42.165.637.23.353.103.502-.444.152-.547-.308-.09-.6-.208-.879-.357-.069-.517-.134-1.024-.196-1.522a3.45 3.45 0 0 0 .339-.086c.345-.114.198-.662-.15-.55a2.411 2.411 0 0 1-.259.071c-.063-.519-.123-1.028-.18-1.529.466.177.928.357 1.352.628.309.2.593-.293.285-.49-.53-.34-1.121-.546-1.706-.771-.003-.029-.005-.057-.009-.085.343-.213.667-.457.976-.72.279-.238-.124-.637-.402-.401a7.307 7.307 0 0 1-.641.488c-.051-.495-.101-.984-.144-1.465.51.115 1.016.237 1.538.298.363.04.36-.528 0-.569-.538-.06-1.063-.205-1.591-.32a85.798 85.798 0 0 1-.092-1.117c.322.196.68.344 1.032.517.327.16.615-.33.286-.49-.465-.229-1-.4-1.371-.766a92.043 92.043 0 0 1-.154-2.818c.313.216.678.341 1.057.48.346.128.492-.421.152-.546-.4-.148-.87-.263-1.142-.62a.311.311 0 0 0-.093-.08c-.012-.427-.02-.85-.025-1.27.12.03.239.058.36.08.357.07.51-.478.15-.546a5.914 5.914 0 0 1-.516-.122c-.003-.707.006-1.407.023-2.105.416.237.873.396 1.341.528.354.097.504-.45.152-.548-.523-.146-1.036-.324-1.473-.64.021-.59.046-1.177.081-1.77.14.041.28.078.423.11.357.079.508-.468.152-.547a5.819 5.819 0 0 1-.537-.147c.058-.884.136-1.773.228-2.674.506.141 1.012.286 1.52.416.356.09.506-.459.15-.547-.538-.137-1.073-.292-1.608-.442.084-.765.18-1.54.289-2.33.443.084.895.149 1.354.192.002.387.011.774.062 1.161.047.357.616.363.568 0a9.044 9.044 0 0 1-.062-1.121c.262.015.525.023.79.023h.035c.13 0 .261.004.393.012-.13.214.115.548.389.394.172-.097.345-.191.52-.284.51.09 1.037.228 1.573.4-.148.222-.298.444-.42.682-.167.325.323.612.488.286.143-.274.32-.527.488-.782.437.153.883.325 1.34.512a4.7 4.7 0 0 1-.284.19c-.31.192-.026.683.287.49.216-.133.417-.277.607-.43l.998.422.734.312a3.64 3.64 0 0 0-.14.829c-.013.365.555.364.569 0 .008-.21.04-.413.086-.615.219.091.441.18.667.27a5.66 5.66 0 0 1-.312 1.268c-.131.343.418.489.549.152a5.77 5.77 0 0 0 .303-1.205c.127.05.254.1.383.148a25.262 25.262 0 0 0-.1 1.783c-.006.367.563.366.567 0 .006-.529.042-1.054.085-1.579.732.265 1.493.516 2.278.736-.025.486-.08.966-.194 1.45-.085.355.462.506.546.15a8.67 8.67 0 0 0 .207-1.45c.548.14 1.108.264 1.68.367a1.36 1.36 0 0 0-.132.524c-.01.365.558.365.569 0a.861.861 0 0 1 .15-.427c.482.072.968.129 1.461.164.098.577.193 1.154.29 1.73.061.36.607.208.546-.152l-.256-1.546c.232.01.465.016.701.016l.111-.001c.082.193.136.398.188.602.088.354.636.206.547-.15a5.474 5.474 0 0 0-.136-.466 18.353 18.353 0 0 0 1.98-.186c.138.519.17 1.041.17 1.582 0 .365.568.365.568 0 0-.568-.035-1.128-.175-1.674.391-.07.786-.155 1.185-.252-.023.23-.027.462-.03.696 0 .366.57.366.57 0 0-.284 0-.569.05-.849.169-.046.34-.096.512-.148.043.201.096.398.17.592.131.338.68.192.548-.15a4.168 4.168 0 0 1-.175-.615c.244-.08.488-.166.737-.258.254.377.527.739.75 1.132.184.319.674.032.491-.287-.208-.367-.46-.707-.698-1.054l.118-.053c.658-.213 1.02-.784 1.155-1.484.413.086.822.202 1.226.323.352.105.501-.443.152-.547-.438-.13-.875-.25-1.32-.338a4.713 4.713 0 0 0-.084-.982c.303-.006.604-.023.905-.068.36-.056.207-.603-.151-.547a5.987 5.987 0 0 1-.902.052c-.422-1.202-1.66-2.041-2.797-2.041-8.006.045-10.571-1.174-11.313-2.2-.398-.554-.36-1.193-.196-1.834.153.054.306.112.465.17 2.555.945 5.963 2.204 15.193 2.437.018.355.007.71-.033 1.066-.043.363.526.36.567 0a6.32 6.32 0 0 0 .035-1.053c.812.016 1.668.024 2.57.024h.012v.78c0 .365.569.365.569 0v-.794c.476-.019.933-.058 1.37-.118.265.491.57.96.955 1.361.254.265.654-.137.4-.4a5.328 5.328 0 0 1-.763-1.058 9.643 9.643 0 0 0 1.194-.3c.08.214.15.433.249.64.156.33.645.04.49-.288l-.008-.014-.005-.014c-.016-.035-.027-.072-.041-.107-.033-.089-.068-.177-.1-.267-.017-.045-.035-.092-.054-.137a7.286 7.286 0 0 0 1.292-.656c.2.515.61.94.967 1.351.24.278.639-.126.4-.402-.34-.393-.736-.786-.882-1.293.366-.286.696-.606.981-.963.34.396.684.791.863 1.284.125.342.673.195.548-.152-.23-.629-.668-1.093-1.075-1.596.276-.423.503-.89.679-1.4.075.036.154.07.234.1.345.121.493-.427.151-.547a1.52 1.52 0 0 1-.22-.1c.065-.248.117-.505.16-.77a7.22 7.22 0 0 0 1.158.355c.347.094.5-.453.143-.535zM63.815 21.152c-.611-.205-1.094-.777-1.064-1.45.917.504 2.065.857 3.561.903-.447.547-.918 1.074-2.497.547zm-2.843-4.865a6.14 6.14 0 0 1-.83-3.085c0-3.043 2.22-5.577 5.124-6.07-1.356.605-2.48 1.543-3.267 2.764-1.161 1.8-1.506 4.04-1.027 6.39zm2.076-5.714c1.196-1.853 3.253-2.9 5.812-2.972a6.167 6.167 0 0 1 3.599 5.6 6.165 6.165 0 0 1-6.16 6.16 6.121 6.121 0 0 1-3.346-.993l.007-.003c-1.293-2.859-1.261-5.7.088-7.792zm-.04 11.578c.115.064.237.12.36.167.055.022.578.165.634.183-2.283 5.35-2.791 9.994-2.417 12.71-.305.101-.972.032-1.452-.191-.277-2.563.558-7.66 2.875-12.87zM51.2 36.83a1.95 1.95 0 0 1-.542.07c-.528 0-1.075-.052-1.275-.178.926-2.883 1.953-8.26.406-14.584.248-.016.493-.057.732-.12l.359-.132c1.587 6.17 1.115 12.198.32 14.943zm-8.244-20.745a6.796 6.796 0 0 1-1.305-4.008c0-3.764 3.062-6.827 6.825-6.827.164 0 .326.008.487.02a9.247 9.247 0 0 0-5.125 4.192 8.787 8.787 0 0 0-.882 6.623zm2.124 1.908c-1.489-2.595-1.546-5.47-.157-7.913a8.01 8.01 0 0 1 6.755-4.03 6.832 6.832 0 0 1 3.622 6.027 6.832 6.832 0 0 1-6.825 6.825 6.78 6.78 0 0 1-3.395-.909zm3.58 2.73c-.304-.135-.527-.331-.665-.587.16.01.319.015.48.015 1.078 0 2.39-.336 3.33-.72a1.412 1.412 0 0 1-.585.92c-.187.136-.4.353-.918.437l-.896.11a2.197 2.197 0 0 1-.747-.174ZM73.08 51.092c-.108-.28-.216-.561-.349-.832-.161-.33-.65-.042-.49.287.137.279.247.569.356.858-.601.34-1.344.599-2.262.752-.12-.187-.37-.108-.46.065-.46.054-.957.084-1.499.088h-.536c-.128-.39-.259-.781-.388-1.17-.116-.345-.665-.198-.549.15.115.338.226.676.338 1.015-.775-.007-1.513-.02-2.217-.04.257-.227.473-.495.618-.817.064-.142.043-.305-.102-.389-.121-.072-.325-.039-.388.102a2.06 2.06 0 0 1-.758.88.289.289 0 0 0-.126.2c-8.265-.29-11.41-1.45-13.787-2.33-.383-.14-.744-.276-1.105-.397l-2.422-.922-.298.743c-.265.79-.346 2.452.598 3.76 1.368 1.895 6.8 3.138 13.84 3.102.902 0 1.225.897 1.304 1.173.2.71.428 1.685-.53 2.035-.425.167-.843.314-1.254.447-.295-.475-.525-.992-.918-1.407-.252-.265-.654.136-.402.4.328.346.544.766.779 1.176a18.545 18.545 0 0 1-2.902.61 4.175 4.175 0 0 1-.268-1.002c-.055-.361-.604-.207-.549.151.049.315.126.618.235.913-.715.065-1.412.082-2.088.06-.067-.397-.132-.796-.2-1.193-.058-.36-.608-.207-.547.152.057.338.114.675.169 1.013a19.023 19.023 0 0 1-3.542-.591.3.3 0 0 0-.292-.08 23.636 23.636 0 0 1-.72-.21c.31-.39.59-.797.818-1.239.165-.326-.324-.613-.49-.287-.23.45-.51.864-.83 1.253a.328.328 0 0 0-.054.095c-.382-.126-.758-.259-1.129-.397.022-.331.038-.662.04-.994.004-.366-.565-.365-.568 0-.002.262-.013.523-.027.781-.447-.173-.889-.354-1.323-.535.08-.264.146-.531.173-.808.035-.364-.532-.361-.57 0-.02.204-.06.4-.113.596a92.85 92.85 0 0 0-.616-.262c-.185-.077-.367-.157-.55-.234.346-.449.63-.952.857-1.505.14-.339-.409-.485-.547-.15-.219.53-.5 1.007-.849 1.43-.964-.401-1.909-.77-2.834-1.045.196-.109.39-.217.583-.333.315-.185.027-.676-.288-.49a27.66 27.66 0 0 1-1.091.609 9.41 9.41 0 0 0-2.19-.276c-6.18 0-12.147-4.865-12.147-10.05l-.31.646c0 3.907 2.473 7.328 6.15 9.182-2.672-.189-6.717-1.455-7.906-4.636l-.07.718c.903 2.416 2.75 4.026 5.374 4.758-.292.223-.608.413-.923.61-.31.194-.025.684.286.49.461-.286.924-.567 1.321-.934.892.19 1.86.285 2.905.285.436 0 .569-.008 1.032-.041a72.367 72.367 0 0 0-.5 4.85c-.37-.218-.726-.463-1.074-.718-.294-.22-.578.274-.286.488.421.313.861.607 1.32.863a66.99 66.99 0 0 0-.116 4.498 3.78 3.78 0 0 1-.859-.807c-.225-.29-.623.116-.402.4.348.449.784.808 1.27 1.088.02 1.217.072 2.451.154 3.718a2.739 2.739 0 0 1-.2-.398c-.133-.337-.682-.19-.548.15.193.49.491.897.821 1.298.087 1.14.195 2.312.326 3.528-.293-.1-.58-.213-.839-.39-.303-.207-.587.286-.286.49.364.248.78.383 1.193.521.439 3.918 1.092 8.305 1.922 13.582-.189.111-.385.208-.595.277-.347.113-.198.661.152.547a3.31 3.31 0 0 0 .536-.234l.67 4.23c-2.75 1.223-8.556 2.062-15.387 2.21-6.89.148-12.99-.445-16.128-1.557.01-6.196.211-11.529.521-16.136.274.053.546.107.82.145.358.048.513-.5.151-.547-.312-.043-.622-.107-.932-.166.1-1.432.211-2.792.33-4.086.645.205 1.35.236 2.013.14.36-.052.207-.599-.15-.548a3.797 3.797 0 0 1-1.809-.171l.06-.634c.514-.057 1.02-.168 1.531-.3.353-.094.204-.64-.15-.548-.442.115-.88.214-1.321.27A163.765 163.765 0 0 1 7.382 61a7.286 7.286 0 0 0 1.67-.39c.34-.124.193-.672-.153-.547-.463.17-.935.282-1.415.347.25-1.388.48-2.615.677-3.705l.039-.19.398.002c.367 0 .367-.568 0-.569h-.282l.118-.577c.043-.226.088-.447.131-.669.28.065.565.103.853.14.363.045.358-.524 0-.57a6.572 6.572 0 0 1-.74-.127c.474-2.278 1.044-4.366 1.71-6.273.247.2.492.402.735.61.277.236.68-.164.4-.401-.307-.263-.62-.52-.934-.772.34-.925.701-1.805 1.085-2.643 1.104.13 2.168.487 3.296.404.363-.027.366-.595 0-.568-1.038.076-2.03-.222-3.045-.371a27.833 27.833 0 0 1 2.426-4.14c.517.34 1.027.692 1.536 1.044.302.208.585-.284.286-.49-.492-.342-.987-.68-1.487-1.013.273-.36.55-.708.836-1.046.175.222.347.448.56.638.272.243.675-.158.401-.402-.222-.198-.402-.437-.584-.67.217-.244.437-.483.662-.713a21.358 21.358 0 0 1 5.296-3.947c.047.34.078.683.083 1.032.006.367.574.367.568 0a9.141 9.141 0 0 0-.12-1.306 27.282 27.282 0 0 1 3.328-1.391c-.094.363-.196.722-.377 1.05-.18.32.312.605.489.286.27-.485.36-1.022.51-1.544a36.685 36.685 0 0 1 3.205-.865c.256.24.557.43.835.654.281.23.685-.17.4-.402-.17-.14-.365-.264-.546-.4a49.7 49.7 0 0 1 3.515-.586c.186-.023.374-.042.56-.063.264.407.514.822.71 1.27.146.334.634.045.49-.287a7.965 7.965 0 0 0-.57-1.052 59.962 59.962 0 0 1 7.906-.258c.064.446.095.9.201 1.34.086.357.633.206.547-.15-.093-.385-.13-.78-.18-1.17 1.172.05 2.337.137 3.49.256a5.818 5.818 0 0 0-.112.539c-.053.359.494.512.55.15a5.57 5.57 0 0 1 .132-.628c.604.068 1.204.146 1.8.233-.17 2.75-.68 5.043-1.147 6.425l-.018.052-.019.116c-.038.27.05.546.252.777.406.468 1.166.535 2.072.535.5 0 .964-.103 1.339-.296l.224-.116.08-.239c.464-1.373.934-3.6.92-6.575a49.74 49.74 0 0 1 3.1.817c-.115.22-.25.43-.408.621-.231.28.169.685.402.402.22-.266.398-.554.552-.857.767.238 1.528.492 2.27.762-.095 1.278-.113 2.052.005 2.798l.04.248.2.153c.488.369 1.182.5 1.812.594.487.073.964.11 1.294-.05.56-.267.618-.634.624-.85l.001-.071-.02-.096c-.05-.317-.093-.682-.127-1.088.948.46 1.857.94 2.724 1.437-.069.057-.137.115-.208.17-.286.219-.003.714.286.49.151-.115.293-.238.435-.362.385.23.76.463 1.128.698-.06.213-.096.435-.129.656-.023.154.035.305.2.35.134.037.326-.045.349-.198.023-.16.045-.321.08-.48a28.987 28.987 0 0 1 3.28 2.514.252.252 0 0 0-.05.069c-.408.783-1.03 1.237-1.875 1.46-.354.092-.205.64.151.546.97-.253 1.723-.802 2.195-1.689.113.106.223.212.331.317a17.249 17.249 0 0 1 1.629 1.825 7.29 7.29 0 0 1-.959.615c-.327.169-.039.66.286.49a7.589 7.589 0 0 0 1.015-.653c.927 1.32 1.435 2.584 1.466 3.688-.001 1.797-.301 3.76-1.972 4.986z"/><path d="M50.695 12.868a2.518 2.518 0 0 0-2.515-2.513 2.516 2.516 0 0 0-2.511 2.513 2.515 2.515 0 0 0 2.511 2.513 2.517 2.517 0 0 0 2.515-2.513zm-1.98-.881a1.342 1.342 0 0 0-1.193 1.955 1.258 1.258 0 0 1-.604-1.075 1.265 1.265 0 0 1 2.236-.805 1.352 1.352 0 0 0-.44-.075zM65.59 16.037a2.253 2.253 0 0 0 2.251-2.25c0-1.24-1.01-2.25-2.25-2.25-1.241 0-2.25 1.01-2.25 2.25a2.253 2.253 0 0 0 2.25 2.25zm0-3.252a1 1 0 0 1 .709.295 1.228 1.228 0 0 0-1.52 1.191c0 .037.002.07.004.106a1 1 0 0 1 .807-1.592zM17.932 39.047c-.17-.323-.66-.036-.49.287.256.486.654.877.908 1.363.17.325.661.038.49-.287-.254-.485-.651-.878-.908-1.363zM37.62 32.377v2.044c0 .366.567.366.567 0v-2.044c0-.367-.567-.367-.567 0zM32.621 32.603c0 .67-.016 1.324-.217 1.969-.108.35.44.5.548.15.214-.69.237-1.4.237-2.12.001-.365-.567-.365-.568 0zM48.167 33.166c.05-.598.01-1.202.115-1.797.063-.359-.484-.51-.55-.15-.115.645-.077 1.296-.133 1.947-.031.366.537.362.568 0zM40.427 29.72c-.178.447-.48.83-.72 1.243-.186.318.304.602.49.287.267-.46.58-.88.778-1.38.135-.341-.415-.487-.548-.15zM52.067 59.116c.365 0 .365-.568 0-.568-.368 0-.368.568 0 .568zM55.375 58.49c.367 0 .367-.567 0-.567-.366 0-.366.567 0 .567zM56.562 34.381c-.365 0-.365.568 0 .568.367 0 .367-.568 0-.568zM64.306 37.073c.366 0 .366-.568 0-.568-.367 0-.367.568 0 .568zM66.866 38.065c-.367 0-.367.57 0 .57.365 0 .365-.57 0-.57zM55.125 36.572c.368 0 .368-.568 0-.568-.364.002-.364.568 0 .568zM45.633 33.258c-.365 0-.365.567 0 .567.368 0 .368-.567 0-.567zM45.633 31.64c.368 0 .368-.568 0-.568-.365 0-.365.567 0 .567zM42.263 32.508c-.366 0-.366.566 0 .566.366.002.366-.566 0-.566zM37.703 31.078c.366 0 .366-.57 0-.57s-.366.57 0 .57zM15.223 42.437c-.554-.07-1.042-.359-1.542-.587-.331-.15-.62.34-.287.49.602.274 1.163.58 1.83.664.362.046.358-.522 0-.567zM19.63 37.163c-.01-.477-.131-.932-.261-1.387-.1-.35-.649-.201-.548.152.116.406.231.81.24 1.236.007.365.575.365.568-.001zM12.039 47.19c.278-.002.553-.01.825-.074.356-.083.206-.63-.151-.548-.223.052-.447.052-.674.052-.367.001-.367.57 0 .57zM10.54 50.685a4.504 4.504 0 0 0 1.512-.26c.342-.122.194-.671-.152-.546-.445.16-.887.235-1.36.24-.366.002-.366.57 0 .566zM25.34 34.942c-.367 0-.367.57 0 .57.366 0 .366-.57 0-.57zM28.898 31.759c-.366 0-.366.568 0 .568.367 0 .367-.568 0-.568zM30.523 32.695c-.367 0-.367.568 0 .568.366 0 .366-.568 0-.568zM32.833 31.576c.366 0 .366-.568 0-.568-.367 0-.367.568 0 .568zM24.154 33.382c-.367 0-.367.568 0 .568.365 0 .365-.568 0-.568zM22.404 35.942c-.366 0-.366.568 0 .568.367 0 .367-.568 0-.568zM20.78 35.255c-.366 0-.366.569 0 .569.367 0 .367-.57 0-.57zM17.847 38.009c.366 0 .366-.567 0-.567-.367 0-.367.567 0 .567zM17.159 41.874c-.367 0-.367.567 0 .567.366 0 .366-.567 0-.567zM13.288 43.248c-.367 0-.367.568 0 .568.366 0 .366-.568 0-.568zM13.725 47.308c-.366 0-.366.567 0 .567.367 0 .367-.567 0-.567zM10.165 53.557c.367 0 .367-.568 0-.568-.366 0-.366.568 0 .568zM33.832 52.24c-.367 0-.367.569 0 .569.366 0 .366-.568 0-.568zM39.577 54.49c-.366 0-.366.567 0 .567s.366-.567 0-.567zM35.955 54.676c-.367 0-.367.569 0 .569s.367-.57 0-.57zM42.575 54.8c-.367 0-.367.569 0 .569.365 0 .365-.568 0-.568zM54.44 32.695c-.367 0-.367.568 0 .568.366 0 .366-.568 0-.568zM61.495 37.253c-.365 0-.365.57 0 .57.367 0 .367-.57 0-.57zM45.947 35.817c-.366 0-.366.568 0 .568s.366-.568 0-.568zM41.388 35.13c-.366 0-.366.569 0 .569.367-.001.367-.568 0-.568zM43.881 35.395c-.168-.324-.66-.037-.49.287.366.708.524 1.5.937 2.186.189.312.678.028.49-.287-.413-.684-.57-1.478-.937-2.186zM53.537 38.161c.055-.477.068-.959.124-1.435.042-.364-.526-.36-.568 0-.056.478-.069.96-.125 1.435-.043.365.526.36.57 0zM57.288 36.339c-.174.51-.411.988-.72 1.43-.212.3.282.584.49.286a6.193 6.193 0 0 0 .778-1.566c.117-.346-.431-.496-.548-.15zM73.159 46.544c.362.345.818.556 1.312.635.358.057.513-.49.151-.548-.397-.063-.765-.207-1.06-.488-.266-.255-.667.147-.403.4zM73.435 47.817a4.377 4.377 0 0 1-1.248-.738c-.279-.234-.682.166-.403.401.457.383.947.673 1.5.885.343.13.49-.417.151-.548zM68.94 47.442c-.64-.192-1.102-.655-1.562-1.113-.259-.26-.66.142-.4.402.53.53 1.075 1.038 1.81 1.26.351.104.502-.444.152-.55zM64.142 49.95c-.072-.358-.62-.206-.547.151.065.33.143.664.34.944.21.296.703.012.49-.287-.171-.241-.227-.521-.283-.807zM61.62 49.118a.286.286 0 0 0-.283.285v.437c0 .155.127.285.283.285.155 0 .285-.13.285-.285v-.437a.287.287 0 0 0-.285-.285zM57.518 49.781c-.125-.073-.323-.037-.39.102-.035.075-.063.15-.084.23l-.021.078a.44.44 0 0 1-.017.054l-.007.023c-.061.138-.033.297.106.378.123.072.322.038.389-.102a1.427 1.427 0 0 0 .105-.31l.015-.053a.14.14 0 0 0 .01-.023c.058-.136.033-.295-.106-.377zM54.04 46.704c-.119.382-.455.611-.806.767-.142.063-.173.266-.103.39.085.143.248.163.388.101.49-.218.905-.583 1.068-1.106.11-.351-.439-.5-.547-.152zM55.477 48.077c-.19.533-.544.994-.624 1.563-.052.358.495.511.547.15.082-.563.436-1.032.623-1.561.124-.345-.425-.494-.546-.152zM50.942 48.12c-.367 0-.367.567 0 .567.366 0 .366-.568 0-.568zM60.247 48.243c-.367 0-.367.57 0 .57.365 0 .365-.57 0-.57zM59.623 50.18c-.368 0-.368.567 0 .567.364.001.364-.567 0-.567zM64.306 48.68c-.367 0-.367.569 0 .569.366 0 .366-.568 0-.568zM69.489 49.993c-.368 0-.368.567 0 .567.365 0 .365-.567 0-.567zM67.677 48.557c-.365 0-.365.568 0 .568.368 0 .368-.568 0-.568zM70.426 45.621c-.368 0-.368.57 0 .57.365-.002.365-.57 0-.57zM71.174 42.693c.367 0 .367-.567 0-.567-.366 0-.366.567 0 .567zM69.177 39.695c.365 0 .365-.568 0-.568-.368 0-.368.568 0 .568zM67.427 40.757c.367 0 .367-.57 0-.57-.365 0-.365.57 0 .57zM73.734 44.503c.366 0 .366-.568 0-.568-.366.001-.366.568 0 .568zM73.36 49.118c-.365 0-.365.568 0 .568.367 0 .367-.568 0-.568zM71.112 48.12c-.367 0-.367.567 0 .567.365 0 .365-.568 0-.568zM71.361 50.305c-.365 0-.365.568 0 .568.367 0 .367-.568 0-.568zM35.984 31.23c-.073.69-.297 1.358-.71 1.919-.219.294.275.577.49.286.475-.642.705-1.418.788-2.204.038-.364-.53-.361-.568 0zM44.386 30.765c.366 0 .366-.568 0-.568-.367 0-.367.568 0 .568zM38.952 29.885c-.366 0-.366.567 0 .567s.366-.567 0-.567zM27.338 31.633c-.366 0-.366.569 0 .569s.366-.57 0-.57zM26.963 33.507c-.367 0-.367.567 0 .567.366 0 .366-.567 0-.567zM33.395 53.739c-.366 0-.366.568 0 .568.367 0 .367-.568 0-.568zM10.79 58.485a1.763 1.763 0 0 1-.731-.15c-.328-.156-.617.335-.286.49.321.154.662.221 1.017.226.366.006.366-.562 0-.566zM28.894 59.85c.444-.617 1.043-1.1 1.58-1.63.26-.257-.142-.66-.403-.402-.573.57-1.192 1.085-1.667 1.744-.214.297.279.58.49.287zM32.05 59.518c0 .367.568.367.568 0 0-.439-.004-.876-.062-1.312-.048-.357-.616-.362-.568 0 .056.436.062.873.062 1.312zM30.197 63.065c-.362.309-.64.694-.856 1.118-.166.327.324.613.491.288.196-.386.438-.722.767-1.004.278-.24-.125-.64-.402-.402zM32.107 65.214c.12-.371.193-.754.314-1.124.112-.349-.436-.498-.548-.152-.12.371-.193.753-.313 1.125-.112.35.436.499.547.151zM31.071 69.683c-.224.285.175.69.402.4.357-.452.468-.962.323-1.523-.092-.354-.64-.205-.547.15.089.347.049.686-.178.973zM8.436 63.198c.26-.155.525-.295.807-.409.143-.059.243-.186.198-.349-.038-.135-.206-.256-.349-.198a6.956 6.956 0 0 0-.942.465c-.316.188-.03.678.286.49zM9.928 56.607c.195-.069.369-.18.563-.25.145-.052.241-.192.198-.35-.039-.14-.204-.25-.349-.198-.194.068-.369.181-.562.25-.145.053-.242.192-.199.349.04.142.204.25.35.199zM7.37 66.213c.186-.186.357-.371.447-.624.052-.146-.058-.31-.199-.348-.157-.044-.298.052-.348.199-.01.023-.066.12-.087.147-.066.08-.142.154-.215.226-.26.258.141.659.401.4zM7.082 68.998c-.08.47-.304.899-.374 1.372-.053.358.494.513.547.152.07-.475.296-.902.376-1.374.058-.359-.489-.512-.549-.15zM10.02 67.46c-.505.097-.999-.02-1.436-.278-.316-.188-.601.303-.286.49a2.624 2.624 0 0 0 1.874.336c.359-.07.207-.617-.152-.547zM12.364 52.08c-.18-.32-.67-.034-.49.286.258.454.502.934.902 1.283.276.24.678-.161.402-.402-.364-.316-.579-.754-.814-1.168zM8.747 64.768c.366 0 .366-.567 0-.567s-.366.567 0 .567zM10.096 65.427c-.366 0-.366.568 0 .568s.366-.568 0-.568zM8.686 58.132c-.367 0-.367.567 0 .567.366 0 .366-.567 0-.567zM10.28 60.583c-.366 0-.366.57 0 .57s.366-.57 0-.57zM29.163 66.837c-.366 0-.366.567 0 .567.367 0 .367-.567 0-.567zM30.941 61.336c.367 0 .367-.569 0-.569-.366 0-.366.57 0 .57zM30.696 66.593c-.367 0-.367.568 0 .568.366-.002.366-.568 0-.568zM30.941 52.245c-.366 0-.366.567 0 .567s.366-.567 0-.567zM35.618 53.186c-.119-.118-.28-.095-.402 0-.26.205-.544.37-.855.479-.345.12-.197.669.15.548.411-.143.766-.357 1.107-.625.12-.095.1-.302 0-.402zM37.279 54.43v.858c0 .365.567.365.567 0v-.858c0-.367-.567-.367-.567 0zM59.512 37.653c-.368 0-.368.568 0 .568.366 0 .366-.568 0-.568zM58.163 33.362c-.367 0-.367.568 0 .568.365 0 .365-.568 0-.568zM65.252 38.612a3.57 3.57 0 0 1-2.246.45c-.362-.044-.36.526 0 .57.9.108 1.746-.09 2.534-.53.32-.179.032-.67-.288-.49zM65.029 40.86c-.111.216-.255.42-.45.572-.12.095-.187.242-.102.388.071.12.265.196.389.102.275-.212.496-.467.654-.776.166-.325-.325-.614-.491-.286zM7.276 67.772c.367 0 .367-.568 0-.568-.366 0-.366.568 0 .568zM12.364 48.827c.367 0 .367-.567 0-.567-.366 0-.366.567 0 .567zM19.537 38.45c-.366 0-.366.57 0 .57.367-.002.367-.57 0-.57z"/></svg>
