<svg class="bauble" xmlns="http://www.w3.org/2000/svg" viewBox="0 0 100 200">
  <defs>
    <pattern id="a" width="100" height="100" patternUnits="userSpaceOnUse">
      <path d="M59.567 92.408c93.194-24.549-115.57-37.394-25.972-1.598 89.597 35.796-71.866-99.272-20.088-16.804 51.777 82.468-.71-123.232-6.53-25.592s70.715-100.12 9.521-24.604C-44.695 99.327 131.63-14.957 38.435 9.592c-93.194 24.549 115.57 37.394 25.973 1.598s71.865 99.272 20.088 16.804c-51.777-82.468.71 123.232 6.53 25.592S20.31 153.706 81.504 78.19c61.194-75.517-115.13 38.767-21.937 14.218z" fill="#d42aff" stroke="#80a" stroke-width="6.025"/>
    </pattern>
  </defs>
	<rect width="100%" height="100%" fill="#00b300"/>
  <rect width="100%" height="100%" fill="url(#a)"/>
</svg>
