 <svg class="mistletoe" viewBox="0 0 100 100">
          <g class="plant">
            <path
              class="leave"
              d="m13.536 18.459c-3.0312-2.3789 1.6952-8.0058 4.5001-10.648 1.644-1.5485 4.1376-2.0619 6.3873-2.2598 5.1238-0.45088 10.309 1.0058 15.222 2.5272 5.0642 1.568 14.416 6.7167 14.416 6.7167 3.4047 5.2028 2.8407 11.059 3.7382 16.847-17.092 17.691-26.771-0.10736-44.264-13.183z"
              fill="green"
            />
            <circle
              cx="32.173"
              cy="50.339"
              r="12.5"
              fill="#fff"
              stroke-width="2.7855"
            />
            <path
              d="m89.754-12.752c-13.662 15.711-32.05 44.561-39.25 59.887-8.8132 18.758-12.713 49.803-13.319 74.054"
              fill="none"
              stroke="#a52a2a"
              stroke-width="6"
            />
            <path
              class="leave"
              d="m54.236 41.001s18.521-15.308 29.013-13.435c2.7729 0.49517 3.3861 4.8531 5.9653 5.9854 0.8261 0.36266 2.2077-0.64416 2.7044 0.10897 0.86031 1.3043-0.77577 3.0988-1.6705 4.3798-5.1675 7.3987-20.429 17.767-20.429 17.767l-9.5331 7.9952c-6.1729 2.0014-9.6022 2.3457-15.091-0.35 2.2032-10.647 2.2417-14.794 9.0406-22.452z"
              fill="#008000"
            />
          </g>
        </svg>
