<?xml version="1.0" encoding="UTF-8"?>
<svg class="ohDeer" version="1.1" viewBox="0 0 100 100" xml:space="preserve" xmlns="http://www.w3.org/2000/svg">
<style type="text/css">
	.st0{fill:#282828;}
	.st1{fill:#BF9C63;}
	.st2{fill:#C74E26;}
	.st3{fill:#036838;}
	.st4{fill:#9E1D28;}
	.st5{fill:#B3C66B;}
	.st6{fill:#C9678F;}
	.st7{fill:#6B4319;}
	.st8{fill:#DEAC57;}
	.st9{fill:#BF762C;}
	.st10{fill:#FBD66C;}
	.st11{fill:#B0BA87;}
	.st12{fill:#F29188;}
	.st13{fill:#746357;}
	.st14{fill:#7E8C66;}
	.st15{fill:#6493A8;}
	.st16{fill:#362317;}
	.st17{fill:#544841;}
	.st18{fill:#162640;}
	.st19{fill:#8FB368;}
	.st20{fill:#F2ACA5;}
	.st21{fill:#B68C57;}
	.st22{fill:#D5A8B2;}
	.st23{fill:#B6C8A3;}
	.st24{fill:#E0D8D1;}
	.st25{fill:#3C628E;}
	.st26{fill:#C7D2D8;}
	.st27{fill:#7D95B2;}
	.st28{fill:#B4B4B4;}
	.st29{fill:#9EAE87;}
	.st30{fill:#634E42;}
	.st31{fill:#EBCCD2;}
	.st32{fill:none;}
	.st33{fill:#C78140;}
	.st34{fill:#C69C6D;}
	.st35{fill:#A67C52;}
	.st36{fill:#A67D52;}
	.st37{fill:#827270;}
	.st38{fill:#499E49;}
	.st39{fill:#FBB959;}
	.st40{fill:#4D4D4D;}
	.st41{fill:#BA2314;}
	.st42{fill:#EB9BAB;}
	.st43{fill:#ABB9CE;}
	.st44{fill:#6595AA;}
	.st45{fill:#3E6689;}
	.st46{fill:#C0864D;}
	.st47{fill:#333333;}
	.st48{fill:#B5CCD8;}
	.st49{fill:#A6C882;}
	.st50{fill:#5E9581;}
	.st51{fill:#E3691E;}
	.st52{fill:#C75C1A;}
	.st53{fill:#DD852D;}
	.st54{fill:#A29E35;}
	.st55{fill:#AA4A3A;}
	.st56{fill:#C1272D;}
	.st57{fill:#E6E6E6;}
	.st58{fill:#FBB03B;}
	.st59{fill:#DFEBF2;}
	.st60{fill:#C0BA63;}
</style>
<g>
	
	<g transform="matrix(.27778 0 0 .27778 -9.9999 -23.948)">
		<g>
			<path class="st16" d="m97.026 313.89c-8.624-6.062-12.291-7.542-20.909-23.089-5.351-9.655-15.521-11.885-20.621-32.804-1.756-7.202-1.738-12.255-1.104-16.799 0.074-0.528 0.269-1.058 0.502-1.542 1.118-2.326 3.304-1.086 4.357 1.16 5.386 11.489 5.914 32.415 15.203 36.648 0.267-5.403-2.668-20.876 2.191-41.534 4.527-19.248 5.422-22.662 2.833-30.356-1.787-5.311-5.471-13.746-3.736-18.777 0.413-1.198 1.01-2.312 2.397-2.569 3.621-0.669 5.8 6.322 7.135 9.784 1.754 4.55 1.8 6.271 3.811 4.586 5.634-4.721 15.556-21.033 22.146-23.942 2.669-1.178 3.42 2.107 2.158 4.654-4.931 9.952-15.81 22.062-23.863 44.269-8.647 23.847-5.874 47.423-2.46 49.542 3.322-1.41 7.254-21.239 7.98-24.728 2.315-11.121 5.836-24.99 11.578-35.036 4.042-7.071 7.809-6.721 7.954-3.745 0.386 7.935-12.36 23.225-9.496 41.9 0.07 0.46 0.24 0.912 0.417 1.345 0.44 1.076 0.8 1.208 1.811 0.573 3.53-2.216 5.746-6.945 12.634-14.701 1.85-2.084 3.584-1.551 4.006-0.016 2.163 7.869-14.666 27.599-20.676 34.778-2.214 2.645-4.219 5.438-5.96 8.417-2.643 4.521-4.232 9.44-1.801 14.093 4.182 8.003 18.153 12.524 24.803 11.608 1.908-0.263 2.667-0.976 3.024-2.871 1.01-5.352 1.437-13.075 6.503-19.794 2.008-2.663 5.101-4.709 6.389-1.663 0.394 0.932 0.453 1.91 0.243 2.882-1.229 5.682-2.114 8.129-2.328 11.591-0.39 6.318 3.088 13.952 8.012 18.025 2.92 2.415 8.559 3.171 12.155 4.191 4.527 1.284 9.101 2.404 13.71 3.355 1.302 0.269 2.651 0.543 3.727 1.324 2.568 1.864 2.526 5.634 2.226 8.793-0.194 2.045-0.563 4.384-2.31 5.464-0.821 0.507-1.809 0.709-2.774 0.732-23.355 0.566-39.712-17.625-64.126-15.899-8.16 0.577-13.066 1.102-19.519-0.808-4.621-1.368-4.894-3.958-2.806-5.49 4.431-3.251 10.975-2.662 14.489-3.309 0.031-0.081 0.063-0.162 0.095-0.242z"/>
		</g>
		<g>
			<path class="st16" d="m334.97 313.89c8.624-6.062 12.291-7.542 20.909-23.089 5.351-9.655 15.521-11.885 20.621-32.804 1.756-7.202 1.738-12.255 1.104-16.799-0.074-0.528-0.269-1.058-0.502-1.542-1.118-2.326-3.304-1.086-4.357 1.16-5.386 11.489-5.914 32.415-15.203 36.648-0.267-5.403 2.668-20.876-2.191-41.534-4.527-19.248-5.422-22.662-2.833-30.356 1.787-5.311 5.471-13.746 3.736-18.777-0.413-1.198-1.01-2.312-2.397-2.569-3.621-0.669-5.8 6.322-7.135 9.784-1.754 4.55-1.8 6.271-3.811 4.586-5.634-4.721-15.556-21.033-22.146-23.942-2.669-1.178-3.42 2.107-2.158 4.654 4.931 9.952 15.81 22.062 23.863 44.269 8.647 23.847 5.874 47.423 2.46 49.542-3.322-1.41-7.254-21.239-7.98-24.728-2.315-11.121-5.836-24.99-11.578-35.036-4.042-7.071-7.809-6.721-7.954-3.745-0.386 7.935 12.36 23.225 9.496 41.9-0.07 0.46-0.24 0.912-0.417 1.345-0.44 1.076-0.8 1.208-1.811 0.573-3.53-2.216-5.746-6.945-12.634-14.701-1.85-2.084-3.584-1.551-4.006-0.016-2.163 7.869 14.666 27.599 20.676 34.778 2.214 2.645 4.219 5.438 5.96 8.417 2.643 4.521 4.232 9.44 1.801 14.093-4.182 8.003-18.153 12.524-24.803 11.608-1.908-0.263-2.667-0.976-3.024-2.871-1.01-5.352-1.437-13.075-6.503-19.794-2.008-2.663-5.101-4.709-6.389-1.663-0.394 0.932-0.453 1.91-0.243 2.882 1.229 5.682 2.114 8.129 2.328 11.591 0.39 6.318-3.088 13.952-8.012 18.025-2.92 2.415-8.559 3.171-12.155 4.191-4.527 1.284-9.101 2.404-13.71 3.355-1.302 0.269-2.651 0.543-3.727 1.324-2.568 1.864-2.526 5.634-2.226 8.793 0.194 2.045 0.563 4.384 2.31 5.464 0.821 0.507 1.809 0.709 2.774 0.732 23.355 0.566 39.712-17.625 64.126-15.899 8.16 0.577 13.066 1.102 19.519-0.808 4.621-1.368 4.893-3.958 2.806-5.49-4.431-3.251-10.975-2.662-14.489-3.309-0.031-0.081-0.063-0.162-0.095-0.242z"/>
		</g>
	</g>
	
</g>
</svg>
