<?xml version="1.0" encoding="UTF-8" standalone="no"?>
<svg
   xmlns:dc="http://purl.org/dc/elements/1.1/"
   xmlns:cc="http://creativecommons.org/ns#"
   xmlns:rdf="http://www.w3.org/1999/02/22-rdf-syntax-ns#"
   xmlns:svg="http://www.w3.org/2000/svg"
   xmlns="http://www.w3.org/2000/svg"
   xmlns:sodipodi="http://sodipodi.sourceforge.net/DTD/sodipodi-0.dtd"
   xmlns:inkscape="http://www.inkscape.org/namespaces/inkscape"
   viewBox="0 0 500 500"
   fill-opacity="1"
   style="enable-background:new 0 0 500 500"
   version="1.1"
   id="svg18"
   sodipodi:docname="circles.svg"
   inkscape:version="0.92.5 (2060ec1f9f, 2020-04-08)">
  <metadata
     id="metadata24">
    <rdf:RDF>
      <cc:Work
         rdf:about="">
        <dc:format>image/svg+xml</dc:format>
        <dc:type
           rdf:resource="http://purl.org/dc/dcmitype/StillImage" />
        <dc:title></dc:title>
      </cc:Work>
    </rdf:RDF>
  </metadata>
  <defs
     id="defs22" />
  <sodipodi:namedview
     pagecolor="#ffffff"
     bordercolor="#666666"
     borderopacity="1"
     objecttolerance="10"
     gridtolerance="10"
     guidetolerance="10"
     inkscape:pageopacity="0"
     inkscape:pageshadow="2"
     inkscape:window-width="1920"
     inkscape:window-height="1016"
     id="namedview20"
     showgrid="false"
     inkscape:zoom="0.472"
     inkscape:cx="250"
     inkscape:cy="250"
     inkscape:window-x="0"
     inkscape:window-y="27"
     inkscape:window-maximized="1"
     inkscape:current-layer="svg18" />
  <style
     id="style2"> .st2{fill:rgb(255, 255, 255)} </style>
  <g
     style="display:none"
     id="g5">
    <path
       style="display:inline;fill:#6D6E71"
       d="M-64.9-73.9h675v675h-675z"
       id="Layer_2" />
  </g>
  <g
     id="Layer_1"
     style="fill:#e6e6e6">
    <circle
       class="st2"
       cx="417.4"
       cy="83.7"
       r="82.8"
       id="circle7"
       style="fill:#e6e6e6" />
    <path
       class="st2"
       d="M78.1 82.7C78.1 38.2 43.1 2-.8 0v165.3c43.9-2 78.9-38.2 78.9-82.6zM87.9 82.7c0 44.4 35 80.7 78.9 82.7V0c-43.9 2-78.9 38.2-78.9 82.7zM167.2 167.3v165.3c43.9-2 78.9-38.2 78.9-82.7s-34.9-80.6-78.9-82.6zM332.8 332.7V167.3c-43.9 2-78.9 38.2-78.9 82.7s34.9 80.7 78.9 82.7zM417.3 253.7c-44.4 0-80.7 35-82.7 78.9H500c-2-43.9-38.2-78.9-82.7-78.9zM417.3 246.5c44.4 0 80.7-35 82.7-78.9H334.7c2 43.9 38.2 78.9 82.6 78.9zM84 421.1c-44.4 0-80.7 35-82.7 78.9h165.3c-2-43.9-38.2-78.9-82.6-78.9zM84 413.4c44.4 0 80.7-35 82.7-78.9H1.3c2 43.9 38.2 78.9 82.7 78.9zM250.1 78.9c44.4 0 80.7-35 82.7-78.9H167.4c2 43.9 38.3 78.9 82.7 78.9zM250.1 87.5c-44.4 0-80.7 35-82.7 78.9h165.3c-1.9-43.9-38.2-78.9-82.6-78.9z"
       id="path9"
       style="fill:#e6e6e6" />
    <circle
       class="st2"
       cx="84.1"
       cy="250.1"
       r="82.8"
       id="circle11"
       style="fill:#e6e6e6" />
    <path
       class="st2"
       d="M167.2 334.5v165.3c43.9-2 78.9-38.2 78.9-82.7s-34.9-80.6-78.9-82.6zM421.9 417.2c0 44.4 35 80.7 78.9 82.7V334.6c-43.9 1.9-78.9 38.2-78.9 82.6z"
       id="path13"
       style="fill:#e6e6e6" />
    <circle
       class="st2"
       cx="333.2"
       cy="417.3"
       r="82.8"
       id="circle15"
       style="fill:#e6e6e6" />
  </g>
</svg>
