<?xml version="1.0" encoding="utf-8"?>
<svg version="1.1" class="ohDeer" xmlns="http://www.w3.org/2000/svg" xmlns:xlink="http://www.w3.org/1999/xlink"
	 viewBox="0 0 432 432" style="enable-background:new 0 0 432 432;" xml:space="preserve">
<style type="text/css">
	.st0{fill:#282828;}
	.st1{fill:#BF9C63;}
	.st2{fill:#C74E26;}
	.st3{fill:#036838;}
	.st4{fill:#9E1D28;}
	.st5{fill:#B3C66B;}
	.st6{fill:#C9678F;}
	.st7{fill:#6B4319;}
	.st8{fill:#DEAC57;}
	.st9{fill:#BF762C;}
	.st10{fill:#FBD66C;}
	.st11{fill:#B0BA87;}
	.st12{fill:#F29188;}
	.st13{fill:#746357;}
	.st14{fill:#7E8C66;}
	.st15{fill:#6493A8;}
	.st16{fill:#362317;}
	.st17{fill:#544841;}
	.st18{fill:#162640;}
	.st19{fill:#8FB368;}
	.st20{fill:#F2ACA5;}
	.st21{fill:#B68C57;}
	.st22{fill:#D5A8B2;}
	.st23{fill:#B6C8A3;}
	.st24{fill:#E0D8D1;}
	.st25{fill:#3C628E;}
	.st26{fill:#C7D2D8;}
	.st27{fill:#7D95B2;}
	.st28{fill:#B4B4B4;}
	.st29{fill:#9EAE87;}
	.st30{fill:#634E42;}
	.st31{fill:#EBCCD2;}
	.st32{fill:none;}
	.st33{fill:#C78140;}
	.st34{fill:#C69C6D;}
	.st35{fill:#A67C52;}
	.st36{fill:#A67D52;}
	.st37{fill:#827270;}
	.st38{fill:#499E49;}
	.st39{fill:#FBB959;}
	.st40{fill:#4D4D4D;}
	.st41{fill:#BA2314;}
	.st42{fill:#EB9BAB;}
	.st43{fill:#ABB9CE;}
	.st44{fill:#6595AA;}
	.st45{fill:#3E6689;}
	.st46{fill:#C0864D;}
	.st47{fill:#333333;}
	.st48{fill:#B5CCD8;}
	.st49{fill:#A6C882;}
	.st50{fill:#5E9581;}
	.st51{fill:#E3691E;}
	.st52{fill:#C75C1A;}
	.st53{fill:#DD852D;}
	.st54{fill:#A29E35;}
	.st55{fill:#AA4A3A;}
	.st56{fill:#C1272D;}
	.st57{fill:#E6E6E6;}
	.st58{fill:#FBB03B;}
	.st59{fill:#DFEBF2;}
	.st60{fill:#C0BA63;}
</style>
<g>
	<g>
		<g>
			<path class="st16" d="M149.75,187.651c-2.302-0.669-4.619-0.849-7-0.545c-2.137,0.273-3.514,1.396-4.337,3.355
				c-0.557,1.325-0.749,2.682-0.671,4.092c0.549,10.084,0.921,20.181,1.702,30.246c1.4,18.078,3.055,36.133,4.592,54.201
				c0.263,3.102,2.459,5.121,5.553,4.996c2.082-0.084,4.023-0.571,5.678-1.955c1.153-0.963,2.408-1.802,3.588-2.735
				c14.533-11.509,22.144-26.458,22.391-45.041c0.18-4.68-0.459-9.258-1.443-13.778C176.145,203.745,166.447,192.488,149.75,187.651
				z M171.859,235.657c-0.49,13.946-6.176,25.491-16.768,34.6c-0.482,0.416-0.937,0.896-2.196,1.112
				c-0.498-5.59-0.984-11.003-1.455-16.417c-0.757-8.662-1.569-17.319-2.227-25.987c-0.635-8.356-1.102-16.725-1.643-25.087
				c-0.114-1.716-0.243-3.431-0.306-5.149c-0.071-1.9,0.137-2.072,1.98-1.433c8.517,2.968,14.94,8.302,18.638,16.67
				C170.937,220.877,172.125,228.183,171.859,235.657z"/>
			<path class="st16" d="M207.434,274.974c-2.568,1.004-5.282,0.81-7.925,1.169c-1.102,0.149-2.18-0.265-2.408-1.617
				c-0.6-3.582-1.506-7.127-1.486-11.2c2.757,0,5.113,0.076,7.466-0.022c3.102-0.129,5.153-2.023,5.208-4.639
				c0.051-2.594-1.996-4.576-5.07-4.764c-1.608-0.098-3.227-0.016-4.839,0.01c-4.231,0.069-3.812,0.177-3.929-3.833
				c-0.439-14.619-0.322-29.242-0.004-43.861c0.094-4.404,0.423-8.803,0.698-13.201c0.173-2.721,0.216-2.747,3.047-2.653
				c4.408,0.149,8.749,0.829,13.086,1.598c2.886,0.51,5.408-1.18,5.858-3.725c0.475-2.704-1.114-4.878-4.168-5.494
				c-5.906-1.19-11.889-1.737-17.905-1.947c-1.514-0.053-3,0.126-4.459,0.547c-2.137,0.618-3.541,1.896-4.039,4.135
				c-0.283,1.261-0.526,2.506-0.584,3.806c-0.27,5.906-0.694,11.803-0.878,17.709c-0.612,19.24-0.859,38.48,0.98,57.676
				c0.459,4.802,1.145,9.598,2.471,14.268c0.976,3.437,3.22,5.72,6.721,6.137c5.133,0.612,10.313,0.479,15.321-1.065
				c3.039-0.933,4.466-3.553,3.619-6.211C213.328,275.014,210.505,273.777,207.434,274.974z"/>
			<path class="st16" d="M243.451,197.515c-5.906-1.19-11.89-1.737-17.905-1.947c-1.514-0.053-3,0.126-4.459,0.547
				c-2.137,0.618-3.541,1.896-4.039,4.135c-0.282,1.261-0.525,2.506-0.584,3.806c-0.923,20.131-3.407,53.81,2.572,74.88
				c0.976,3.437,3.219,5.72,6.721,6.137c5.133,0.612,10.313,0.479,15.321-1.065c6.916-2.124,3.71-11.714-3.16-9.033
				c-2.569,1.004-5.282,0.81-7.925,1.169c-1.102,0.149-2.18-0.265-2.408-1.617c-0.6-3.582-1.506-7.127-1.486-11.2
				c2.757,0,5.113,0.076,7.466-0.022c6.898-0.288,6.968-8.985,0.137-9.403c-1.608-0.098-3.227-0.016-4.839,0.01
				c-4.231,0.069-3.812,0.177-3.929-3.833c-0.458-15.228-0.49-23.31,0.694-42.289c0.172-2.722,0.216-2.747,3.047-2.653
				c4.408,0.149,8.749,0.829,13.086,1.598c2.886,0.51,5.408-1.18,5.859-3.725C248.094,200.305,246.506,198.13,243.451,197.515z"/>
			<path class="st16" d="M300.813,213.964c-2.463-8.527-8.357-14.056-16.195-17.758c-5.313-2.51-10.976-3.641-16.76-4.231
				c-4.639-0.473-9.239,0.035-13.733,1.218c-3.384,0.892-4.655,3.17-3.831,6.57c0.263,1.074,0.247,2.125,0.259,3.192
				c0.059,5.053-0.074,10.113,0.184,15.154c0.906,17.48,1.812,34.963,3.741,52.37c0.318,2.878,0.679,5.762,1.279,8.59
				c0.463,2.202,2.349,3.572,4.372,3.663c2.012,0.086,3.78-1.182,4.631-3.343c0.694-1.769,0.651-3.449,0.004-5.308
				c-1.157-3.317-1.318-6.817-1.357-10.866c1.212,0.847,1.996,1.353,2.733,1.92c4.776,3.663,9.541,7.335,14.309,11.007
				c0.937,0.721,1.882,1.441,3.027,1.808c3.024,0.965,5.992-1.231,5.988-4.402c0-1.916-1.043-3.202-2.482-4.276
				c-2.153-1.606-4.317-3.2-6.439-4.845c-3.553-2.753-7.074-5.543-10.725-8.407c1.851-1.17,3.761-1.571,5.541-2.271
				c7.086-2.784,13.58-6.464,18.638-12.297C300.927,233.455,303.817,224.381,300.813,213.964z M288.939,232.704
				c-2.972,4.366-7,7.525-11.643,9.925c-4.204,2.172-8.674,3.682-13.184,5.068c-1.988,0.61-2.279,0.404-2.408-1.615
				c-0.306-4.713-0.616-9.427-0.824-14.144c-0.255-5.792-0.941-11.564-0.984-17.376c0-3.545-0.02-7.088,0.008-10.629
				c0.016-2.363,0.047-2.427,2.235-2.541c7.212-0.373,14.129,0.802,20.489,4.355C292.974,211.519,295.609,222.897,288.939,232.704z"
				/>
		</g>
		<path class="st16" d="M148.468,101.38c-0.163-0.678-0.352-1.386-0.501-2.102c-1.111-5.341-0.478-10.402,2.557-15.024
			c3.071-4.677,7.49-7.186,13.018-7.669c6.806-0.595,12.863,1.511,18.349,5.425c4.845,3.457,8.605,7.898,11.582,13.021
			c3.87,6.659,6.385,13.827,7.968,21.342c0.546,2.595,0.232,2.513,1.594,2.623c6.889,0.56,7.642,0.937,15.143,0.976
			c0.942,0.005,0.938-0.001,0.929-1.003c-0.153-15.709-0.162-15.568-0.119-16.337c0.357-6.425,9.332-6.295,9.67-0.104
			c0.115,2.107,0.123,4.221,0.15,6.333c0.153,11.824-0.115,11.575,0.584,11.613c1.265,0.069,16.485-0.125,20.332-0.267
			c3.109-0.115,6.218-0.219,9.328-0.318c1.166-0.037,1.149,0.066,1.153-1.172c0.038-12.004,0.078-24.007,0.12-36.011
			c0.004-1.074-0.042-2.155,0.059-3.221c0.196-2.058,1.255-3.535,3.225-4.262c2.85-1.052,5.988,0.858,6.378,3.87
			c0.076,0.586,0.103,1.182,0.102,1.773c-0.055,29.009-0.115,58.018-0.179,87.027c-0.008,3.705-0.037,7.41-0.062,11.114
			c-0.004,0.518-0.017,1.039-0.068,1.554c-0.254,2.554-2.348,4.464-4.848,4.438c-2.46-0.025-4.519-1.91-4.776-4.405
			c-0.068-0.661-0.059-1.332-0.057-1.998c0.028-15.82,0.061-31.639,0.087-47.459c0.003-1.685,0.18-1.505-1.486-1.426
			c-8.063,0.383-25.616,0.631-29,0.568c-1.162-0.022-0.548-3.449-0.109,49.531c0.006,0.667-0.001,1.337-0.163,1.989
			c-0.576,2.313-2.665,3.852-5.02,3.707c-2.364-0.145-4.31-2.01-4.49-4.445c-0.134-1.808-0.142-3.627-0.163-5.442
			c-0.187-16.662-0.304-29.741-0.483-44.787c-0.012-1.003-0.019-1.016-1.068-1.045c-5.464-0.158-5.682-0.525-14.151-0.911
			c-1.216-0.056-0.824-0.241-0.696,4.044c0.293,9.774-0.942,19.292-4.845,28.346c-2.314,5.369-5.423,10.199-9.864,14.078
			c-3.561,3.11-7.623,5.215-12.328,5.982c-4.673,0.762-9.066-0.092-13.204-2.331c-3.533-1.911-6.49-4.53-9.103-7.551
			c-5.525-6.388-9.175-13.766-11.5-21.844c-2.431-8.447-3.257-17.071-2.918-25.83c0.195-5.046,0.766-10.039,2.026-14.94
			c0.332-1.293,0.765-2.552,1.266-3.789c0.932-2.3,2.573-3.56,5.117-3.505C148.152,101.539,148.299,101.535,148.468,101.38z
			 M151.971,108.752c-0.468,0.92-0.749,1.942-0.996,2.97c-0.999,4.154-1.44,8.377-1.61,12.642
			c-0.267,6.699,0.276,13.313,1.838,19.836c1.62,6.767,4.243,13.083,8.449,18.68c1.788,2.38,3.788,4.553,6.209,6.31
			c1.419,1.03,2.936,1.88,4.651,2.295c3.115,0.755,6.02,0.107,8.769-1.423c2.436-1.355,4.391-3.257,6.079-5.448
			c2.562-3.323,4.314-7.064,5.615-11.028c2.669-8.129,3.008-16.482,2.355-24.925c-0.072-0.927-0.155-0.897-0.976-1.018
			c-9.621-1.417-20.139-4.142-28.462-8.854c-4.424-2.504-8.365-5.593-11.432-9.705C152.356,108.946,152.281,108.751,151.971,108.752
			z M191.52,117.587c0.15-0.348,0.055-0.556,0.006-0.769c-1.611-7.083-4.727-15.115-9.201-20.877
			c-2.763-3.559-6.041-6.509-10.236-8.31c-2.527-1.084-5.157-1.575-7.912-1.282c-2.815,0.299-4.828,1.74-6.056,4.271
			c-0.797,1.643-1,3.393-0.811,5.198c0.311,2.961,1.5,5.552,3.333,7.865c2.367,2.985,5.385,5.165,8.706,6.95
			C175.976,114.194,185.161,116.71,191.52,117.587z"/>
	</g>
	<g>
		<g>
			<path class="st16" d="M97.026,313.894c-8.624-6.062-12.291-7.542-20.909-23.089c-5.351-9.655-15.521-11.885-20.621-32.804
				c-1.756-7.202-1.738-12.255-1.104-16.799c0.074-0.528,0.269-1.058,0.502-1.542c1.118-2.326,3.304-1.086,4.357,1.16
				c5.386,11.489,5.914,32.415,15.203,36.648c0.267-5.403-2.668-20.876,2.191-41.534c4.527-19.248,5.422-22.662,2.833-30.356
				c-1.787-5.311-5.471-13.746-3.736-18.777c0.413-1.198,1.01-2.312,2.397-2.569c3.621-0.669,5.8,6.322,7.135,9.784
				c1.754,4.55,1.8,6.271,3.811,4.586c5.634-4.721,15.556-21.033,22.146-23.942c2.669-1.178,3.42,2.107,2.158,4.654
				c-4.931,9.952-15.81,22.062-23.863,44.269c-8.647,23.847-5.874,47.423-2.46,49.542c3.322-1.41,7.254-21.239,7.98-24.728
				c2.315-11.121,5.836-24.99,11.578-35.036c4.042-7.071,7.809-6.721,7.954-3.745c0.386,7.935-12.36,23.225-9.496,41.9
				c0.07,0.46,0.24,0.912,0.417,1.345c0.44,1.076,0.8,1.208,1.811,0.573c3.53-2.216,5.746-6.945,12.634-14.701
				c1.85-2.084,3.584-1.551,4.006-0.016c2.163,7.869-14.666,27.599-20.676,34.778c-2.214,2.645-4.219,5.438-5.96,8.417
				c-2.643,4.521-4.232,9.44-1.801,14.093c4.182,8.003,18.153,12.524,24.803,11.608c1.908-0.263,2.667-0.976,3.024-2.871
				c1.01-5.352,1.437-13.075,6.503-19.794c2.008-2.663,5.101-4.709,6.389-1.663c0.394,0.932,0.453,1.91,0.243,2.882
				c-1.229,5.682-2.114,8.129-2.328,11.591c-0.39,6.318,3.088,13.952,8.012,18.025c2.92,2.415,8.559,3.171,12.155,4.191
				c4.527,1.284,9.101,2.404,13.71,3.355c1.302,0.269,2.651,0.543,3.727,1.324c2.568,1.864,2.526,5.634,2.226,8.793
				c-0.194,2.045-0.563,4.384-2.31,5.464c-0.821,0.507-1.809,0.709-2.774,0.732c-23.355,0.566-39.712-17.625-64.126-15.899
				c-8.16,0.577-13.066,1.102-19.519-0.808c-4.621-1.368-4.894-3.958-2.806-5.49c4.431-3.251,10.975-2.662,14.489-3.309
				C96.962,314.055,96.994,313.974,97.026,313.894z"/>
		</g>
		<g>
			<path class="st16" d="M334.974,313.894c8.624-6.062,12.291-7.542,20.909-23.089c5.351-9.655,15.521-11.885,20.621-32.804
				c1.756-7.202,1.738-12.255,1.104-16.799c-0.074-0.528-0.269-1.058-0.502-1.542c-1.118-2.326-3.304-1.086-4.357,1.16
				c-5.386,11.489-5.914,32.415-15.203,36.648c-0.267-5.403,2.668-20.876-2.191-41.534c-4.527-19.248-5.422-22.662-2.833-30.356
				c1.787-5.311,5.471-13.746,3.736-18.777c-0.413-1.198-1.01-2.312-2.397-2.569c-3.621-0.669-5.8,6.322-7.135,9.784
				c-1.754,4.55-1.8,6.271-3.811,4.586c-5.634-4.721-15.556-21.033-22.146-23.942c-2.669-1.178-3.42,2.107-2.158,4.654
				c4.931,9.952,15.81,22.062,23.863,44.269c8.647,23.847,5.874,47.423,2.46,49.542c-3.322-1.41-7.254-21.239-7.98-24.728
				c-2.315-11.121-5.836-24.99-11.578-35.036c-4.042-7.071-7.809-6.721-7.954-3.745c-0.386,7.935,12.36,23.225,9.496,41.9
				c-0.07,0.46-0.24,0.912-0.417,1.345c-0.44,1.076-0.8,1.208-1.811,0.573c-3.53-2.216-5.746-6.945-12.634-14.701
				c-1.85-2.084-3.584-1.551-4.006-0.016c-2.163,7.869,14.666,27.599,20.676,34.778c2.214,2.645,4.219,5.438,5.96,8.417
				c2.643,4.521,4.232,9.44,1.801,14.093c-4.182,8.003-18.153,12.524-24.803,11.608c-1.908-0.263-2.667-0.976-3.024-2.871
				c-1.01-5.352-1.437-13.075-6.503-19.794c-2.008-2.663-5.101-4.709-6.389-1.663c-0.394,0.932-0.453,1.91-0.243,2.882
				c1.229,5.682,2.114,8.129,2.328,11.591c0.39,6.318-3.088,13.952-8.012,18.025c-2.92,2.415-8.559,3.171-12.155,4.191
				c-4.527,1.284-9.101,2.404-13.71,3.355c-1.302,0.269-2.651,0.543-3.727,1.324c-2.568,1.864-2.526,5.634-2.226,8.793
				c0.194,2.045,0.563,4.384,2.31,5.464c0.821,0.507,1.809,0.709,2.774,0.732c23.355,0.566,39.712-17.625,64.126-15.899
				c8.16,0.577,13.066,1.102,19.519-0.808c4.621-1.368,4.893-3.958,2.806-5.49c-4.431-3.251-10.975-2.662-14.489-3.309
				C335.038,314.055,335.006,313.974,334.974,313.894z"/>
		</g>
	</g>
	<g>
		<path class="st4" d="M243.95,306.362c-1.224-7.192-8.221-11.207-14.822-8.233c-4.158,1.873-7.829,5.531-10.626,9.729
			c-1.736-6.056-5.354-11.687-10.313-14.785c-8.13-5.075-17.265,2.714-18.563,10.773c-1.626,10.094,4.056,20.828,8.821,29.29
			c4.618,8.198,10.27,16.53,17.169,23.005c1.289,1.21,3.896,1.388,4.744-0.377c4.213-8.753,10.575-16.519,15.553-24.85
			C240.124,323.86,245.407,314.926,243.95,306.362z"/>
		<path class="st4" d="M254.648,331.722c-0.37-2.173-2.483-3.385-4.478-2.487c-1.256,0.566-2.365,1.671-3.21,2.939
			c-0.524-1.83-1.617-3.531-3.116-4.466c-2.456-1.533-5.216,0.82-5.608,3.254c-0.491,3.049,1.225,6.292,2.665,8.848
			c1.395,2.477,3.102,4.993,5.186,6.95c0.389,0.365,1.177,0.419,1.433-0.114c1.273-2.644,3.195-4.99,4.699-7.507
			C253.492,337.008,255.088,334.309,254.648,331.722z"/>
		<path class="st4" d="M185.306,325.771c-0.921,1.507-1.139,3.517-0.79,5.388c-1.323-0.756-2.809-1.249-4.185-1.194
			c-2.185,0.088-3.534,2.118-2.893,4.226c0.763,2.511,3.397,4.212,5.488,5.549c2.47,1.579,5.238,2.818,7.559,4.614
			c0.468,0.363,1.148-0.038,1.333-0.539c0.99-2.681,1.392-5.696,1.532-8.535c0.145-2.93,0.23-6.598-1.572-9.106
			C190.338,324.173,186.817,323.302,185.306,325.771z"/>
	</g>
</g>
</svg>
